<mxfile host="app.diagrams.net" modified="2021-12-17T16:01:11.578Z" agent="5.0 (X11; Linux x86_64) AppleWebKit/537.36 (KHTML, like Gecko) Chrome/96.0.4664.93 Safari/537.36" etag="peS0UWxyr0OSwD9taHO5" version="15.9.1" type="github">
  <diagram id="a1lyl45SEmCNzJhCuxmD" name="Page-1">
    <mxGraphModel dx="2063" dy="535" grid="1" gridSize="10" guides="1" tooltips="1" connect="1" arrows="1" fold="1" page="1" pageScale="1" pageWidth="827" pageHeight="1169" math="0" shadow="0">
      <root>
        <mxCell id="0" />
        <mxCell id="1" parent="0" />
        <mxCell id="xXsEObeVSqV9C6Z43QaJ-3" value="" style="edgeStyle=orthogonalEdgeStyle;rounded=0;orthogonalLoop=1;jettySize=auto;html=1;" edge="1" parent="1" source="xXsEObeVSqV9C6Z43QaJ-1">
          <mxGeometry relative="1" as="geometry">
            <mxPoint x="190" y="142" as="targetPoint" />
          </mxGeometry>
        </mxCell>
        <mxCell id="xXsEObeVSqV9C6Z43QaJ-4" value="&lt;font style=&quot;font-size: 18px&quot;&gt;&lt;b&gt;WILL HAVE&lt;/b&gt;&lt;/font&gt;" style="edgeLabel;html=1;align=center;verticalAlign=middle;resizable=0;points=[];" vertex="1" connectable="0" parent="xXsEObeVSqV9C6Z43QaJ-3">
          <mxGeometry x="-0.1182" y="-2" relative="1" as="geometry">
            <mxPoint as="offset" />
          </mxGeometry>
        </mxCell>
        <mxCell id="xXsEObeVSqV9C6Z43QaJ-1" value="" style="shape=image;verticalLabelPosition=bottom;labelBackgroundColor=#ffffff;verticalAlign=top;aspect=fixed;imageAspect=0;image=data:image/png,iVBORw0KGgoAAAANSUhEUgAAAggAAAFFCAYAAACJ0hVMAAAAAXNSR0IArs4c6QAAIABJREFUeF7svQl8ZEd1Lv7dpVvSSLOPZp/x2GOz2NisdggmgB8QBrDxhs1qmy0YkrAEQhIIeSH5ZyPhQRJWh/ceyQOyPEgIa4LZeSSx8RhsbONl9n1GmtHW6u0uVf/fd6puq6XRSK1Rq9XS1AV5tNy+t+pU3VtfnfOd73hwh7OAs4CzgLOAs4CzgLPABAt4ziLOAs4CzgLOAs4CzgLOAhMt4ACCmxPOAs4CzgLOAs4CzgKnWcABBDcpnAWcBZwFnAWcBZwFHEBwc8BZwFnAWcBZwFnAWWB6CzgPwvQ2cmc4CzgLOAs4CzgLnHMWcADhnBty12FnAWcBZwFnAWeB6S3gAML0NnJnOAs4CzgLOAs4C5xzFnAA4ZwbctdhZwFnAWcBZwFngekt4ADC9DZyZzgLOAs4CzgLOAuccxZwAOGcG3LXYWcBZwFnAWcBZ4HpLeAAwvQ2cmc4CzgLOAs4CzgLnHMWcADhnBty12FnAWcBZwFnAWeB6S3gAML0NnJnOAs4CzgLOAs4C5xzFnAA4ZwbctdhZwFnAWcBZwFngekt4ADC9DZyZzgLOAsA0FrL+4L/6UuSF5VKpX/rHxzE/pEhnBgcxPDoKErlMgrlEhKVQvseoOX/8HygqyuH5V3dWN29FOuWr8KapcuwccVKdOc7btrc0/PPPC87PM+r/9HZ31nAWWAeLOAAwjwY3d3SWaDdLdCn9frjw8Ob9hw7hrsfeAAb1qx8+obe3jsePX4ED+zfi73Hj+DIwEmUqhE8HcJDAPg+fN+D9n1oAwugPfOK8TwFHzF0kkKrFD5/pzXyQYA1y1fg/I1bcOF52/CU9Vuxoqf7x8dOnfqz7o4lBy/dugFrlq0ubuzoeKTdbeba5yyw2CzgAMJiG1HXH2eBWVhg586dSwYCvHqoXHzJyTS9ftfJfuw7ehgHTpzAiZEhDFUrSD0fYUcHgAB+4MHXCtzwK63pZTA+BgIDbbwNPoECv7QnP3sB5FzlEUZoqDQBkgRekqIrl0fv8hXYvKYXF63biO1rVmPLilX7okrpT7Zv6v3Rs86/zAGFWYyv+6izwEws4ADCTKzlznUWWIQW6I+iZxwrlW68c/djy7724//oXhOGt+0/dhTHRgsoJZH4Aoy/X5Z3WfDlf8ozwMBLweCDwQYWIBAcZN4D+byBCsaxYK6W/Zc/MhoBBVQDbTwMWiPwfOR9H6u6u7Ft1Rr4+c4fbD1v+0O3PPu5uHL58l9bhEPhuuQs0FYWcAChrYbDNcZZoHUW6Nd648HBE/985z0/XvOz/fvPe+TY8dzRoQFESkP5XPz5ZdsjXAILE2q/nFlbjXfBAAdeQqkJ16NXIfDgpRqBAIwAsQ8kOoGXKvR4AdZ09GDbiuVYkfPvetVzXoCnXHjRX21ateofZ9YSd7azgLNAIxZwAKERK7lznAUWmQUOJ8mJz3ztyyu+9OMf5g+UCoh8DyEC5HUOWikhGXKx5kqeeQLqF/iZmoOf5XWyf5ViWMJcO/sd8QfDDgQHgYJ4JVTgo6pT5HwfuWqMXDHG8NAQ4qSCjR1LcOUTn5S849bb0tWrVq3bvmrV8Ezb5c53FnAWOLMFHEBws8NZ4BywwC6tOx4+ePDCeGjgt+47tP/WL9z1I/QNDABhCB340EwzYBhAK/EU8EdPc/EeCxVIWMAu9GdrsgxkZJ/PwEf2M7kJAcMY1mPBTIjUB3yl4JdjJAMj0BHBhY+U/0siLO3M46W/cCWuvvwXDj90+NCOqy+/vO9pF13Uf7ZtdJ9zFnAWMBZwAMHNBGeBRW6Bh8rl13xv//6tp4ZO/cmXf/g9HD1yGCN5DznlI5dCFuPUA6IASH0lC3RA4qFkNZodvrws6nf7TbDZpB4JS3KUO/L2WiMEkJYrqAwVEESpBQce8sqHpxRSL0GqU6zo6sJzL34SLtu6+YvPvGTbV7avf9wXt2zZUm5CU90lnAXOSQs4gHBODrvr9LlggeOJvvauw0ef/dOTR971wxPH/b3HjmDwwEHkCgX4npJQAlMTFRdguvMZUYASwJC5+McIiuM9Cc2w30SAwHuRnJh69BqQ1ughlygE5QjV4VGoamRJjiQ1eghSQhmmUqaIfQNo8lEVa4IYVz5pO7Zv3P43r7vt9cc2Le39QDPa667hLHCuWcABhHNtxF1/zwkLfLNYvOb+gwc/8Y1HHtm0K0q8IRVhWSVCtGcPotEBdCFB4gEJEws8uvQ9BCpz7RMscOE1uQctPZSWkAIBS+gBfrGK9NSI9Rx4SKElrTIgT8LPybmaoIYaDLGHUCVIR44hTAewKliGq57zvOiGq6/+yC//wvN/p6X9cDdzFlgEFmj5878IbOa64CzQthbYqXXOGxrq/9hP7snfefRYVyHshk5CdIQaQXkIowd2ITcyCM9LxWNA74HIFmiCA18yEK20kclaaOUbgjoKNowR0LNRrqA6MIx8VSG0GQ+pZFckEnpIdU7a57MvTJVEhwEOgwfgV44hQIi0muLCzeclv/6mtxaf8ZSn3nbJ+Zd8uW0HzzXMWaDNLNDKx7/Nuu6a4yyweCywW+u15Urp7fcdH/rdv77rB3g0LaEDXViSdKEahigjQpAUEB3cjSUDJxFT8TAL8zPUL2DBChnR1W8X5LE8x1bYSiOFhw7mQBarqA6SkBghENBg7p+FFEiqVCoHBkhCHQmpMlEdwp1IRg7CKx5GEOSh4oRyTugKunDD1ddh5YpVV731ltcfWL9i/b5W9Mjdw1lgIVvAAYSFPHqu7c4CAO7S+qITJ09++mv79z73a488iiI64eU1QpUiZBwBOaSBh1y5gMq+R6BHTwJ+XrwF5BsQKgjXwPIQ6Fng9/wbv5pyZGjE8A5rngmhQVrPgaQ4Kh8oV5AOFYBKjNDzEENJXYesvaK/SDlGnYOnUwRehFgrIOyCl8Twhw4hVzqGmECDqZSEEXEKT/m4/NKn4fbXvrG0bsOGl/7SpZd/vyl9cxdxFlikFnAAYZEOrOvWuWGBrxw/fv7+wYG/+daBQy/Y2T+MiOqGgQfls94BhQXoDQiQhECuUkSybxfi4kkEmnmMk9toXNGkJpmRoEDAhldPiCSIYWiDxEQgCYClg1WUR0ehotjoNjLdURZ60xCGRAgoLJ1S+siERyFaIkBOx9BDRxCUmOXoQ+kUHsMVkq8Jqi5h/cq1ePFVLzp4yRMe/6tvuvF1X29SF91lnAUWnQUcQFh0Q+o6dK5YYFep9Iufue/+v/zukYNX7K9U4ek8fOUjCn0DELgoEjBoXwBCWB1FupcAYQABXQStfPot6hjzTnBhN2EOZjPk6CkoV4CTBSjWZbCDaJSb7U+mvIPRYjD5FjbrQsk5/DmwAMEv9fMnAxDkb6QyaiEzeomHntwSPOXiS/ff+LIbPvqSZz3/0729vYVzZd64fjoLNGqBVr4iGm2TO89ZwFlgGgvs0frHv/ed7z7urqMnl4+GASIdI+dp5Pwc4tR6EMgjIPFQefMOEAQfEK+IABPTKI0XgOmMPrMlRquITo0IGbFeTInpjGb3n1EnTYxCsI8fSIiBIkpM16TPJFQR9PAx+KU+CSmYDAfPFIayIQcpQR0phF6Ix2/bXvngB/5k9NmXXtHrJp2zgLPAeAs4gOBmhLPAArLAj/r7l8YB/uHTP9n50m8e6oMKliIHIM6LriA6Yg+eHyD1U5Es1vQgtAlAYBjAlHm2ngBfI+T3pQrigQL8SgwEPGNMlCn7PhsiU+tJtB7HPAiKak+TAASWoBbqpakjQZAgYCMgsCAzwUdSqmDr+k34Hx/4YJImuY0vec5znALjAnoeXFPn1gIOIMytfd3VnQWaZoH/KBTW7jvR/6Ev7X74lh/0nUQe3cL6r4aUHgbCBAi56PkstpSFGNrHg8BFmqCFB9MVub/3ihWkA6NAlJiQA3UNplBuHAcQPF80EaAMz2CiB4GZDgQTJkxBJKKhyc9QrAvhy30YctBJip6gC+9889seu/Cii2669jkv/lnTBs1dyFlgAVvAAYQFPHiu6eeOBf5vX1/PycHhT3577+7X3tU/iNTLQ3kKytdIPCoO+uhggB8aUUj3O13v7cRBMKJLJltCkhWBchXJID0HTEU0fxWOQl3Nh4m1GiYCBI+S0GcACFRkJA+DIlCG7WAOUZC2mEG0IPiVaqxdtgbX77h652WXPen2W3a88ifnzuxyPXUWmNwCDiC4meEssAAs8E8H9//bJx94aMe+/mEUwhxUQGnhBNoPECahETnyEuRSjWoYtB1AyFIUI4YVROeggmRoFKjGRpyJaZV0Bogyol3ArWiSSVW0i3stxMCFnaECBX/SEEO/qCwavsMYz1EAAj0XIgxFj4KPiFkQnqlmuaZrOa59wUvue+plT7/5Nde8fNcCmBquic4Cc2YBBxDmzLTuws4CzbHAXUf773n3Xd97xiNlrqSUBqIuADUDmDrISoyBeAtYk4DyyL4OhYPQdh4EpjrSxV+ponpyGLkqAyQkVBpegYQCpLaCQQwMAXDhlnTHDDQY94IVdqLfgbUjDAIYH2Lol9RHW6NSPk/+QVYEir/3lbl3TVFSwIaHFV09+NU3vOX4M7ZdtuWqq65KmjOK7irOAgvPAg4gLLwxcy0+Ryyw8+jRJQeU/vJH773nBfeOjGCZXopCLkY+0MiVUoRhF6pQBgywTDMXSc9HTjE7oL0AgizWFEIYrSAZHAXiRABMFkJg23lOkKkoWRnozJtgqIvGy2BCEcxMMByEWt/HZTFYruFYAoRcXzIZLOCQ7AcCLpaYJlCgJ4KAhN4F5eNP3/9H2L5t88qrnnrV0Dky5Vw3nQXGWcABBDchnAXa0AIPnDixbn9Vf/h/Pfrgq7956hi6kUMYBdABWGYJXTqETjxEOQbtE/Glc8EUJUIRI6rXQaBQkp47HYQ6ZSWhQYgXg9kTY8JIkmFIQuLwKHQ5MgqOfrbsG15ACkhWQ7aCTyrYZPMlJYthGoBQ/3IT3GHlpY2OgpFtFtEl/swCUaLQaJQe834eHWmI3/vN9+7/hWdecfVTzrvkoTacJq5JzgJzagEHEObUvO7izgIzt8C+wcEVu8rlj37uwUde+63jQyiHQF6NAl6HcZpbRcIsll5/B3rnleT904NgGHlGKGkOAYIFArK4WiaiAAAuvOL6JyExQnByBDGlkAkMrPcgk3hmH6Tg0jT6TZNlMUzpQRjDG1bjuc5aUqTK/MywhqkMaViSofLhpRqb1m7Em257w09e8oIdt2/v3bpz5qPpPuEssHAt4ADCwh071/JFaoFP/OzRCx4dGdjzpX37EKsAUeDD9yg9HNZF4yfvPDUPTFy9dQCBiyylkuk9COm1t7LG/B0VG71yhOrQCPxKJICBX1oxNdN6EOpllKfp4UwBQkMvuFrqpflGPAtKI6S9E4VLn3gJXnPjqz55w/Ov+d0VK1YMLtJp57rlLHCaBRp6fpzdnAWcBVpngd/6z7v2fvaxPedHYQc0hQNSJbF545Kf+pGdD4AgXgDbMuEXGgFHozFQrqLaN4hcIlJFY5wD613IrJp9viErZ0JJDXAQpn3B1eIYVmnRKjtrejikfAPVGTxc/uSnFy69+NIdH3z3B/6zoTa6k5wFFoEFpn1+FkEfXRecBRaEBfZp3fnDvYdOvO/7319W7uwSFcQ00OhgTD9ltkJ9VL49PAhskfEUmHRCqXkQePKzV4pQ6R9EkFDuuK6mwixGQ0SUxEPhT8tBMN6AqQ8bhalVipQIg5AWbYEnm/0QVaq47abX4hevuHLjLTtuPDaLLriPOgssGAtM9/wsmI64hjoLLGQLHNf6gnuGTn7x3Xd+/6knYg85JFB+RjpU0CINPP2K12oPgoEsWgiJbB/bLIkCpSriU8MIKjE8kgNJLmjCkREMGyEpNmAu8XwwNJKVtc5ok7yP/I28BOFVaCxBDn/6O3+IG19w3dqlS5c6SeYmjKe7RHtboDlPbXv30bXOWaDtLfCd/sEP33HvT37jzpOnJBUvL3txVjUMpVyz7Gzb0IPAVZSCQ6Il4HvCQdDFKuKRUXjVyCgkSsnmunzDWYxGszkI4kGYoJdgII+t3+CbwlAEOYhSbFy2Fm99/Vs++rZb3/L2WXTDfdRZYEFYwAGEBTFMrpGL2QJ3jpSu/PGevr/5112HL95T7kOYS6TaYRKkSLWHzjQvy1VqguJTHq32IBjOgQEIXERVsQo9OAo/io0wkc1KkMLM9vuMb2CTH2oSzKZmwtT9azZAED9BLZthTJBZmiEZIcaTIA6QVCOpJLjs8U8qvOXNb3nva3/55R9fzPPS9c1ZwAEENwecBebZArf/ZPDWYqHydyfLVewePoTRygloP0JM17wXivs+h1i+n24FbTVAyFgRlE9OR8uIhgoIqwkCZipYbQNZYEV7YCyHUfSOMmKjXYyF3FgvmzjJuDQbIGTCzuLhsBoS0i5bcdJjmWiwJLWPVMpKByLJ/Kprbxp+9+3veM95qzd+ep6nj7u9s8CcWcABhDkzrbuws8D0Fvj37373yT9F733/hvOwNBmhnB8eKzyG/ugocqoDqdeBJB8jjCsIkTd5+tZtb1ZYs+020Qcy7/3mpTlmC3Z2G9sdE+owrw4u6AkrM5aqUCeG4EcpgsCIIZgFn+qOJsQQZi4EbsbrAILE/bPsh1YDBAEuxtPB1AspFmU5Cab92oCdVAuPIg6JehTWda3E5Rc/5b9//uN/90ceUYQ7nAUWoQUcQFiEg+q6tDAs0Bfpp3z9wOhPP3cgRU9URYwcdEeAYjqC/sIBDJYPQ3kJtMqBPgTD/uOClsLz7BKrAqP+x50uqxdSbYi73WboINQt2txcc6GnPkBepIiBmAQ+XyNfqCAaLCCNE2H/m7oKxoNgdZNqYCL7eeKLp36Fneql1GwPQl2Wo4Attrt22DiDYl98k6khkQbaWyk87xnPxo0vuua211776s97tQFZGHPPtdJZoBELOIDQiJXcOc4Cc2CBewaSoY/fe2T5cZ0XiWQNX3apKkhQ1UX0DR3BYOmk1FVQXJGpsywAgZUcbexcAIItcGR37c0CCJmbffyu2gARsvxD+EjLlE8uIK1UEbBolA0lZC+WTCmxWS+aZgOERoZVMivpJRG9ZiPJzJBDT9iJX3nl6+69/OlP/eUdz9ox0Mi13DnOAgvJAs16bhdSn11bnQXm3QI/L8W//dn7Bv7k7hHtd4RMY8wBysTuySNIfQ8VVHF86DBOlo9A5crQyJlURwEJRo3IE9DA34oigeyAmWrYLCXFLA1QyibbMAZ30L6UbI6QDBWgo1jSAKVCojTPvlbsPxN+nJXt5wUgnNZiQ1AgN+SirRfiA+/7/c/uuPx5t86qY+7DzgJtaAEHENpwUFyTFr8FPvHQibu/ti++Iu5YCs+ryELvKQYZ6OkOkaYhVOih4o/i8NAuDJaPGgcC3fa2ImEGEMg7kIJDngEIaZMAggQxCAasxoGABWiEFCkaLSMZLsKLElFIFMCQqSNav30GDLJshbHSTGc/vvMFEOixMaEcIwIlpagZ7IkVXnHNy/Hp/+8v3bv07IfVfbJNLeAmdZsOjGvW4rXAfwxFn/jbhwffcmR0iRckFRTDADlq/1OtR6XwVADPyyHxNBKvCpUv42j/Ppys9EF7LOtsXNzG402lAXoSKGNMKcPmeRAIELgw5iSowTRLD77vwStUkAyMAJEtvGTVB6XGAj0JtmBUlpXQWoAQQw8fhV8yOkbNeMFJn6QctZTHgqf4HaBzIeJUY1m4BJ/50McO73jW87cs3lnrenYuWqAZz8+5aDfX5za1wJDWK4ejaGMC+MW4iMEoQhTFKMb8N0I+yiPKA915IJ/LI5/PYWU+j5W5bnTofLm3Awc9z4vmqnsPlPSWrz187I4fDeRenKR5dCBCJfCQSw2pryYqJAp/xo9NmeI4jnBwdDdGigPQgULK/StrHQiRkAmEBAiyxW9eiEFWQZPmx3uRoIhKhGSwAL8aS0lnkhezVVhUDsWTUPc7G/ygPefag6DgI9Qx1NAR+KWTzQMIFijRe8DOUdOBR2RLbKOq8N+e9sz+17/21Vdcf9X1++dq7rjrOgu02gIOILTa4u5+TbNAv9aPG4oqV5wsDAWnCkUMjRSwfvnSZ3d2dN1S0WlHOY1RSiJUVYokTZEkCmGcM4p/eSWM+44gRHcuh05/CeI4v/+R4fQTXUr3bepdiu0rOrEih3s2dHg/b1aj/+6xgdt/fLz4qX2lDsDLSbZBqKiYmKOjXkAC+QPgl+ZvDM+AX6PBSfQPncBwaQCxV5WQg5HxMRUIuZjTn8CdfjM4CKytwOsnvsmm9EsRUnIOCA4EBzC90ioktuhNMlWIQQCCiqGG5wIgTJgBHKfAkxLVofbRE3Ti9je86Rvve9O7X9qsueKu4yww3xZo0WM93910918sFthfLG5Itffb+071Y6A0fKkKwueWVBKUkhiValXEbGJFBUINpezyaUsM0zWcUx4SBNB+YoRxmAUQBCjqpegrd6OaW4IVYR4rQ4VNeY1lueCHG1Z2//SiDTmcH3jvnI0dvzVQ2nrvwZHP/Gd/+t/SJIQKQsSeRpdKkMKQDVlzwcgSp+IVIGLwvRx06kMFVVRVCX0jR3GqeAJpGEv6nVECZAllAoSgaToINW0Fpk0WK1BDowiqseyiCbKMAJK1yBneJGZBn/qcmdh0XgCC1YPInCUMmTDIUA/KEg1ccuET9v/eG9/16zteuOPrM+mTO9dZoF0t4ABCu46Ma1fNAgPV6mV9xZHf3Ts6uH7/0EB3qvH0QhQhUR50Qte6jyQwC1bm5jYTeywnX2oG8LXuMZaeh/KqCFnpQPmItMIIVuBAcSkKfjeUThFquv2BLmgsDTU2Lwuwoiv84ZWbOrGhK/yf53XlPzvTIfqjB09ecbyU3P3ICHedAZROJFWQnIM0SCSNkW57IR9aBT/eQ8SRJIuA58Wo+gUcHtyHgXK/rNBSbMiWJfaFgzDRgxAgCRXC6ijSvbsQFwcQWJ0C8T7Y7ATGKGoeCe0hYQkIDeSKEaonhxGkJEFaj4GQ9qzWwZnKLFhg0IhCYqO2nBIgeAHCNJoTD4LYmGRNeg5EC0FL9UrOIR5V38PaFWtw/dOv+uM//5MPvb/R/rjznAXa2QIOILTz6JzDbfue1uF2ldy9pzD8uIcPHwmGCyMdKbRfIYkvDISkxzd1VgvAxIfHdqoZUBAinxXsEbKcLFrUG6ALn38IEeoyCulS7B1dh7LOy99MtcCgtjj7WqFDJ+jyNDasWRE9f2t3dPkqvH994P1VI8O0c6fOHVldHf7ko4NdAgo8jYrnCRAhyTArxGS0ecb6Is2V0LdGmgYIQsKcGMqv4Nip/RgsHofKpxRihvIZcwjkmqmXUKXA2EcRIEAAQrJvF+JRAgRCCkMXSHh9hhEShbzAKKCaA3q0Dz1SQnFwBD6BWB3pLwMKIo5YxznIbDHOc1A3Lo3YaqpzxgACQzG+aBPwS0v5Z68OIJCkKHv82R/Wg5D1M3OISNaGvbpMJS/EK6+5MXrNTa98xbMe/4x/nf2N3RWcBebXAk15fua3C+7ui8UCg4N6xf7Rw709K5Z/fffQqYv2Hz+Gk8UionyHSaPjK9+GCxR18ScctfS/MxjEAAQuKJQjNtz61MshLwChB7uL61FR+ZpPnDvx2gLA+L5oE3lIkwTL4gqesHYpnn5+D7b3eD84Phzd+ILNy06daSzuPVl94hcePPHznVE3OhW9BSnioFOKMmmGEwh4pjhk4x4EwqOgKTyfQKmKg327MVA+iZTERV8h8PKkLkD5CQhqmAJJr0JsAUK6Zzei4oCACMN3MDel5yDnBSL1nP0+LFaQDI0iZlVGLsZSvcimWdpFM1NLbNUcPCNAILAht4QehJEj8ItNBAgNdo48l+3nXYCXPu9Fb7v2WTvueMYznsF4jDucBRasBRxAWLBDt3garrX27xvqv2ykUPyNQrVy657hAQxUK1IYR3bXdftAnzn+E8DBdMAgs9SZAUJJPAi7ixtQUTnZzUvKXrY7tMBElPSkvDGEO5CoCD0BcOGyAL2dwZc29Cz5p65l5a/fvHbt6MTR+c7xov7wfadQDpehQ8XwNPf8HRJOgJeMaRucaVg13dqphCA88gy4pPv0HBRxfPAIBsv9UEEsu39RZAwy7wFDGL54EHIVhhgIEE4hp1lDYazuAMEPqy+mvnWbl6qIh0ah40j4DbVRECPWeTjst616kUwJEDwYkuI8AQRmluhY4X23/wae9bRnbv+lK35p7+J5Sl1PzkULtOq5Phdt6/rcgAVOJtVr7z965NmHRoae2x+VLx+JI3LRTbqebJUZ+7Xpc5ZjkHkSGrj8uFPOBBByuoRRAoQSAQI9CMZzIIutjc8TMGSEPLqaUy82tQm8PKBCdHkJHr8MWJNL7njhhSuOP3V5xweymx+N9G984mfHPvxfwx0IEl7bQ+BFkqqo0SkaCFo8Gmc+TKiEngfPeBvIR5D6QimqahT9hcMYGj0OFShZ+FmmWNqrDEBIBSAUawBBNBNsSqLpl2EfCNgqR0gHR6GqkZwi5DwrM2yiHWZchC5RX5FxpgNyFue3K0CQZFDWcUpSXP64y/AHv/3f//DZT3nW759FF91HnAXaxgIOILTNUJx7DfnZyZPv39V39M0HKoUtQzG9sYyh0/XtIdGpuLWzAjnkFAgwMOjgrIw1HUDYYwEC728y3g1IMLyArI6iVQwkjyAMUU2Z8ufDSymmAyzLa5y/JE0uW9vx3eeev/xfNnreHT8upA988L+OPqnkdSBMWOSoC76uIs6VAdWFziQn5MPpAIIs6mYth+cFSKU8MZUTY8QooG/wAIaLpxDlEyHRGdnjAF7qI8kBeXoQ9uxGXDyFNOBu2xDvZGHzGGLw4ZUixIMFqErVhDIyCgRtUgu+m18ab4UFEGc1IjP/ULsCBPaX9OxeAAAgAElEQVQkZWzH99DjdeBjf/qR0euuumbpzHvoPuEs0D4WOLs3bfu037VkAVrgQFx+wYmhoX+469DepcOVqCPhjjgIKSIoXHzZ0fpadtiCB2RBnP1UPRuAkIGDDJQI+VF4hEakiG3l7p+x/FQT0ATIJxUsD0u49Lye8ksuWNN/5yPJ+m8d6s935rnD9JF4nQi0FoCgdYh8kocKsgLIZxpQDc3FXkgA1E3g4pwTm2mWV/arSFHFsZP70Rf1Q/kpfGZC2JAEQwz5MgECsxhO2cqPpqaCFB8iuilFiPoHkUsNEhCBpPpwQg2kGeTgAMLYWHFeCHeDmK2q8PqbbsFH3vdns5+0C/D5dk1ePBZwE3jxjGXb9+SQ1psePrR3QxSn9zzYfwQFz0eOiX6KZYa4szaUeJEdplaQZxZestWbccwUIEyxVBvynya5MEHiBYi9DlCFIAemSFaRaC7iCtuXhTg1kseol4i4kfI6kUsVfJVDQhKkxxg/sxga6CPLPkuZ5wRa00CA7xuQQNVFz1fQQYR9p3ZhqDgIMBvDNzv8SEIMhZoHIa+MXgIrKZCwiFIVyXABqsyqjMyysD6UWt2H03MZmyhv0PDwtrMHgeOR0suTAqu7VuCjf/7RLS955lWHG+6cO9FZoM0s4ABCmw3IYm3O4VLpmYNR5Rv3HD24cv/QALwwJ1ULTSlh67Y3FYxtLFwjkJ2syetvxtEsgCAtZL0EkwchX+Ji9gJEJFZ6PjoIclSKUVVGR9CDQMUo5rlXD9CVkEuQA3Qevhch8ZlCSKGkqQ66KkIb9LCyyp5CSrDh8/cs4+DBCzTKQUGIiww3kCvB9sZ5ZUiKe/ZImmNe+wIOiB78cox0oACvGply0/SS8E9ZjOHMSMlkik6S5tiM8ZrsGm0NEDIeAjwkpQh/9YcfGn7T9a9dMVe2cNd1FphrCzTnzTvXrXTXX9AWeLQ89PyTgyOf/NmxIxcdrpTg5bq4uUXATADuhLk2Wplg/t6kH5qSx8wlMGWGZ380CyBIMoMhQ8BX9CRwwY6gpJBSiFQFCJgyiBSJT0EdfuUQhUYdMUx96R/rLIic8XQLMW8l7v1sJc4UF+nBILgwTACGINgwFSqU9AhOjhzB4OhJiiUjIkCojkLt2YtolN4FLZkMuhQhGR4VcGD0BCSIYYouWS7GpJavG5NWpjq2M0AQQSiqVAQBkGhc/vinlP/xk//rFb3Ler86+9nrruAs0HoLOIDQepufU3fcPTLyrP1D/X/7QN/RiwYTihwzEG+IiEQJisuRVCvm4skFNxMO4g7XkAWNdM/sj0y8R3a8vqnMpxgW0FUU1DLsLq1HJc03VFVImAiidmgEl5gISH0F6hvw2kyDBEMoEglQUKoLPtMUEUGhE4mfQPsRwjQnIQajyzDdkRE5Q5PKKB0hSVIZPgQlmWMPKmBaY4QEo+gbOISB0X7EnanxIOzbh7gwwFxGBAQHp+g5iC3IMN4AQ1q0BEXLO5jYsnrCYp2u03QdaMrfs5eWqVRhMywoBw0qVFJJ8ajoIGSZF+NuOtkbbyIAPZu3ovV+8aORaHUEWNO1XP/tX37qG89+yjOvbkrH3UWcBVpsgbN5FFrcRHe7hWqBPaXS1mODgz+56/D+1YPMSkAgzHmCAqbikZA4NgFn5qeeSFrMshzqbXUasVE24SYcQIBCCMIgPdsxlK7E7nIvojQnKgONHuPj8FmAxOz1eZj+1T9mpp9jRZYau5M03aYVjruyic7U7kK9gpRpkxRhoq6BKuBAcR9OlI8hlxZQ3r8L4egQOkYiFIaHoWMjK81KjZm9DO9jLIOhsRa27iyWvDZ6FCxiZbxMrL1BRcjQS6CHjglAIIyqP+QnUZwa++1kWosyl2b8ZjRjynuEit4vH7lcB975xrd+/71veOdVrbOOu5OzQPMsMOPHoHm3dldazBbYVSj0nqqM9P1wz6Mo0MUedMhCbBYf4y6nt2DCO9y60cdb5gyb2HEnTQQDnNiKaWcT3vSi0CwMfA+BTuQalB0eSpdjT3k1YtZIoBehzQ7hO0zY6dooh7UhMxZIWqQnhv3qhCb5MUxR7axi9/HHUC4cQfHAz+H1H4J3qoyoUkE+yNFQZideB0KMwqIRhmq7Q8IqnDusXWHlHCQkBQRpFd7wMQSFfqOjMccdqGEJqUthQJYXK8nK0X6IKy97xo++csc/vNDzvErb2dE1yFlgGgs4gOCmSNMtcCTSTxsoDP/wu/t+3t2nYoTMVUi4wzIFgLg8h9yxnrZNa3Q6mvBAdpjvTl/J6s8x55qXOH9PDkDmmmfWxEjajf3l5UhToBR2zfnCcjZGnwgQ6q9h1kJTg8HzmQUSGj6CqC+mUKqKvv69OPjAj1A++KjxHPgBNFMgJoxEPduh0RE5m/6c/WeMHLRoPNCD4JNlYYBCR1KFN3AE+cIJFPPjVTjNNJk7xGNCLeR2iG+K2ti44vFPHv7En33o/RduuOBjZ99f90lngfmxQHs+//NjC3fXJlnggeHqNx8+0vfCvqjskbDF/Wkg3AKuWVT4U0KI4w6vPn7d6LvbZN5NnLqTvfgnnFPLkuBCytCCMCDQIdkGnThY6oaWWgQNpBw2yVYNX4aJE9M0i9BH9taURhYuQQK645lKqrSPU5VTuOe+72Co/zFTFtpuf42T3nggJlq2HV8QWXiG80o8K8KZML3ojMuIDz4K/+Qh+Fk1qjojTxaKangMpjuRFBQh1TIThErhIbat2YS33vL6j9x69SveNd3H3d+dBdrNAu34/LebjVx7ZmCBB0ei2/YOVP7iVDHppeuesf7I9yQfn9kIYcr9O8EByy6PBwhmhzfhZlMx6etf/JO5kidxyQeaoICV/0xFRSKUPGKU0hwOlzvhURlR9A1m0OkWnJpVWT7dPmM2Mzt/ArIQPmWZEQkgU34HComHI6P9ePjEAzg8vBt+MTbpjFnNCeEc1DEmJLqQLcUt6OAMbzGe28FCVYZL0h2VUdl1P3B8HzpSIyg1djSzP9mVJ/AcRMHShM4838eycAmefsmTP/LZD37CAYQZjrE7ff4t0Gavwfk3iGvB2VvgWKJfur9/9H8/NpyuVTon8sP8XxIY7gEJimT1c9GKg8ZIcFnmwVStknManMmeFt1AE2JgsMMD8ipGOQ1wpBwiSCNEQZPKBJ+9KSf9pMTbp7kmAwbUjfCVQs6mLZ5KPfSXIpTSEg72P4T+6kFgOEK5XBYFRQM+bLy+7h4mU2O6Oza5k41cTtQsTXInM0Q4n6hBwUJWS6Myol0/hX98r3hcpG7EDI8zdXm8h2uS1AdTe9xkT1ibhgjx2mtuHPr1N7z59Ru717gS0DMcC3f6/Fpg5k/P/LbX3b1NLcCKjD86OPCm42V9x0iSg89UO7LLKT3LrEJlAAIPagOkVh8gK4Akf5D1aOKUrKPpn6HvtfyHaWazyQSQNAoo638W9UNdFYBwrBzAT8tI0N2WHARroqlngK+oeiAM/1DnMZJq7C2XUaSAkyrh+PH7MVDZhw7VgVKpKERFkbe2YQYJTdi1T7Im2vENUQdiPJ0BhFDSRZdGJSQECMd2I/Vzk4Sipn+AGsqIsZeZeK6xF0No1sfh+XjpL70AN7/0Zbe98Gm/9H+mv7s7w1mgfSzQjo9/+1jHtaRhC/ysv/j0U5V45/4C394htE7Ec0BlPnoSQtlcGcDAODkPKcQ06QycGyKZkRQSBQH5r5G1YTQ+Qjn1DUBQZUAvabjfrTyRaXzTL9gsHU1dhDxKiY9jxTIGSAjNhUBawLG+BzBY2g8vYBVKhUqphLQSSZqjgASTC1iXpjk3YzEbu2XkU6OPwYqYEDBA7YGeahGxAIRd0MiPT6RtkOQyWd2PqUCD1OcQ7QNP0i0lQ8eU35Sff+GSp+CFv/ic297+yjc6gDCbgXefbbkFHEBouckX5w1/fLh4x2OF+M0VLzQx/GwPnhEDbUYjXfoBSxBL+N+4ZFt1yBJIhUDreuetlRcg0DGKysfxSoggKSEKKF3cunY12n9Lkjen1z+5dU01ACJAKdI4Wq5ixGPdhwD5lLqOJew99XP0VQ7VyjjTs5OUKkjKFQEJAg8sEJEMgfYzg+FVSJoq/2syGhKfqakWIOz+CfzjBAiUw577V1wNIJhSWgZ+ZgDB07hww1Y885Kn3fbh3/qAAwiNTnZ3XltYYO6fnrbopmvEXFrgWKo/8x97i68rSMlmhRS5MZleLsYSkM127fw2K6fcQFC9yQ0nQMi8B1xgEj8ngKaSahyrBEAaW4nnJt94tpcTQEXgkoJu9UBAmCFbxpbBH3Kx9AMMpAEGChWUkgRxYNQpuVQmuoT9J3+OgfIRZuBJxgZLVSNViMoVJCzxTE9CDRRMMz514G+23ZvZ523WBfUQrFASgR7zNZbERSS7dyI8sl+8V604xjwIpsKlRNIIRKXkpcbmVWvxjte9+T+uet5Vr9y8ZLUr3tSKQXH3aIoFWvMENaWp7iLtaoF7ToxGD4+EOUWRGoYWKKdsXdVmt2syF8a2vVm+Xqu3p8b9y7CCqfHACot5UhZRTZWEGKgLwDTHtnswRCkwlNRM2TlTBMqzTnabicD1cDRVOFKMEQtBlD3jLpvZJIQWZRw+8RCGy4dNiefAF5CQ5S9UiyXE5QpzIAQ0mIpNZ5h1VpI5k2Zulb1ExYLZMUxR9Sm2FZhe+j4S3YElySjSXQQIB+YBIDBEwwwd4gKW0Pal4NiKzm789q//Bq68/PJLL1y19cF2fY5du5wFJlqgVc+1s/witcCek8N3/8offPyKa159K1asWI5EpeI94GJlPdZjjPNa2b8MGLR6+k0HEEJoRe2AdgQIDIeQ/GZqPjBNVAiXBDoi7RtgWAEnRoZRFZYF00QCWbBkhyulncs41PdzAQgmcm8OifR4dNkD1VIZVYYbpFiTbIXbauaeCSBIGSyvE13zABBqBrLZFZlUNX/PmUThpA2re9GT70BppIDYak7Q5p1dHehe0o2Vy5Zj1apVWNe7FqtXrcKqlb04b/0WrFm6El0d3V8ZKQy+64uf+9yhSy65BBdffDEuueQSSVjxJFfXHc4Cc2OBVr+h56YX7qrzYoF+rZf+3T//vx/89zv+4albt2zAza96BTZv3Spyt6zUKEI8hAceKw2a+gdmwtVtP1u6V1+4AMEUY2LtCMYGqHXAlA/qNZh4/EiicbwUocLaV/I7XwCaKRRpXPIJijh04iEMlQ+bMal5dUzaoAEFHiqjJVQrhBm8SnsdUwGE1OucFw9CPUAwap3mN6LaSUeMhBoUdKqkymccmDJkMobyYBiRKv5dJamknyZRFZ1+iFU9q7Bs+Sqs7l2BbZt7ccHm87Fty+PRuyr/t0+9uPTtXM4/3N2zsdqF7SOet+Hn7TVarjUL3QIOICz0EZzH9v/k4Kk3vOcjn/3z/3js+OquIMLmrZtx7bXX4oItvUxmhBY5ZQoSGaV/S4GzLc5AQiun4AIGCKTgqUQ4B6aKIbkFZO97GEoS9FcilClnTXIBgQQzSeoFqRmiQBEH+0yIYWI6BHezSikETP9UGtUKiYvlWkXEVo7SVFN6aoDAEEMRya6dyLUwxDAGEDJgYLwypubIWLoja4PweQi81Hh2bHppzUmjNMqlEqIqBa5M+e5QBxImEoXGNIJOUuRzKV5x7Xa8/tXnoad7C5YuOQ+dwYbHIjX0l8uXXIyejk0Dnrfpn+bx1eBuvUgs0C7P/SIx57nVjT/7x+9+6hNf+v7tpyINL6mItO22rVtx43U7sHXLeqSJ2SkxFitggYuQ7GrNQi2LVEuFeBYuQMgKJ8nulF8pC2B1YrASo68aYZRcAgIxG06QQk2sqC1bWLNQCUAgB6FEnhyB29h8zYh2/JdeBP4bkZNQKZsUPrsL5ieyNMB633arXiTtHGKwszozt80AsSmjnPtW5yMgv0M8NtaWfBSUQrlcQVQlj4d/Jg/Eh+dTJTIy5cRThu7yCP0KXvaibrz6Bg9Brht+kEM+XIKu/Dp05rZhSceFgx3hmi+uWnrJ/lzugj85t95KrrfNtECrnutmttldqw0ssP/E4A0f/vt//9T/+eEjvYm4UmNApQhUii1b1uMNr38tVq5YDpWSdW9JijZcajPubS9aOQUXMEAQkqJUUJAUOnoORlWIY8MlVJQHHdCzQJlKBZ9FmIxOpPHbWEJjnIUYSofFB1Ef3akHCBwYgjqqMVYoplSNDPBghoNNV83SWG0QqWWBonYGCMIIIQiw3E6hiAiiMlKfmQdNapDYDBDzJw+lQgnVatV+wEcOKXyW7RaiActb54SQCT9AGMa4bkcnbrmhCj/osHLZPIfxJaYZL4OvNmJZ10XFVSs2PbysZ+2fLl1y07+0wWvDNWGBWaCVb+cFZhrX3Kks8M8/euj2z9/5X5/6t/sPwPeZLudBp5HkB1SjCCtX9OCdb/9VrOtdgbgaIfDJPrc59uIg59Q7vRzz3Fp94QIELigUSgoNWwDDzFYolBD7eSjF5Z7s+USyDjxqDAvHwOgEyMKBAAYg/BzDlSO1XW69vTOQwN8x3BASJHgeioUCogp5JSb8UM9LkBHMyi/P7eDJ1RcKQJCF37pY6iIN0gdKYXPlpz2TJEZUilGpVKzYEomlSmzKAibMuNHkmuicFIESb0IQ48Ydy3HbDRE6gryIYtFjJC9zrwr4BBoaKu2Ap7uQD7folcsu1RvWXIllXU/+iOf1/mYLhsrdYhFYwAGERTCIre6C1jp89x1feft3733kf+zuG0asU+RYjIlKclysbJ2DNauX4g2vezXWrV0J6NjsiMisrwGEVhOwzwQQFKppimPl9s1iIEAg8TOBbwiJoxVUaG9mXLB6o81LqFW6ZHUsWbgZ7zbbWGYxHLQAQTwCkzz99SDBRMlNzYpKqSwpkFy3Mp0EsaY4IjJtzLmfiY0CBHIQZCFu4VHLzbFAuD4BRJJOrcEFYJGDkGrJGKkwtVQ0LjKZaxOOEG0HLwW8CL7KiRppHMTi3Xn5L6/FrdclCHOxCUdwDHh9DggCpPTmBRzjBNovAV4eSXUDVnRfgU29z4k7gtV/ob3OL6zo3vWA593MjAh3OAucZoHWPkFuABaFBR49Xr7gc//+o8996qvf+8UKmdd8JXHHqlJ4fkjCtiwsaVLG9vM34dprduCCbZuh01SKA0mKvWQ32JyGOs0Eswuaq2nZngBBAjDiq6e+gclCMLtHk2TIV74EEDwfQ1GKvnKEsvJFFEkWFbIV+TlRPiQI429trWMuMGJf1sYoWYBweFIPQjY5a+EGOwwiwZymIqZEbxAHUEBCbZy4OLVmamcAgQuikAA1wy5G7SH1O9EVF5DuuldIio0AhHGAyEomn3VP6qScOQYMJRhoZqM5poYTQpaDThVK5RKSKLaehkxH26Se2MLdluioEKQdkoYa+wmCMMXLX7QCt10Xw+swpFWBcTK9TUqr8UIYwOEhJ3NL+SnSlL9ciZ6ui7F66eVI/eKvbVl7Vd8S70lfPOt+uw8uWgu06LFetPY7Jzv2pf/ce8WdP37w7k9/60fozGup0Bh7XfISomyx9nOIkxQBvQpIsW3LBlx/3dXYummDKAFq2dVyR0XXqCEtZur/JmaekRftIte0XPypAcLxMsFN63UQJCVRXvKxiCAxOEDLJVYIibwD/v6IzmG4WEGUplKNkvqITB3NhI7M4kmAkFU75L+sTGVSTQkQDvQ9iOHyIREbmo44QO58fV0CchC446VWQo7tVcZzoMdV3JrrR4IpgbSVKdJEF3xIcSsunmEXlkQF6F33wj86vVBSPThoSqutcrjJXrBAzaaZSkhNkJuGF0PSSMk5yLw0E9si+MuOJYGGr3wwL4VFvAkQbtjRg1uv1whDE046/RjLoKCVTHnJnPzDcl4JJbbTbnTmn4je5c8cWblq69+tXnLh1zq9i+5sii3cRRaFBRxAWBTD2NpO3Pr7//OKvf2Dd+88dAphkIrrM8ESaC8RdULZETOUIFK+JLfF2Lh+DV77mldiy6b1SJmupVPwlSdaCbXtZ1aGJ+tPs6fn9ACBQklMJWz2nacaIfP69moFrYSUZlmAUloqDDBcruJENUWcUE7ZOPWNFoJJIZUr2EJBgq/k75akSH81PQheCQcJECqHGAifdtdvxsa0vAZDlEZUtuEG8VpkSkutmoMWILCKo386QOiKCoAFCPQgTDWOE70Hxnk1i5G3HoSxwJmCJ+W0DW9EYA1B1mgFURQZ749VXCTno/7emVkphiUAQXN+ECB4FiAstQAhmwNntr/WsUwTehJMJWqWx1ZIlI9qnINWS9HTcx7WLn3ygS1rXviNZR3rf9vzegutGlF3n/a1wCyehvbtlGvZ3Flgp9a5wZ/vG3nNe/+6s4RueEEii0SqO4UkF/AVpgkQmMdt4twCFKCwfFkX3vOud2D50m4kMV+QpqiTcYWaz2SLkXl72n40bZZODhACT6ESp1KsSaWM2bYWIJj4At323CNSJZG7YwO8Ui/AcKJxrFgRa3HR5sLHXTS9yvw5W7wNQMg2qvwtFx0rTaw9JJ7RQRgqH5Ry0I2goJqYkgUszKDgYlceLSKJIpOqZ93Zczfr6q/cXIDAeH521FQnzwIk1Fd0nGgHAQEMgTCsUCxBRSbkn1WIJDCY3INgypOPAQTu/X0BCDfuWIpbxIMwPUDgcyawwIaaPPoiKE2tPPH08elMCD6SDvR0PlE99aI3VnuXXNmeJU1bM8ncXZr96nUWPTcssHPnztx/naxE7/34FxB63QIKUi6oOieEKubdMyTuBYZrIOIINrc+rpawrncV3vi612LThrWAjiQ1UioH2T2WVBKsk1UyVm0WQjgTQNCoJAkkxDAPAEH8AZpcDgMQTH68QuJRITHF8UIFZVZI8DOHNElsdulmqKGOLc/YMxFXJnwkAEH4CB5iXcSh/hkCBAs6PDuO2WiQkFoaLYk3gSGRLBjUrJGaYj9sQgwTPQjsX9AJ8SDsvhe+5SBM50GoBwjZPSfu5qd7smuLex3noAY6BBz7khVSpow1sxXY/uxcK1A1sR2nexB8SSHmsxYEMwQIlqQ65pUy+ZdS/EvnESWe1O5IwqqUp/aS1Thv/QuwaeWzfggvvnlt9/P7PUmrcMe5ZoG5f57PNYsu8v7eccfO3EPBvujTX7sbnSqPNOCuhjr+PlKfC50W7fk4iRDkOuSFQ/+m2WkyXSvBti0b8fIbrsWmTaupLzumtmgXOsu1gueTYGfc4805pgAIcTJvHgTRibDaBkJiU754DobSFMdLZVTERU3wkL3YDWaShamuoLFw9ixAsGpKYjZfajLAAAR6ECqNexDqd9cCDuxul4x8jkzVhhuEgJrtOs5iB974+E7uQWB/o6DTcBBY7vnIfvG0TPeCG+fWtyTFbGffaJvGAIIhJtKjJg4XURLlFNeolMvCOZD2SKaBhb6TeA/kFBu5GfMg+MK1IGgMcho37ujBLdc15kEwIQ57T/H2sCBZYoiM1MywIKGsQhNe8xOkKbCi60lYs+yp31q/7Ml/j0rvF9eufdJoozZx5y0OC0z3/CyOXrpeNM0Cb77jjtyJPkTf/Mk+dCYekoCiPT5yCeR7TqhA5BLp/ibT3kwx40VPJbdeJxG2X3AeXnb1C7Ft22ZhdHNHyn9lo3paa5s1Tc8MEKpJImmO8+FBMBkMkvdhRBIRYDgG+koRSiLZy7/xxW6MQ3Je5mcx4QVz1Iht4k42MQF6HUz1Q+tB6HsQQ5VDDYcYzjRxxhQXFeJSWTIcDJPCLMrNGrHT7z+3AMHM1fHkzEYenoxky3GUrA8BfWZOE0RRbEpwU00Kc+qrTutBePHShgFCDeRZ4uOYLoMhBxuyp49I51EVrS2qcJpwVkfQi3VLn4k1yy779Lbe697ciC3cOYvHAnP3HC8eG7me1FngwT1Htr7prz5/4P7DBYQJMxa4gIXIpykSusC5w2HWnZ1ZNdqhhMSpuEi9f5N/tXXLWrzqFTdh86Z1IjFrShAZKrhxWjd7erYxSVHsRu6BhyEFHB+tokrlPCnVzDg0o8/MlTfcgqzO0kQL1XgfgrK40I1xECiUZEiK9CCEzTGvLIRKXOcsFx34gSFLjvEbx2ZPU4ZzaoAwE5Ji0x9sAQAmQMawQhonqFSqkhoqpNEZAI/pSIoz4iBkDyM9BxLO4rPF8AKfOGLTFJpeA08jTj3EcQ6J6jShP58S6gE6cSEu2PCC75y/9pfuD7zt72667dwF29ICTXlk27JnrlFzYoH9g8NDL377R5YfLPA1WBHJX18RIMRQgUbsBdbFmqUrSrJcjXFoPOCGwKjTGOvXrsIbXncLNm9aK7oJkjrH3UtNTGnss7Pv0JkAQopqkuJYhUJJdL+2lqQotqBzwAsxUk1wlLF9n7nrfIkbfgKrN2dqebXdaqbWJ09xtm9XtYXILEhMczRgi7UYTJrjQQM2zvLpn0iu493po4jKVUmBlKAQUyvrB8zEmGY/hOIdOZ2DkIUYZgoQJgsnnG0mg1zL01KxUaUaxUJRQMJpgY5xmTuTm2Q6gHCDJSnmGiEpCrHHakAzUbI2DlnqpQ1ZiTchjyj2QR4ldTfEWyVKjiE8tQybei9PnrD+lq8uya9+j+et29OEAXWXaGMLnOUroo175Jo2pxZ4qH9Av/T2D+JU2gXtV0xets6hI41YW0bqBXBlIFFRDhH/UfADH6nSUMqDH3BnHEDFsXAQVq1cgtt/5VZsWLvKyPaKB4K7Gwo3Z+70ZnRrcoBAXkSUKhyrMOWLAGH62HUzWpNdg3CI5hpMgGOFCtIwj5gMTyYqSBaIFpndLMsjC8JIxcCanEF9oCGjeU5Ic8wAwixDDPUAgX2gK5oQJBcEKI6MImas3TS/7phbgCAci9wSLKmOQNXpILTyBceYPrkZBAckJMZViiCZdNJx4lOWOzLVHJoeIEyng1B/dcYNeO7FUgsAACAASURBVMUOQIVGupliDD6fP1ooBFTeSKEHsZCNKypAnIRIbWaN+PT8BEhz2LjsuVi78pJ3d+P8T/f2PtulQzbzZdBm12rl89NmXXfNORsLfHtvn37V2/4UZZ8pjjFLyjDxCqGm+9ImLtatVWPkZ/51rOyzSbH3RUwpqhaxbct6vPyGl2Hb1s0CCqiTkCXqG4KVXfSsC7e2y5MLZTUdppvOZw4xUHzISC2nNuZ/NtYZ/xlDtuTCLsmLCGzb6R2h0BGBFJnpXPgHYoVT5QpKyhfuBkGU8RTYuH4tbDPJLvy0bo8HCJpVAP1ASIoH+x4QHQSvwTTHiVaYTDvAoBjLP9GelCyOK1UWdBBuCUNLskhONzwNmXwyD4IphxwHFEoahdp1D/yj+0Vpshm3NAJUHMdMccLE7s21bd/F6+SJymSJnAwbVuDnskaMeX6mAaCZ803+NWEnT4mKAWJyHCSLYSYAgTCeUylnQwu8Ln9HzgufNtqJLiq69yIgSKF0gCjpQJz6Im2mqJCqGT4i+NdY1f0MrFt++Scv2Pj8O0Nv4782NHTupAVngWY8Pwuu067BZ2+Bv71rn37HH/4lVK5bNA9Sj8xnhhmsRKws/Fbo5wyv52wHmoUemFtPF/V5Wzfgumteim3nbYRSscRGpSyxxN7NIpCl7I29dXmvZgKE5gklCS/ThldCCRXYYlWikGjUIrnrHEkUjldSxDE5HSZpUBYFy3YXZUQrgjStulGdeES9UBLDOrFILRsOAuPPTUs2kOgG8/xTU9BJU3GxJLUbqOUwBhCa8boxBExRGawJJRl3lcliaD5AyHgFNTxgiX0ZV1R6JW3yUClW6qoynqXwkhBTsxluQnQilFQHEF5OgHCdRpA3QtyzPzLgaTkuMmw+YuUhUj5iHSL1WSqM4liJeCKW5LbiCVtuUqt7Lv3V7vzj7ph9G9wV2s0CzXhi261Prj1zaIEPfm2n/qOPfx7o7IGfVuWlwcXM546/JpFsdrBTHRJ3z0SCtSEuqiTC1i0bcfPLr8N5Wzcijaumwp1VBTRpflyAsjzy7GVW/3Kb8q6yI6c8r+ybdILYy3M/b0IMtlhTs5QULUdcXu6BYmElhgSMO17EpbwQg0mKfubHW/OJwJQoUdr9qTWllFvIaAZTW9b+dYKSIqWWNaWWjQehUaGkRqaSWL/ea2S9CVG5hKhEnQS7gDblbTO5B2EiQAiOHagLyYz14jRBogaIg5kHocYMtQDBEDGN5kSapKiWq0iqdrdelw0xE3Ki2enPE0CoeTuMtqfWgfAQYmU4CQmfOwJYSZvkc1RBZ7AG23pvHtqy6srfW9r5pI81Ml/cOQvHAk15ZBdOd11LZ2uB937++/pjf/9V6PwS+CqGsjteXzOeaXcyNdLcme8mAQcPSJIUYZhDkiRSyIl761Ure/Cud/waVi7tRhxF8OlmpQdByhabugJmkbcAoVF8YF32kwGEah1AaB5JcawWguFUmPYys4DaEIXEw6GREiIhgxEhmBAMRZCMMJHlk1lOx6wAghRrsiTFZmYx1C+Eli8hu0zr+yFpkSEHjjWZJzNeLE+bQmcGCNWgE930IOy+B8HR/VINcaoXXMNtkQXb1FYQjYOxWIOR99LAaLEo9RVIUJxKIbGh529eAIIBJqZrVm9DfsVKIAQJ2hAXpaw4SaIECuQWUUl1Fc5bdX1p2/pn37684+mfa6iP7qQFYQEHEBbEMLVPI9/6qa/pz371+0hznchpE683pL4EnrDls93k9FOLwknwWZqWBKiclKjlQpJWS1jfuxKvv+0WbNm8HiqlJ4FvL/Pi8uQlbGoRZG7yxl72U2QxzBFA8BWr6NFHwSgvQzEQ3YghKjcWyoi8HJSsPCb7oKYkafPps5GfrQeBfou0SVkME2djjYAnipn0gHARt54SKi5KqWhqQWZpgLOZz9MBhALU7p1TAoTG5oppY3auyF8LF8G3WTpWrTIxCokkJJq5OZbOOJP7jLPIfAAEyUylZy6rIWqzj6SwKAEsSYssi856EDkpIw3dAZXm4YcVBOjGhetegdXLn/iStd3P+7dI9z897/XeO5uRdp+dfwtM/xaf/za6FrSRBW77yP/VX/z2PUjDToQsAsPsBE0eNCvqzRQgML+fnbNx94xhIDHOGJvWr8XNN92ArZvXgYkPSVK1Ggr8ELMlzMs4ezFPb6ZWAwQTfze4yejxax1iOGLdhyrK4nnngmMX1bqqlobCmZHixmemTd3PMXdKPQeBd6cHQXQQZpnmONn9J9s183eB74tYUFQpIy1XrPrjGFCYeUphAwBh104Exyb3IIxJUDf26hvLPqA1WS/DkBGNCFKKSqmCqBIhCAKRU55MmXH6eTnhjPkACJYOa+tDi+ppFgLMqLLcCCQ6h1JCr0IZnu6CJkhgFVI/RuitwIXrrsPaVVe8bFXnFV+dcb/dB9rOAo09JW3XbNeg+bLArR/+J/0v392JNOhEiFi8B/yiDCxdkWa1rv1nymZK/QFbrthIJHmSJqbTBGFATkKMbVs34ZqrX4SLLtyGNKHgjGFeG1+ouV/jO7UzAwRyEI5aDkKzQgwZSdEUODK1FYYihYGyQomcAsrcerENldABTxhh+2ctV3tAp6d12E9MAhDobdFzCxDqB3pipoMoQCqFuGKzGyTxZPxi2vh8bgAgTONByO7V8LyRBdt4EAKpleEL5yCiCFLE0FpdGmMDnIZp+zpvAKHGCrKCSqalRrnTPNN8xqtph5SLTlm5VUJnzI4g3E2R1+fjwo07sHn11W/uzm/59LR9dSe0tQUcQGjr4Wm/xt32kS/of/7Oj6GCLoS6aln3dJ8zNcruece0XKfugC0nPCakZCo1ZXnjAhZUgs0b1+EVN1+PrVs2QKcs8MR8c0Pmy3Ztje1E5wEg+L6EFbgYDTNboVxFRXahJj6eIpYOSyXHuno49XK4Yyz1SVIcT7Pw6QCBCxrDGHMVYpjYBONNICgBgoCxaq4yktwpO+64WpHEE6lBIevOTF5D0wGExjkIDT9dNt0wK9pMj0hFwgoUQRo7GgYc0914ngDCuFwgmUZmLtVlaspvyOExnARyE3KAn8AL+Fzm4KXdCIIctq983cj5513+/k7viR+drrvu7+1rgZk8me3bC9eyllng9o9/WX/+6/8POrcEAaoix8oXiwAEoaEJU62hl/7Ycmcllu1eOlUKuZA52IkRnkkirFm9DG998+uwdu0qaFGns3saYVUzft9IStkEgKASxP5YFkOzPQjm7aok02MkpnxyCRUunFJiWLadVgiKakfMMZ9QMK+GErI0tkYK6k0OEHgnCTGceNCUe56FkmIjk02Y7nUhIMO5ZLVPoFwsSf0GpkRyHGe2sLYeINSHTxhaKBZGkURGIdGoJ5rFVEBqM8Qe2gEgWMaiQD2GvmxtDwPEU6ReijjtRiVhpkNsw4u+EIo55zuxFk/YfNvo5rVXviP0tv7vRuaMO6f9LOAAQvuNSVu36Lc++z39yX/8BlTYhUBXxM3PMEEg5YrpMjc56o0o1Bj9BKOZwLwEvpMS5tLncuLKFEl/BYTUiI+LWNaTx3ve/U70rlwhngPWdZDlULbomTxyXb5dvSXtC45iBLUshhpAUIiUwtFSIB6LhkIMdTss2S3b2xq9grGD4jbDqcL+QhUROkzqnU/tewXF9E6S3mxxHAMQxh7JsaJ/CwsgmAV1rKSxAAABCIloQYTaR7VUEhe9qdtgNTRkUToz0LP7WTPW48o91+sgjJEU6f6e/qhddXxqbq2yoxkRKoGyH4WhESQEqBy3OkKiR02GlGGTRu45TavmCSCMSwYSLG1kOs342QwizlHNTIY80jBCVYWoVnugVAA/4PPIrCPyEUbRoS7HuuVXvu/kBSf+4irvD8byP6cfFHdGm1jAAYQ2GYiF0ow/+9q9+s8//hlU8isEDORRRaBixH4nYi9EqPnyNGl80x7C2h8/BWs7yszBqQNxj+dCoFotYPOmXrzyFTdg66aNUtyJ4YbQI0Uyk7kzXgJzf3ttaQ9Fl0wel0l/0wjqAUKaNs5BYGlmEYgyuQGBTk2BKkpH+YEFTNSv1zihA5wsVkVEyBAyrZfFts1I5NMO48EBzzStnxhWmO6RPZMHgToIo0JSbIUHweTRWy9PXZOFOGnHnG56VoEMrDqfpA9ONW0kxdCAD9orpaYEFyZNfgfXs04sqRaQ7NmJnJR7nn6xtnkxQpMd8+hkgCWbwT68xJOwQqXC4kVjyp4yQjV1z2lnfGMnzANAqKe42ADRuLZmHgSZldZjQgAhVUIl3ED4F0AHOaT0HqWdgD+E1UsuxebVV73rgjXnf9TzrnIgobEZ0DZnTfe2aZuGuoa0hwU+f+9B/bb3/znKedZN0MhpcZoj9rlXJiPfKAbOLK48ed9qiot2N+dz959EuOD8rbjumpeImBKpd1rqFrCwkan9YNbVjMQokMNUQLQ71BpA0CliL1cTSmo4xCAiR2bxlsXNvtCzWC2dIioIMRJFOFmJUUkUPKZzWqa4ZC7U1v5sFW3W+E4BEDCKgycewlD5wJyHGCb25vQsB7PYV8sVJFaWOZNrnppPoiWddiJAMCJUYwAhPGKklqc7soVR/hXTjYVxmEciqadsZ6kq2Qr1aYzTXfus/z4PAKHRtmbjaGJDfMYYYmQpcaAam7wZpi4nfA8gFG7NlpUvxvZNL3n/io6n/nGj93HntYcFHEBoj3FYMK344eFT+qZf/WMUgmWSikgPAnfTKQKRVDHrXvOKHRn1ROoj5OgskMoPUCnO27Ie1167AxdesMlkN4h0sAECZok0iot1QgkGPMjLN1NSPHuAIAVvBByYFE1TMNEELxgeGYgU+lndkCWu2RwhVfLeZgeWEcPrC+s1ZxJMBRBMmqN4EM6yFsPZttF4E0ycPltk6KLnoBIksMCTTlkJkQvLmV9LmRYBx7neg3A2AEFc53Xhocxbk22QJdE0VSiXM52DFr0u2xgg1HBtbSLQJiTAGjGlONHM7EXsd5hS0SoHXy/HBetehsdvePlf5oONv3G2c8h9rvUWaNGMb33H3B3nxgIPDwzrl73tQzhUDJBDjFBHqPp5uVlOsY4B/QlNLJfMBcPXSCIgDPNQCRBIXDTBurXL8cY3vArr1vVKZUhRE5A4viWMyW+yXaQBB+M4CHVSyzNRUuRlKNNswhXmHkxllFU/F6C/VEV/OUEkmQk25GEVEs2OlTwNE0OYD4BAHYSzLdY0u1llXPOK1SmlfLXxVtOTQLGharmMnHj36x3e4+/YTIBgrmzHh14hCR1YzoFkWQCVogEHclYdv6SxrJmztFY7AwQr5lXPtTHy4EYpNGH4LYlR8lcAXgFQndBpGblgOS7e/Ja9F/a+evtZWsV9bB4s4ADCPBh9Id/yyGipfMN7/rrz/iNlBIgQ6BhJ2CVdyquK7J7pUTD75dkfIrFMWmGQRxorqUrIlYXXj6MSepZ24p1v/3UpFc0USAIHCXGzgqCEHbIyyRkZbvJaDDMGCOIZ0FLimvcg2RBeiP44Ql+1inJCVcEcPJ87ZlZsrAu72LCE4R9YGzXtSTzdg2BqV7DgzphQ0nwABBPHztQG+R35CLbGJxUXiyUkpYoZX3G0GPf++MVYpP3ks5NyEKJRJLvvQaMhhqycOMdSsnCkMJYRQioVikgr1KngEHsyllla7cwyL2b4HLQ5QDA+QntYvpEZWpNOy/LfIwyzpUvgs6S0aEgkWBI8EZee/5YvbejRNzs+wgznxDyd3rTX0jy13922xRZ48x135E4eVtE37z8stRM8HSGhO5FyKSqq7ajNi7d5h+zgLKGPi4MtritlddetXYdbX3OjcBJAXQFNhyfXGcOkr73O7C5/9rUY6EY1WfFSMpfy0AgxXFXoq8QoGR6d3R2bDAcT+MhS4QxvgUcNJDTtSZwaIBxgNUdJc+Ri2Lzxme5KJlFhorCVsUm22HKkkmJFiIDG8UKgMB4kSMBGMlbqAAJFqKS6YxeWxI0DBNOmzOvEtEypFgGVatFrSMqRKEEKa98W3z7XOQhW1MIAvTqQINk5NrzI0NEoEsRRD7RXNWJq1EhAgI3LX4zHbbna8RGme2Da5O8tfEW0SY9dM2ZlgTvu2Jnb6x+KPvmV/4IKckaS1YoWkc0vL4MmchBMYw3RUP7H2H9WVYapZnRtKoUtm3rxsmt2iOIiazcEXKCtcNMYVDEL0kwBwulyztwPGQSQo5Sy52EgTtFfSVBOpXyPSWOUvH+WyCVIsKGPetUZK2Y7cUBmJh992qftL+qqOcqCajwIB2pSy60FCGPjWFtVzIJSSyc04Illw6NqVXgJ4gWiwFJdyEEqBEwECNSaIAjzOmcEEMzU0jJ/iOgIBpI4RUTuSIXpeiYUJKBE3pQtel22vQdh/Jwz3oM65gjTlYW+oRAlAWKZ8x0C2HP+cmzrffFXN61+9ttWdj3twKxeRu7Dc26BFs34Oe+Hu0GLLLBzp849NPKT6B0f+iyiXI9kAEh2QV1+mvEeNHdqSeyZrkp7aVINAj+UeLaJ6SfYvHkdbrrhZdh23kboxLqGs2RB2S0aEuVsAUINcAgYCjEUxThZqaJIt6oXIDTSgZIGybTGMXZ8nU0mLDiGOzG+2M/ZDekkHgRldsexHsWBvofmxYNQcyhZE0wEBuOIi1qbRbpMvX8TTsosNzVA6LAAYWdDIQbJULAXDqnnQYXEIrMqTOElA0htHEi0v5o7p884vu0MECY02jyO4+Nk4kCjLoqvEKU5VBWVF01WEZ/V1V2X45Itr7pzZfcTb/a8VcNnN8/dp1phgRbN+FZ0xd2jFRbQWnu/+5mvvOafvn3vZ4+OKmGdk6yYegEScg+4I2xQSbGx9mrzsrExzkz31ZDix5h+Zu1PsHHDatzy6puwZcN6JHFsXuryYrckQruIiw7CGUmKlkRYL4BUu5+hteXYR99Hf6JxvJSgqqiQaHbtjLmassAmw8FsVI3OQU1oz4IHc1m6uRmqMOqDszvaEyBMpFqYDAKW/B5fcIueAAMKPFSLZUQMNxAE1sAdFx/xydRxEKhLwa8OKfdMHYTwyAErA17nz6qRDLNcflO+mIWWvEShODKKNKJvyDBo2EbFPFZJUGnG2DQ4sgsIIBgYZbkldmNgno8YSi9B7AMRNMoJhcHopeFj2oWL1t2KJZ1bN27r3XGsQau40+bBArN9G81Dk90t59sCH/zSD6+4+6HH7v7SXQ8j39kNPzWviLwqyeIYo8OkIzbhEAhQY05nrL7x01aklhk/5iKsEixfugS/8+53YmlPJ1QaiwqcLMDSplCKJjE0EmqFyMubf1nuucIUyhgJuqE9FoaKkWPdB+2Tjok0JFM7RadOUQq7cCpSGKTsrmyZDIu7nnlhPAfGmzBOIdES8GpSSE1lx08OELh7SyTEMH8ehIma/kZQS1JSajPFY/VHW8iJYInpj5XRkhHEIuGUSpssn+0Z0ChATJggoZTV7opZi+E+hEd2y1jLle0tasqUnAsiBc0zQujUQ2FkBElipL3Hcv2FJmkB3hioaMK0nvoSRs/LhDekn6zV4SGnNegXC8IUN+zowa3Xa4QhQ13NedbOrl+TAQSjVZEBYiHzwkc5SuEFnYjTEGFuKZ75xN/EmvwL3Bp0doZvyafc4LTEzIvrJj85Mfrkr37nR9/96Be+varCYGOQh9YBQlTkZUYXfrOyGBqxnNHDNwQzLvwqqWJD7xrceusrsWXjesBLkEpdB760KFjEHSgXHIXY64CvUwEIxys+tIoReR2ijiiiT3aBYP2ETK2RgGQgBU6WIsRJKuAglZ2/eSnKQ2UXPaY5NvKQzY53UG+lNgUIjQykPYfAgMqTBAv0SFVZGIkllaUKpIFhrK5Im5tKmfUAgVLL9yM8skvCP2Z1N6Mo4QkjAi3psDJksYcqwxnVqj21kdGaQWfO8lQDjMcDBIauWAEiAwi3XK+Rm3eAMFkH6QKxLN0MYglADVCONVIdSqbTtjVX43Ebr3tRT+6Jd56lmdzH5tgC7fE0zHEn3eWbY4Ghsj4/QXLBqVJ82TfvfuDmT/7jvz/zxOAIUi8nBYm40Cru5DyzDLfiqC2skv5IT4GJWTOTYeP6Xtxw3dXYfsFWqfUg54pMMv0bprpgIt4Okql0DSDEUr6aixPrTGiJpQr1UtOn4EtthZPlCNWEngsTWxUKoi1dbR4qnm9i2DN5yGafa79wAUJ96qABfUwPoccgEElmfonehJAKGWIwAEG81iSr+gE64wLS3fchd2Q3tEcPQgbYxpw4JCUSLBKERFRIrBrOQb2I0+xDPbOb/QseINTSc8x85BPEd0NCb5woLpKbsw5PvehNxzYvv5bpR+5oQwvM5N3Vhs13TZpLCxw6pLui1fiLR44M4b77H8Tw4OiFqS5fWI3S7XtPDOO+XUdQKBclLZ0vABZsMm5d2aPNZdPGXVs8/DbFaszhqaHTGFs3b8DLXroDF20/X7wDvs9F2+TR+wwneJ0i8RIlJsSgqMTE3lDkSIpP2dcbXb0IMBSn6CvFKCstaZ5ScjoDB5bqQLf3mIt4ZnTN2efXL1yAILBqYrjFqh2KLHOliojERYYgyA+oBwiadQACCTGku38qIQYSRs04cGBMnEFyTAgOkgQVUXCk0348D2L2YzD7qb+wAYIByOO/TFE3pQ1hMU01qkph9ZLnlS4+7zXvWdN9xSdmbzV3hWZbwAGEZlt0EVzv/oHqHz9yYPCqe3btCw8NFC8/eGwIJw4fQKmQoqqHkCbcfVEPn27EBJr14KVoEV3AXG4z92JrjCEvU5UaOWMp/2ymNff1zG5Yu2oF3vj6W7FxQy/SpGz4CkxUTKnhsERCDRWGGMosDJUipGQsr2Njv4ZPGOJUHOM4iXNcjCS10xQeynLkzT3HHinjIp4ZQJi9xaYGCAf7WIuh9ToIjfarPrsh+4xIMhv0IF6EarFoijYxBCEwjgWDfKl30ZmMItn1U4RHd1tlRCN6ZEACSZG+SDqXS0XjObDmmm+PwUT7TAoQqBNBUS7LQWjbEEPWeDNo5ksEyzLJ8RAJM0ZUEWm8GRdvve27q9Zdff1qb/VIo/PEndcaCziA0Bo7t/1d9g+Xy/cdHMYPHjqEHx0czD16rBykKkVXPo+wXEDp+MNSFClJUoR+Hl5qajF7OUKDLKWQbn7m/XOxHit6M9edl7VCUiD5EjJSzwxwBOJ+VlBxBct7uvHOd74N69csQyVJEHgJgyGIvTz8NEFVezhWNuWeqTLIeveZFLLndWIwSnC0WEJZMg24MImws0gp19O07F41eydK11v7kE0OENjmSI3iYP9DGK4cankthpnOgYm7+OxnCSdUqqgUR5Fq1m7wECjG5sk38NGVZgBhj5AWmYvPEAWzEISAqDSKo0XEFXqTTDGm+tCCjNesM0lm2tvTzz8dIPhSfTT1WVY5xY07etC2AIGAQBlOkFEEs8+IBWlS0AkeIihUEx/rl75UXbz11X/U3XHJ78/ecu4KzbRAa99dzWy5u9ZZW+DBBx/Mjy7dcOGX796FC84//5P37Ol7zr17T+DI4Ki4y6OgE0HQA19VzaM8ehLF4/dDJ2V0pGQXsAALH3ESxegtsDFh5IUYxgqLLQUIpgBwplVouADyXrKSvUqJGM6ypV1465tuxYYtm6DiMvKBQqRzUmSqmmocLRseQ4QQORE50pLxMBhr9I/GqPAFF7Ccc2qyJtl32RwZ2qMsLuMTFuZAEWK6YT8zQBgvlBS2Grn8/+y9CZBk13Uldv6WS+3Vjd67el/QjSYWEhRJUCQBkgAJgjtFDimJgKXRiKORRC3W4plQhMcRo7Ej5BDHdtgxXuQIOmIcobHs0MxYEilpJFIacxGHAEiABEEQXNF77bnn3xzn3vcyf2ZlVWZVZVU3BpkMsLurfv7lvfffO+/cc8/td+Mb/l6YGpPd4DssvVxBTVIgEwEIqaPVRIstBuFFzVYRKKdpq/Q5YM0HggMLAm4HMNDrwXsDhFhYEc/TLIbbHiC0fMRNirEJAwqbQyFqSk0C+/AEjh147/+y99CDv7nXOTtiEbb1pgz3yyOAMNz2vO3P9vnvLnzkb56/emS6WPj9zz93FV//0RIWGw4iLw/X95GL6/DcVOse+JF4G8SVEhpXnoPbjOC5EZP/jHlNLOllHiViKY/NmZQsqwrYnebQHXybhrbObmrLq7n2XFwYAjl6cC/e8/5348zpo/BZR8IJhElgSWYyCNQgRC7NjhiXdrAcRbhea6LG6ofi4EeBtgICcUxsiRE7EhkNbyBH7xqHoLthm0Ch15bCRx1GSc++LBiE7MjJ6hIUhFH/AdTqNYS1OryYPhIUx7oYMwAhuEIGwRfGQBgC2iez8FLYEIU92QOOiWEyBsPULqwbYqDWRwDCpElztGXNd+ddG+wq7A8DmHt8oa1OYjGzGFHs49DsB3Fw349/eO/Ym/9osGuMjtqNFhgBhN1o5dvgGv/hWv29/+Zzz7651Ah/6dkbzfz3l0NUxb8gRk60+QkS+qU7KZrMCEAAoKapYKVl1C8/By/kghOj4RUks5kMQoKcVHHMpQ2EbiCGNaI054La7zPo6OurdzTZArKbN9cX6p+LPG9Cky65c2FxqYOHD+AD730H7jw9J9S0k4YIEwiDQCEjFyCCneVmjPl6E9WEVRt11yOSRDmncYYzDoj2UVtGSNYHouv3uiJtOGv2a7XO35tziT7SODjqbludI7VwlXFSRFe5581d6ZYcbX0I7MV1x687UhYFimqsmVBHGqsuxAIEnwCB6bYMM0Sx1lZo0ttCx2ZHaKGrP+w/1xt2Ag4llNU+QkaGYThawoYBuzl7+Y4zShaMWnnTB4FpjpLaKSGGSWEQfF9DarfVh/4Uidqu86PJpWsHvefESOIcYreBQu4CJouv/fCl4789Agi3UWcOOkXfRrc85L86CgAAIABJREFUupXNtMC//dbyyWtLy3/wV1994czzC+HclVoOTOML0FS3M8YCSc+6PvyEtHqMSKrW6c5aIER5GdWrzwBxE2NJioaTa9UWoI8iPQMIErjzZlqgpBQOEnkfRMHXIXjq/+SaV2AV1Jyc1KiXVsNSZjjmJBvh4P4Z/OSH3o/Tp04xyVGc3m7UuZikCNwUV5sR5msxmokntC5ZA2oaFCIYKaIJs2TvqhMgtO+j/51v8YhMSCPrpSAAwToViqOQgwhl/PDGs1iuXTaJZy+H19+aKZk1xqygqRvLWGPmTFypI6wS4DoYjytofvtpkEGAmxPzo7Bal6JeCup0hKh/QjsstZnWV4DQBQMkg9bWbNjM2dY7VtNqbQotXTl9h9LaGL4XaYjhQyk8vyumtS4C7XWdvsh7E2i2cyzRj8TWr9CraJ5RC+jJT+pwokkkHtNMpzG35xeevWP2NY+Mj18cuSsOYwgN4RwvhxliCI/5yjzFX71Uvvkv/+gvCl9b8CZWm6YCoUcxVyq7Hau4l3oGotoHfMbrqSJwPeSdUHiCqLqC8KVvsvqKlG1duxvITDQyX92ew8qlUC32EAVagnncc/DJT/wszlw4geuVEm6uhkidPH4UFbBcXUIsxYJyiGjj68bI0V05ddBwAwFIDKu0P2Zn23eo9TjOuPpttPNc77QdMXRhUJhK5oihkFgS0/7a8RG5IUJ3FT+49g2sVK6Ccfxh9JL0fCY1sXOn37cxtnSAZ1BYU0I9CfyYmoQYjUYNucYSkhe/Bvel7yL2gHq5jLRB50Stk8EduPh0pAn8JJKfMTTRnV6ZbVfriMndfHuB60pPsUWdBnii7pAJv9JxPRo/OTHcOA+XWUFuQwE3mSCfKp8YH3zHXvzUB1P4uduQQZA26AYfGYdK00YOS0Gn9ENgWXYP+6cfxkT+1OnjB//+dwdoxtEhu9ACw5gjduE2R5cYpAVeSNP893+4cgRR8s/+/Pmlj/3BXz4Jl06BvicAIDGLt93p6BLBhcQsLKL8NwDB8eGndJdzEVaW0bz8TaRU/6sub9OfHmuI2VX0P5X14d/oyF7nF2KzLU3Q8ACV4GlemQ63gYkgxc//7M/g6PHjUo3xRi3EdxoTKDZKQC5F3fEQxDnJi6j76vPgiY2sCjP7f7pfsUG+0/+s9ogsza1toLtOMkH8EARG7FM3QoRVXL3+PFbL15CKKf5w7kWvmz2X7rC38hnoa1KLwUNIkSiBLv9wHFQaDXir88C3nkbhpe+gUq6iXq9JFoM6XGptDN1zq3WP2CNkoRJp/czjWEzQZoa68W87IGG/t9EzyLXdtUdQK9ECH2JESDYvgJv4SL2KxOpdsRN34bsOPvCOPfj4h8l2ceG9zUIMA3Z8w2OtixiOeI/EyHvHcd/J38FU7scHGgYDXmZ02DZaYNQR22i82+mr/2Wauu+5Xvqtp78//1//qy99D89drQHeuDiXeU5DnAXtLqXlUmdmNKrxOUGlHlPG1E+A4kQvrgMuRYorqL9EgED7WxuDt9uAzSwzmeFmF7N+axRn6MzObf027z+UOcnSFdGLi0jTEKnXgBuGOLLnAB59z7uRHjqBb1dz8OOypMhRYUH3N+7ZPDCjgwWc1ZqZoCVGH53FOh4Ia9bTAQeSPGFHexn6vY0W9G/SXqa8tF0A6VeRVHHl8vMoV+bRDLLsxzo3IOfp10E8ZIAFaojn4uIZc3FJXAG01JUwhJQmBeRWSqh+/W8Qvfh3QM2XAlqs22BqfkoKK6l7eljQrtlAqg42RWtE9OuULQI/YTIUmneeoRNgJS5dI124HKsct6yEyNtyQzheFe9/53589L0e8koItj4D9FYbiHS/jqIdyjy3/H5tQ3SDv97gv1/7sZp3ALiaKUXA3kgDXDj6SZzc+0Tf1u9/9tERw2iBUUcMoxVvg3M8e6363zy3uPrbX/r2NZQaWoLVdX0xkLFpiIYwMAKrrpefEwPLKohdMovhUJPQEIBQW17A8gtPIg5Zz6D3FLSZiWnXm6tVF0Epd7+ZwvEihH6KJM4jSCM0cjHKB0+hOfdj4qlApTsFmHTrS9wGghjwYl9CDRRqclEcpiHUIO3X3fTt+bv9Giv4s+yGdqojav4YaDbw0gvPobx4A6kYWg3w6QfOLNAb4FQDAb3sVn2dc8oYTJkmR28DMmBNqcVBMFccq2Ei+Bom/K8ix/7j/1isy3AIZBHoiSAkUMvEp3NVVLgzUOsM8tSdxxiA0F6lrVVAJyiR1FkxeKIDIe8mL2yJ4zKF2MXRSQ8nZstIvULvkF+f2x/06QaFQVtZSKiEItgWHQlDYEmKw8WH8Esf+Z09M87M0uYbd/SNYbfAVvp12PcwOt82WuBqvflLL1wpvfNaGY/Nx9wdNVBMG2KE0/ACERxyRyS7D7tf6qiiZx3OdFJshRgoWowVIFQWbuL6N76EuBlqOeP+26t1nogpZ0ptb3XXsbmm0mVBSGTZzbtwuTIkSm3GbgEBJlFb+hF+cPPr+NJLV3Hw3nejet8H4Jfr8tUkiOCFTbgJS9fSzrcu55C4KYHCED5bnaylx7pIBF0J6SCpLo6qcGemhgen1sSPvv4NrNy4CeoxBr1u30fsPtEOzyrUVqQx0awEUEA1fBgn8CdnceRVexFO/A3cqc/j3NgYfBbLovmV8btUZb2a+EhorVe03BYN7X7wfouupQUGOK4X7moxRJKqSn9IfT4CHO62JTvIbQpTEt5MkC6sInTzrZTCdfupB5M1EIs16Pc24RbafiN1bBLLugiReBFS5DDZPIB/+sQ/+dM3nLj7sb7jbnTAjrfADr/KO37/r+gLfKcS/fwPb1T/xQuLYTEOCkiTBhLWGnB9eBHgRkTmfHs13a1lDmN2fUwTs0pj/dMABJbZTWkWxJ0ZAcINXH+WACECvLUAYU2eugEQa1LUeAmb+mSq8K2HNVoLn51sO75nZiQjDLNOeELcKh7ocDeUH4jsnLsypo2xuBSP8xAuhagv/QCrlW/jK88/jVI0gen3/zamT74OlSTGWFKBGxfQcPNIPJq6kDlQTYJWYRjOZ5AXcZAF3QIvyy5osMEV+yqnGuGlrz2HlavzSH2yIIOccTjPN/BZejZEN/WdAFTvh4YXYKXOQh7H7v4x5PZ6uNb8M5SS/xd35nwcvWMv/EYNgRMjpb8Hu52pgnAgTaC+nxt+ZEgNGiIZ+EH7HEhHUoICFhSTlF0IECJAIFgIFyOkCxWwmKr81rRbWw+S0YH06uZBBpxOCWs/Xd/daBiZ19FuTTrORfOywM0hTpqSKRTT1bRexW9/+L9YefelD8wMqylH59l6Cww6TLZ+hdE3h94CLy4uTi/W3bcvlcM/urLKJD0XcY5ZCpzzqbCnMjtEkKTqfOgx3qqTrLywsm3Srm8xupowLxoE5pNTgyAiRQKExXkBCEmDAKFzxtCdyAALjazdXVT4ui3TQgWbbru1trnt22NoIEk0U8HzUtRLK1i+vggnbqIc3sRXv/0kFmo1JN4kDr/rl5E/9zZERBKSsuXAlcwAszM3PgubvsF15tsBovgDyiJ1GysOt1IWmbn0UjsPbi3ES09/E6vXbgJJbhi3vivnEGCbBYN0uRSDqgBx4iOYyOPkq8/CmRxHw1vFQu0vUIk/Ay+p4ODkJI7vmURB/C1CCS2wadg+xBgET6Twuz/9IivrPfgAEZJ126zzmgb8MJRCtO9E4hgJ5BHHY2guN5EsloCUpdbbwLgDcNvt+k730kavfwawi9V1lkJw2Ce+yGXILDpeCRfP5vHWc+8qvePST52cco4u7PStj86/cQuMAMLLbIT8aCXdsxrX/vcXb1Ted6NC90K6wjE7Oo8kyYtFMEWJDAVQR8A5xYqmpbNl02sNhIy+TGZMXUjphcAdVuTQTbAh8evyggKEuEEq0KyQm2w3UW53TCTqz97v05JztbYiXeGJ7AjuOp0sLC1ExPQ2hhYcOMyNryxh9eZ1zrvyjMu1VTz57aew1CihmJRQGz+Kg2/5BPyzb0bM1DKmmMVFuE5dRGN0kNyyVL/HQw8KEPq1lzAGTOPj/RrxF5+bVLtbVYCwcmUeTprfeqSo300M+ffZXajAnoRugtxbx8hPTOHg+WMoHiyAoz51K1is/DXK8V8IhR0kIY5MFXB4soBxJ2lld8g6ZRarXp4dLbp/M8/SPcQ38d0113Np6sQ0QMN2OSEkiSYtIk7yaCzXkSxU2y/uVtNGNnGP2zo0C1YMPZh6KcLQR97xkXMrOH0ih9PHgP3eWbzn/t/43Kx/7qFtXXP05W23wAggbLsJd/cEf/fdq7/3Uin6jZtRHpFHGpKzBmPi9DLQMii62qvbWyy0gfEyM8xBNiTQZhCYC06CgLFAR3wQAiP+KlOD8OyXETea4Eu92ZWlPXdlhpukk/VQi3eQB60KB61Gtm6B2Xto2wvbw8w9ZvCBUu4+E8zRKN9EafG6ePPTMZKyiJXqMp7+9lexWJ+HI5kKNaTTR7D/DU+gcOfDaLoOgqRpfBHoGWHbenv9bxcqiXhs8DYax+S+F6Myn3Q4UzEpcCPY4xgQ34NqhMtPfwsrVxaQclc6yGeQLfGg2+1BztVjTLRcC83Y8GR8R8jN5HHwzHnk99yhMWwOJ6+Em/U/x3LyJ0jTSakLUkxqODIe4OjUOMYEGBA8Q8NMNtk2Ay47Hsf2ySAs2SDtmU36sMO/J41v2Ko0J0CfFkkB+G5qmKSxFCJe0BDXuhbP/fH3gHe8hcPWhCFUB6SbE7W/jlz2WQ5Fp4lzxxOcOuRjzKHfyH687f6f/9ypyUdHAGELTT/Mr4wAwjBbcwfPVUrT/X/3Yv2Tl0uVX63AHdfa9nYPzogq1T5ctLjQc+az+65MnQIRP+msoUtouw6h/ZeKFMkg+PBhRYo3cO2ZLyGhSJFgY5O7lV7H8z42ghpZV0BbYMCGD2zthY5jVPpowFGmI0zsmAyGG6dorq5idXkBcURnPWZ4kGKOsVpfwtPPP4Xl2jJc1OC7Y1KPgiDh4Jt+EuMXHkKdOekM4YiUQoGUTnncqvuS8QA0EEgmSE4sq12m4fVjSgbAXIMCBGMwrQIwU6RIxYqA04hw5clvYVUAQr/Iu0EsA80Qg65EfU4mIjwtJmGzW+XeM74BQmDRuXOygAPnTmP8jjtkoaeehqZW8JcwX/8MVuI/hYeimIgzJTWfhjg84ePkZA4TFP4lKZoObX71PWLJb8prlIFxRLvDexD3zJbgc0gveAt0bHQ+DRWRDeI7TSpQ3DeYxcBy5EsJwgXNzrAL7prWHbRbhvRYLXguDBbDnOy7CKkTiSiWrBXbmmmnMT0dEg8FbxV3Hndw8mgAn46KUR65qIC75x753JvO/tpDabo4DcxWHL5wo8+ut8BAr/+u39Xogh0tsJCmd33/ysp//53r1Tcup/l8TPU2Sy13SdhbE0WvBdzSehYgdJe5Nd9h2pEyCIFqECSLgQDhiwIQ1PZ9c8NmPYDQr5v5PPTSb0085p6t5/0agCC/t+DIwiBbwChFWKtg6eqVlme+TMF01nMJEFbw1LeewmptFaFXQSEak9SyyAsR5Sdx+u3/EMG5R1GKGW6IjOyPStAm0jSvOzsvklQ7LjT0zSc0UPZmODP1YJJIhS2MrbOfuMCJn78BCJefeg6lywQIA6CSfh007N930NAaAhDQx8VaSjUTBDtwAuD0a+5FcXoaTQk0RHBo/BTlkbpLWGh8BqvRZ1Wj4LHuAqFSjHxcxfGJHE7MTEqhLg7miIuYuGKmxNcKnh0K5gwXx59LG2Zct4b93F3n0wJgen2m1YojpuRlqh7BjR2ESzHCBe7A22Mr63OyWRA/zEfi/btJTh0gKQ6VLBpqDWK4nsL4hOXikybuuTCB04d9eGkdtPLi+5NPEuzzL37uow/8y4fS9F97wIcTR6qOjT673QKbm+l3++5G1wMNkN7wnfJPLNXDP1ySaooJ3JjpdwGilFkHnV245cXYtHVvgHAT154lQGBWQ+f1Bqlgt9V7ksnagILsUMj+rKPojrGfaesdEni831hteK9duQzu/3k/beaYBlFJBiCsoOEVkXeYscDvcrKuY9Ur4vz7/gnc42+T1FE/ZnyYngict3yEdLSjiY1kOah7TTGmOlutfDf8mB2qjYn3OlZ2igO8DwIaZRfcCRDkp40Il5/6FkqX529PgGAxXRaDyi5ejXRIjHmFAKfuvYTc5ISMf2UY2A8u0jiH1FvCQv2zWEk/KwWcxEGUromuCyeKkYsjHJ4s4sTeCRSSujhran0Ga8jFVGEN0bVEnnznGLLZJHM2QHf1PGQtQND0XPZhN0DIpgzv1v31fS7JFCKoa8JJyBSMyb+ZIowkFDBW9COcPl7EudMFOLWaAAiyOakXwk0rmCu8CW9/za9/aso58et9rzc6YMdaYAQQdqxph3Pi//DdhY/cLCd/eDkMEPkp8mlTBGjiuc8aPBu4+XVoDczCYWn67M5c52UV/3UDhNT1UBWR4hfFB0HXuvawkVBBj0U8+/TbBQjdLZk9XxsgmHviRCQ+AErJMuO9ViphcWEejtSSYHqiflRVzYUnwUrDMAj1FalTT2qUtLPLiYs7TKeKMHcQc2/5RwjOvxlN3xNw5sa6C43gCSzw0xoi1rXgv6nhYICBdOoGH6tDEDF6ZhfdDQoG2fNnAQJ3oVKQ2qTJvRwAAvPi27oYzZBhOzNFMZgs4uCFs5jYO4NIaoZYbiaEKwAhj9RbxnzjM1hJ/1y8BGwiY8JF382JgpPCxbkJD8emA4xr4iMShoUklEGbaoaGOI7aWSB0NRxO9Yr+88JmAIItaS5v5S4BmL5PQEAnKcFs77x0aOJqeJJ9WXSrOHsij9NzBbhYRsCiGemYFJFLfLJzZez3X40fO/PTnzq9980jgNC3wXfugBFA2Lm23faZn51v/qPv31z6Hy9XgCgoIE7pZEi6kXtW45bXZ/Fpl6Dt3I13TyaJiB2ZHtcZYhgEIPR70O4Fvd/x6/2+O6TQmdJo/e8o1hSpu1DDLNazsjAvdSQ0ltzeh3PKl8XTSbHSWJYQw0ptFY6rHEAcJ7LYk9bmPtSl7//kUex74Kfh3PkgUreAXAiEnlaw9GKGZjgZElyoDkFi6f3esgw1kC1wOVhIobO1hA43IQbRIJidcZZBKF+e12yUTYaKttpvm/peKw9OKRNpOydFfmocB86exNgdsy3r5Ja6Jg1Z2FkWo8Rbxs3GZ7CcfNZQ29oaDBvA4YKlzqLjSQ2HJnzMTeZRkIFhNBliaWzCVCZF1CRG3nYAIVqMVXuxqQbehYPZ5B4NnYri2AkWZSKLk7gY80Ocngtwci6A75BNIGPAMRto0Xke7jQxm57DhUOPfup1pz88Agi70GXrXeK2G1u3sC1uq0t/u9z4rRevlP/pD0tJMfLMTpBIXCRvtOrRicHWXO918y1BYtcOvxscqGBQF4zNAIRB2INeO5te1ez6NX42lNAda1WgoJSwZjRwxw9UKUhcWkQSNoVJkKyOTMxWYrtC25JBWMZTzz2F1fqqrJvWeY8nlGp/Rv3OBcabOYGZ138Uey49hFpcgEeqGlU1YMK4iLLogOfHObU97hc+Ney20OWZlPZBQgqWz9Gn56UMQJCFTgECwyACNihSZIjhpXkkPcsE9+uFXfi9Gav0KVAjrxS5qTEcOHsaE3fMSpRaIgCm+JLk7abkb3oABKr/pRENGBLkqDVM3aiJnANhEo7MFBHQiZGgUrIMtJQTgSNFphqAILDYnelyUAbhdgUIqkFwtR0JslLOV7Rur+LsyQDHDrvIBQTcOdO2LApHtka1H2z9aRzH8Zk3fOrhS784Agi78NqNAMItbOStXPrffW/hT24sNN7V9MYQu02ZqFjZTZcuGsUEqm6mICHz6ab7uxfx9YSMNqtgMwBBpt4BQgzrgYRuoLAdilSEaBQEpkzpA8qlVSwt3EQax5Lipz72OvHbxZSiNJEoMMRQVwaBACH1mkiSCUmRo+8BPQ9yCJAkdTR9F07TA8YO4ujbPg7//DtMWeimFrgy/oqMuebZNbIL7TMCujQIFhj0AwiWA+hQOGQAAgEQJ17WK5BRcrsDBJvFwL6SBdqBm3cxd/ddGNs7LamJaczqjRpaMLp+AQgMMYhI0e9kEGzKrxqAcAwob5LEWpejEFdweKqAuekpFBLWBQgFgFhjMcIJGmSpRrBfR27lTV/7nUEBgrgpCoOwO/c16NPJ/Uce4GtbOkkAL6zgrjMFnDrmwXUaiGP6txTEr0UAtZiRad4nS8qP4RBee/TvLV069tDP5J2D/2bQa4+OG24L3F4ja7jP9rI821//deoHJxf/+ffL0W9WQ5caOZnjaHjkO55xOhSLGJPK1pn905Md6GIQegr/1mEQbC0GihTjZnNNnLOf/kA6YU3BgOF0jWQgUNlu2AHRHDgpKqurWLp503hEGNEeQwRmV62TkGSFtgDCan0ZTwpAWEHks8Qzi/xwR0OznRi5sIHIixExgyTJw3MirMYFnHvvbyK48+1ohq58JxQr6ggBUyqpoG/tWdd/ZmHRu349SHhBmNz2/ljPsAFAcOptkeLtyiCIn4fHgE0KN+fh9P33IpgYR0g3hzRF4PkyDl2PxZm4+nA5IoPA+gwMMSxhvvHZVoihDRBE4gfXpd6ArAONrnLwECOI6zg0OYaTsxMIojo88ZLQttQIh2ogdisk0w8gUIPUZBbDvPoi7BRA6J0l1PYxWG9jItlHnoOEQl7J6Knj7gt7cOJIAkQVSUdNqdMRUECNjgJ7Ye3ETjpEHntx/5GP4uKhtzwxkTv1fwxnxhidZbMtMAIIm22xHTw+TVPv64v1n/nRwsr/+lKZCkRNZ0zoyy417Sm+47Soymxd+joFg6LQz+x0Bt3hrxdiGEaaY/dEYhf0rWoTulO7BChI8Z0UtdVVrMzPa4EeEZ3pxM7fc9H1rXeB2Z5LiMGNscI0x+eZ5riCxC3Cc1Y0EyCegB9HSJwa0lygrssp9QkRir6LVXcKJx7+BYydegtCv4BQhFip2Fw3mHo34LLSzRb0ezENblx7/kwWg6bKtRmE2x4gsN1o853GyE0UcOTSBQTTEyrGtbU4kgQe+5WZPFxkhKEhSObPCgABQt1oEFjwSNgjo0+x9RTofWDMISQFz0kRhFXMzeQwN1nEmHaw6BYkl595/Tu2DG+eQaAJFtMcmwvhjjIIvRi+XgylfZ9bT5ICDYcWZBHGnRrOn5zEiaMFOChJ0TBWBtGQoHqJKMRRcy+Be36IwJnEfYfej4tHH3xiNnd+BBB2cN3Z6NT95qFbdFuvzMt+rZTuX16q/j/fXVx5Y5OlasVkx0FiJjpB1xpBlZdLjc1VId8rdGDBwZoXuEfz2gWqM8TQBFxPfRBYi4E+CBvl4g3Qbb2EhvZr/bUJnbu4VljEdaVMdXl1BeXlFdEciGrAxJ9JVYtWgzsbk9Km8XnNj+f6sSwA4T9ipV4WlUfoOfJnEKWIUw8Rd6wswSv5CYAfJyIalR4Yn8MdD3wU/l0PIXYKyCfcl3LxUoW8TILGbYcZDYQrrGDHyVLssAVUrOUMupmF7BEWILRe4BbCMIwJwY3RINgQw+0CEKzxULuGhy4QlsUPpsex78xJjFNzYOIn/I5WXzTHteooMAuFmg8FCExzbAMEAwfVxMB4GWjYR82YqM+g3JeBhBDFtImD4wHmJguYYF9TpOr5IlSVvBTxRDBEjfGRUt0HmSg9X7+MlQFeER0xHT4InWmOZBBolLRbACGr+WE7GkWUtDsRMxd8Fj5rpYWKDXmMMa+K88cKOHk4gEfTNcdvGbQx/bFt9CYzWEscGrkpPCePuw+9E5eOvO2JO4qXRgBhkIGzA8eMAMIONOpWT/nMQvjIN69WPrsYcfHQSU06yE7+1hFPHNbaxZe6r7c1BkHPQq2DGiWxWFMbILSqOVJ0t82Y50Y6iF5tR2dIuuEZFV7WJLIVF45Wl7CytIQo4m7SAIGMwtsq+q34TJwGuZshMwAPK/USnnrhC1iqk2LO7PsNZZ/dObE7mM5IoCYmSfzB1CHsf+OHkT//CCJnGk5SE30IFx+VlXLTqxoSVhEgEJNCtw6LaznIiXHPxp9BAQKvRfbDpjly8RJoeatDDBL8N+tzR3qHuhUy1u/tNYLE2VnZvcfmOAsQzFIvY0FyR8TZ0wCEpIC4CyBsqBtgCqWwTxTUcZFLkEsamBtzcWo6j1wSAl4gRSNpLMX7C4yglN8RTYQRtDJrhZ/YoTZoe59+AIFGSdHy+gBhWNqeniEGAZ10DWXhKx2zXhJoARCHYTkKgfOYxCLOnpzAycOeeIqoK2QgzKf0HNkC855phVWeieJiBeT0rbh04O2459A7n7hj4tUjgLC9IbXlb293LG/5wqMvrm2Bv/zuwg++s9w8JvnaBh7IS5ooCaeuf5nvZRT56zEI9ui+u3PZWdOUJmu1vBYgGD186ya2IizcDEBQ+YJZWQQo8T5ZvlokmrL3q1TLWL3B2gpRO7yS1V2Y3SdXocTEk9cFCLWaUth9vB5IoRbJXNQjhEEOMZO0Cntx/KGfh3vpPVhthBhHXXenrFqXUE/CUFEkO1FOoqFPe1+6+JnUhU0ABIsb7XDIBJraaY7GB8ECBNRNFgPTHG91FoN1vbQuhUmE3MQ4Dt9zJwoTE0ZQSnGgMQQ3GSe2SqU+v4YYWHFLGKHNAgQ5iRGiSOqKC5ehIxZ4mixgbs8kcgnT9eggahgnAzrl2m27Ldkx6+jc2PNikHlvOwChV0hxK+9o933ad5aSH6YBw6HHh/ocsHIsGRiCLYqCORYvnsnhxJEp5J2S1HeJGRIigyAsnI55tdBmv6mniwAE0YgQNKe4uO+tuOfIO584MPHaEUAYZODswDEjgLADjbqVU96oxJ/+4xcuP95wfQQ0fJHQAkVV3AmaM1JfkFG8676089OSzbUYAAAgAElEQVRLpDjIBGHWXsn1twyCl9BqWUMMUu65SWvhHjR/H6Ok9SabXve6XtsJwGG6Iel4UWFoClqjXsPVyy/JLt0aH/FPihdbZlAWICi0EMFZL4Dw5AtfwHKtpqlumRtZ037c8Xg5xLHU0JQJMZRS2SEa3gxOvfc34J99G8KwIaLShk+rWQod6RbnIfFodsWOZEVFulPSMLgw0LDp9cJ23KtZtgSY9DBKYi0GOinuNkCwY7gl/iNtb0WiZAEKAU7eewmFmUnE1N0wk0EKTRn9gRn3OvyMnbQUo1KAoHbEm2QQDAxkWizDMBxi1CR4NLmKQhyayuHkbE4smvlT9nRMIEB2RrIb1DOBVt22ZDTB33azHbYDELKDaCAB8UCjrh3CVO1TLM/upgUkrofUayBOWV6eZc4qOH9qFidO5IGkBj8JtQ6Dl1dzK4aDxKPEpGiTLWB/G0zupkxkzQlAvLDvIdxz5NERQBiwj3bisBFA2IlW3cI5n74eLn+9Gk5Xyitwm6TwuOTpJGlXK42fm5inxGDt7kcvOAgQWHcBNr/IhhiyAOHGN76MuMmYu7knc/ygIsheE9cgAEEXPwNK1DUHDgvXpDHqlRIWb1wzuf6k+01suVuoadtM3CIHAAjZEEPPBkul5LAaMqmnf+zk4LJCYqOGODiI42//BIILb0LIyY7sAXfCskPV1FTuuALZVdFoiX269Z2nHRN6q+oF0V2LQdrRFGu6VQCBa7mExiTXnWBX7ZMpSDx88RzG9swI0GLNBampYWpx8N+qIbEui8YDxDAI9JyQvXu8eYCg8SGCTjUI4y6XO2PyU7mogmOTLuZmCyjEEmEXl06CHIEIDH3Rm0QcF7XtB2WDNpoitgMQusMCW5iK1nylg33k84vp0ZhKC92GemwkZNSaOH+SqYzUHFSRynvKlvIQy3unWQoUE/PnChZ106PMqIJ+hhiYpXJh34OGQXjdiEEYRkdu4RwjgLCFRhv2V15cjd79vcXwX5dcrxg2aihXGmhKAjHnPXGF6fioGNuYG2UyFqyz4FaAQluk2JtBsABBjH8MtboVcCDTgGEc+gEEuxnTsIYruwqlkhPUyiWsLtLnQPzXpIKlfYaNdk42ZW1DBqEvQFB9qM/JkhkOfiBe8yQFPIKAsIl0cg773/gx5O98EEiK0o+R15SUSe50Qyrw3apYObPkLXfBW/10Dg8V0m1Ui6F8q4ySzLhtAV3PQW6iiINnT2F83ywaSYTEIztkQKARlsq41jXIIGErQFUGYVsAwaYJJmQGuF4RrQUyxlmUi+zBwakijk4WUWS11JieC6bMMrMcBCgw/Gfvbau92P5eT4BApkKYq1iKNUUUKS6uzWKwi3n3O7CVOcHeUSdAsPQawwDCqQgALgYhTh/zcWpOS6U7rLkg7agKHNqVi2iX4CqhIZtV5uiGR30mGHoAopQeCQQIIwZh+6Npe2cYAYTttd9Qvv0fr1b/+lrDfZC585wIS3GI1VoDUczqdbZYsIk2S40BVeSr3EeXB5veuFVacT2AwHxlW4shCbnL6mQQslbOgzRGdofTa9LqlXkhT8oF2fORRBEa1QqWFuaBmGJOtgfvixN7JhKf0We01hVBJ+szCCJSZIihD0BgW5HBkJhqShFiTeKpMXJaMtiJ5O/+2AHse+DDKFx4mAlfKLhVRAIQxmRHXKfvfOogiElTD+J80LuFuxkEfcy1xZrSRogrTz2PW2K1bEGhAQnccRdmaJ98CsW9M7ID51jiQiF24kZzYHtU9/kGH5i/WQ3CtgBCZ8RMLmKIKhVUJglyLnBk3MXhqTGMS/xcrYOZZsklUmpyaF1mKT293Ul1XYBAwyY/lloszcUY/YySsgv7dgCCBfUyzxgtFCto8p3jmj/uhzh3IodjRxx4bhMOAvhMExU9hpZTF0GjCI01LCOMmREeZwEC2QVqENgJd+1/G+4+8o5RiGGQiXWHjtnuWN6h23rlnPZKufqrL6zG/9VyM5iaYlpVAjQCB7UoxmqpLP9mPQRJbeTKpYHS9iTUZ1HcTEty0cqKFL20IYYmLYDQQ4OwWYCwqfsRitmGVTTNrF6rYOH6daR0vROLZWOUZJz35PzraCKE0ZT27K1B2AxAEKGh4yJ0mdHAevfKYHjQXR1cFqkBwsIs5h78WeQvvgOV1INPpb6QMBq35oTIT9+Kj+s0XPf6ZuT9sni1rJaNBwRuJUCwITAWzHIS+GN5HHvVReRmJyVAwJTenOuZzHg1J+r+2B8JKCSgENaIbb11DYKOFxUoarjB7Iq1BiTg5GUdK6RVHJzI4dTeGeSTJhA3BRQqWGRba9iDoaTtTqr9AEKr3PMuOClmQYZsPqQfaWblEJ+j4MW482QeJ48yKFOX0Bs8H34sKiFpH1Y5VVEj/8HCTPSn4EiNDVhQMaqmOpLBpAbBxcV9D40AwmYmzB04drtjeQdu6ZV1ymcXyr9/uZL8WiPyUUyYR+0i9Eg/A41mEyvlKpq0U3SpADbdRS47wxrYFsvSi5tuRXPulgbB8eHDZjHcNNUcSREOxiAMsmOxLojZe11jniR6AiDnuqisLGPx+lWdSMzzx2wLApt2UqimvhEwdLEIGibePoMgvE2ag4smErchxrABazQkdTScRMx+/DRFww0QoIEwncLhd/8q3IuPIG2yVDSLQKXIUwRKaYDLmPfmP7I4ma9luBMJdViA0Jp02YiiQXgO5asLSHbRGVARkJbZJp/sjeVw8r67kZukQyIXBO4atc9s/cX17KmFFzH92kpzhKY5bkWkqLyEKc4kr5WOcUGSBOasHsSwA0V4cQNHpgo4uWcKeRHfiTBBS07LeDT3tk1L5oEBwkJvJ8WtsohrAFkGaLfmFvaWy8JkMYK0jled34c5MgdpWUo2J0IBUVzD/mZxdWXUyPIIcyBVZPgzinOpZaCAV7U4En4wRc6oQbh04GHcfeThJ+4ojtIcNz87DOcbW5mXhnPl0VlwLU3Hv321/C9Kkftz3IEyhYhTlc3VZ8y91gixUmugGdNHXsMNsv/NzKAt7YHMw+tYr/bp6XaIgdSg2+WDcBO0Wk4aocyVg2gQ+mVTrE27VAGhhp0tANJr8dZr5VUs37zeqqqoCgyTaubSgpouk2aTwt1lr8xBYV+GARA0xU4qO9C7XyhxqrE9xB5ZBYYRCAB0RxS7DdScWdz5yC/DPfsWVPwCcjEnWeoS1MmR/a+oz5jnyrMYqoj3bBI8bRhlDThoFXxSwZz1QegACJLmuEMAocX/ZzgN+zMhm2lRzWqYeRy66zymD9yBWqi7Shm/JsQQiPBQ9QZZkGBs+o31sfomEExriC1S4eMWshjkBmS82WwhLoC2Mc34k9LPBAnUJNRwdLqAuckJFJllJGERByyoxk9gsoDaiM8kQ5ry0aaTNwSE2wEI3RqEQYC6tkG7UJhVQtshaKdqzSpRUeaEW8W5YwVcOD2NqFmWyqd8d6kgkThLUEWCwBgokeHhnEUBKPU6MVK3rm9wor4Rytao+Dhx8qJBuPfwo3jVkUeemM2NjJJu1XI5Agi3quUBXK1H7/r+SvQHC9X0oJ8Yn//UE1dAKVHLe3MDVJohSrU6QlG9c1kymgOzm1IfOg09WMtkO7kKe5oNSazzvJ0AgUZJAfzUpjnOGwYhVOV+D5Fit3q6mwmwIKbz8ppaZidNAQOtEak3LamMLLy0qFUZeR7OxaJVMPfRi9TtaS0wRIBg5lSzYHEnx8WKtr1qIMtf5BLd4YHCu7CBZOww9r3lZ1A4/1ZEThFJEsHjw3CRkRROpkoqBRtxl8YaAwQYjosm2QjqF0xr2WW4ZYuRWYw7AILxuOeNpQQITz6HytUFxMMs95yNc8jaSsbLjEn6VdBen3bG0+MiSGTJZlpSM51R03jtOFDYJf3aTt5pDRmzyWwxCFoJSNMcxYgnKUgthoX6Z7CSfFYsygdKOTQroSG52/E7UckqRBX/Rpcx91C8EY5O5nF0IsC47JZJNOSkUqhLlX6L5bB3rGXGNWmTb6+KINf7rJ/FkCL2YgGWzaUIYQ8GYQ1rtgk2g+6GAs6cSNMRmanDHb6ECRhSIwgGxvwqzhzN4fTRAIHTUNbAC7S2As2n0hwSV43E7HMq62PbQ+2xyThoMTNei6XRNSuC1/ExgdfOfQAXD731iencmVEWwy1ap0YA4RY1PC/7/Hzt8RtN59OrDQ8BKwV6XBx8BKT2JRZHkx1GtR3UmhEq9SaaXExUt2/EXLpUyQLMEIWR/ncCBKv6Nktxj0nDAoutVnPMNqMVTGZ/1k176kRm98W8P1O3QCgE5qXrjqZeWkFp/qY4JHIxIUOilrw2/mtU0O25eP0eHTJA6Dd0dJ3kzrmB1HPRSH34U0dx+HUfFMfFqjsBH3VdfshAIEIkVswSzUZMy1kJXThi/Wyp9ex11yRHGle6lpOiAClNh90xgGDQki6wZjy2cB9j+wnyk0UcunAGxekpqk3RTLiLVPMveS5pK2u+u/G0ZCCESt8zACFO1Gp5ofEZrEafVefKTSyQG/anxA8YclBWqJjWcXjcx+HpIooq1zNpkuLLaJ5JS0Sb2pRwxEyJYIZGaFsBCNycEzS6IlBsDhkgiD7ACWWHLxbuBKsyz3D8SHkKFIIU547ncPxQDkW3AiehWygBgTopagoyQ6TdjqscGZkMKGEP+D0ycAzXFIQVJdvG8FeQ7sEbjv9kdNfRB58oOof/z37v2uj3O9MCI4CwM+060Fm/8tLK46XY/3QtycFPGgh9vpSM/RvbXe4qDfLmJFOncLGqmgQyCZorbi9l+XWzszbMge5c+nfzegAhW80xaTJu2P9c6z38Gn2BhQjipqfnlf+nctzzUSqtYGVxAWmosXr7aRXuEZtX/amNYa53bRVYmVz6bYoUB+pc8zQpvf7jGrzAR9L0tFLg1B4cfOCnMH7pQyjH3HHV4UuIIUXokk3whZKlAyMnXzfxEKCCiAtLV/u3ut/clAURNs1Rz2P8L+vMYqBR0sLQjZJEpGc8AZT50VEnmrWJHI5ePI+xmSm5fzIHsnBKZxvhrTFE6n6e7ra2kFLg5K4BBLv7Vc7KujnSzmz/eB7HZgoYi2pSZpxGWAp4NDWXIEittITjsNB+w3dyQx8EN4SXemgubswgrJdKvP77QUDOMAF39pyHClqoymsKINICZFWcO3MHjh0OkHcbcJOG6ArInDHsYD0OmNURrRFrdgIEpTuZKtkUdkVDDVoanUZihXQ/7tz/yB/ef/BDn5ycPHhj8HdudOQwW2Drs/0w7+IVeq6//e7S43Un9+mGk4cfNyQHPEk8+KT4xOffmsqoUYykxjVDLFdqiMjm0ZXP+Aow/76dBya5dobW7KzuaJu6O/tgY4BwA9ee+aIWa8qEGOy5uv0XumnOXpNVh6BSns2I1MjII0WtXMbCjZtahzGNWyZQsku14ikTNyVIGAQgKPM/HA3CIENW8r9NbkOBO8/EERGj4zXR8MZw4bHfhHvyragzrQs1VXdTGup4oKMcLX+ZJdH0adpD0KjpX9mPLd/V6gujNLcMguxrTS0GCEB4fuhOikIN28FngClBHkkhN+fi1OteA3+cXhCaymgdLm0/8k/BeWKgpJ8sUMg+cTdAECdFcmz0mUjygLe8AwyC3g3HIssNRTHHEPvMh89ww7iDs3tZuyFSul3AgYp59R01wQuNvBjebP0RtBFAiNwQfupqmuMGDIIF44MKFtUEilxlAIdVMTl23aYs/LyeH67g3kuzOHogkPolTkz9hQPfL6LByUhsMdUEiWEyYbw6HrE3QIAUcTLZDazlQHdRt4op7xjO7n/4U28+/XO/Psi7NjpmZ1pgBBB2pl37nvVKqXFhpRZ99fslpxh7gdj0MsapIkOr07cyPIrhlDVIHA/1ZoRVahISMT01Qmy7E7N/6oLbom3NwrJWHGgnZJ16u0MM/co9Z7UF9u/rTUprdQkEQbZstcapSVFWSxQksmSzlvaV3YmpxCiLR1edhVb62wat3tJIDEmk2LeDzSKn/i9KCzNDnCBQVCRkjDCOk2//JeQuPoK6F0gKJAvapAjhU7Ga5pWCJe2ajhuz3849di+AIEZJriuoSRLNhBlPQYBw+ennURqyURLXBsleE9MgLbrEmLU3WcTRuy9ibGIckZPKf1b/Z22xlURQXY3t43aoIktKt4GDrfxIBkHKPdOXgOGnDEBYiTehQejXmS0CIRZNiLicSq6+WmgXojIOT+ZwZHYC48IeMH2PoFazkoTNEQGuCT0YjcV6l90uQOgF2PuLFY2RUcKACUObDfU8ST1hC+48VcCZY3mkEUs2MwToK4Pj0oOSpbG1cinZLo51Zul0QoS1IQaem6BEvBEkTTlGEhfg+3XsCc7h7rmPfOruw4+OAEK/8bmDvx8BhB1s3I1O/Z3F0qVSA89cqQayy3AlVUtFiFqNli8fXzilJa1okYI1xw1Qa4ZYrdbQiFPJbhBGwMToW1IgxgMldtqW9Iu4r4dPwHoMguP6KLPc8zNfEpGgbgs0hdBOOt0Lf6/z9zZF0r2ieOG7BCcEByUszd80qmcT0e7IbNjakF0PIHiOFlRqVXMcwChp4CEjiyXbPkIsoQMVVrgMG9AEKwUaY3tx7C0fQe7cY4jdMSRuHTmnhjii2yJ3crGkTHK3Svq3+7MegyBGSbyWCCF2tpqjZhSolsBGDXJTYzh04Szye6cRR7G4YLJ0s2w0TRVFVaiaMswtRUpndN4qVexzyzdk7GVCDMwkIfsWtxmE4QIEu/W32RO8Gy5qKrB0kwg+Yuwfy+P0TAGBx110CCSqmzGqGWUhbA2CDYbxxiEGem6w3HMsGgQDy1rDorfWZwAbdmlofU7hLxkmih0xQTp7Ko8TRwh1G2KMJP4j4vvhIvWoQWAWiZZrpqiRGgTWp9gIIKgTLIGICWmI8VQiACHnRjiYvw8PXPwHnzo8cWkEEAaecIZ/4NZm2+HfxyvujN9cLF0q151nbtR82f1QwOQnLBerk4/9EK1z5yEAoTW5cAcD1MIIq9W6FkERFTwX7gyFyffd7NCyfJ8FCR2Nbmb2FoPgBPA5IawDEFr31x0T7wFA1ouH2jAHd4TcmZVKqygtLSGJaJ+sk2kW3Gx7kIh/xO6FGKTpExb44eLOjBBWBvSRY3nc1EEY+EjjOoLxPZh9/X+GibvegSolbF6KJCGZbffS3JWpb2a3nERrCLY/6izZrsUggjkbYtihWgwC/kScpvVB8nsnsZ8OidOTaiak+W8yNtUmXKn2dhEyvX9d/M2zZGamjr1n9iDZeXKhIcviIjUAYb7xGRAgpINmMfQbWK1rWr8EBezW41TqXjgBCkmIo2PAgdlJjDF1NWrIYtqOl2goTRpjAy3PZgCCTYBd7xG6s4s2Oo5hSlYl5Tsfhykmgxhnjwc4dhgI/CbimBlE1MTo+JJncRuShSDxJLa3hMn4eBuLFFtplVK4iUwC04EJmnPwoxSHx1793be9+ld+fiY4/u/7dc/o9zvXAiOAsHNtu+GZv3atdKkSu88s1X2pNc+OoNWyoGj4QtNKzFaQeSZHWTV8pkSDg2oYolytSbhBU+WMrl2QQnuX3/cxzTzWdlIMRDw3DIAgk3+Pe9HMixiBMUFaXlwAxHymk+XI7kQGrIzc+3F3O4tBPOgd5MR/l7QrqziSpvYRsW9pmxtSAOYjnNyHfW/+OCYuvI9VmeFJJguZJRr3NBDR0a+H2HTtC6wIMVuLQcpcs0V2BCBwjDGcoYxIMJHHoVedR3F2WgWJtNyVXbQq/e3CIODJ9JKp09PRZzY913ylU4vbMrzQLAYbYtgxgKAD2Lx0vCapdy6RCs80W4I75xiFpI4DDK3MjKGQRlLPQfrNZOXog2TTedcO1fUAgpRJEs8MZRCoQeivaOj75rfAGZ/Emj3lnRjnTozh+BEg7zWRxl6rIJUKEznPcGzSy4Kji+CAPge2/DbbJHvtLg2CzGkqbKWglQBBwhKpi1yYw6k9P/65R+/9pw8Ndvejo3aqBUYAYadats95v3KtdKkZu88s1wOknlgjaXU/N5b4ptKomtIocVYzydhCTZ7ZFTI8UWs0hUlo0KyE+ch2QTZ2PnZTtl5YQHdvXRoEZ/gAQabGzM5Jdpu+j+rKChZvXIcTm7K7ZtqTevEJRVI6TK1jXfc6OagQy1Aw27ZaHmTItAR4bmJ2XOxTF17alPRFpjPSiY/9SP9A5tfXintw/K2/gKm73o7ViD93jRYhRt1hBsRa0rY7zVENpNpGSRJikPGzMwBBNpFyvRRpzsXZ++9DMDWOiLF6LiMS9tK1Qkv8mg11himQHadlF0w/2/62E1SrUkUHzaDAgwCB4TUChNRfVh+EYTIIJqyh76AJ4Fl/ida748LxPAG8uaiOoxN5nNw7hYD1Qgh6JZtBUVHbHWAdHCtpkvrkYqLF4kWityDD2Bli6McgdF9hPUaBzUr2kh4sfrSCi6dncObEJBxUZP1nSEFrcEbikyCAQD6hlMdmRgIBbUKWjB4IrPbYByBwzJA94BjlHMcQFB0rx+NZvOnixz93cf/HRgBhkMlmB48ZAYQdbNyNTv2Va4uX6nHumdVGzuQMA/mYyuFIbXwp3jN0pBjfmJOpdyBjn9THUwxGEZ+LephgsVQxjmSZDIjWbtzejclqkJfSzFitPURGpAiWbF2fQeirQWgJsdoOiVlwwL9TR1daWcbC9RvISZocn00zN/h0NJ7hoqik5cZ+B93iy56irA0YhOV6CU8PWKxpkCHD+6EHEvuxzvRVAMVQ+6pBExqHNG4evl+DRyV3mBfTmZVgCnOP/TaCs29GmtTgJwGSdAKuUzYZEVrISBdQWtxqm6n7oH2dlU2SWgwtXn8bACGri5RLGNWe6B9N/Q7aJ7/2XrhjeWNipQZRUkQ5EZ2k7BQldc6CBBNBseEky5TZ9rVsUUuH0FXuWdIIdwkgyCJm3Bs7AKq0rwJ82VW7OQRpiFxtFcdmxnBoahw5oduZ1cFduLaXel/ok4o2xXzaXhfdAEHrRUTiGdBmEHTr0GcaN6yFgY7qYGg0KjqOdOzwPnJpHZdOT+L8iQBhbRmOlDFXq2mXAtqIeg+mHdMYSQqdK8BNcnKixGP9FgKE8QyDYAdQJuwgLBfDC5rSSwaBFU6dtInJ9FDyvtd98v/en3/wI4O8a6Njdq4FRgBh59p2wzMTINTi4JmVRk4WR1LRsZcIJamJflaHoCGG9qdtJkMDE9mdMLTgBajUQ5RpyyzhBjMZmwXEzutmqVXjHFFZW9sZnbBEg+Bwn6AMgmQxzN/A9W98CbH4ILRBRS+Q0FqozRqi963Poq6JsRZgShKEpWUsz8+bBcWeWlcNpR7N5NU1SrsHbTZdbj29Q+sGNshiePKFL2B5SCLFVttYIyAR45nQiSzw1kZZVBHyn+hPogbSsf04+KafRf7OdyD2x+DGNclKoMOciFklrVDd+FhZ0Bf/ekfcFqlFoUDO1mIggFAGagsAIbN9t7433PW1cvU00x/5mXHsP38axT2zaMiCwQJWrHCoYS4+l5gi2XiB0R9kM2ZbhIL5SzbE0BJiWoBgwm67CRB0HHe8iB3vpMG1YqZEXwCmOrIOx5FxB8cnA4yZjAD2WyOIkI8SBKamSugxE0AZFgF8YjesxkxZBkFCDKbcs4QYBizWRIdEzinMiOEOnx+POhgRGnLBZ/YUMOGXcfbYOE4dLsB3VqUfY4cAVTUz1EnRWrw1A7TmjmzbtDM22gjB6Gc6hFA8JdmVopxXUyo550SY8x9Y+dDr/9uZWzQ1jy7bObJH7XErWkA1CHhmsR6IwYoYsbqJTPYa3xsAu1kBI1XD5mWth7GkQDYjG/vNQIvW/GacF82b3rYsXgcgLNzA9WctQGjfVz9qX8CC0OJqAiTsgGEKyuUSKkvziJpNeKRmW5XizO7YmCDJbnOAplAA0p7AN8sgMIthmABh4DGVariBbVNIm6ghL/FsrziD/W/4CQR3PYbYm0QQlZE6gTASkhEBlpmWbHVhC4KYRjP8eyTyuaEAhK71UMIAZvcv7JaTojA9hUOnT2Bs7yxCCZ0ooPUt/pGUS5OJ2zWmDVnfbqo1TIX+qiNTw8SudejquBJza95YnEeyQyGGgfrTjHddTKXQsVR+PDiRx+GpIiZYxTKJxTpbP8r58DmUU9CPZi3pE3aEGNgWXiTZBZsBCKk4JLIVCfAJDHKyY+e/NeU2QTGf4vSxMRw/NIG8UxWHz4QbDRaJE8CjZdVtW7dZi+6X0/67zWatTVbVp5Nqjgn9MVj0LBQPhJwT454DH1x589lfGwGEgQbdzh404NS7szfxSjz7dxYbl5ab0TPXK5zoTYEapjWKWr37Jdu4hbILNQs/0nGxVKuhwVrRUgVSX0ddnNsLsM5Bba08ZzWK6LgLFQYBhkFoAYTOWgx2Ue5F77d30DrR6QSj0Ke0soLV5WUkESeozKKe0SiI1juzmxxkjGSZhIEBAmoi7GSIgeWeh8Ug2PvtbhtpjS4FOxeHKE2RoylNTJMZ5vRrdsPeB34a+UvvQSpWtHVEpGGl4blTZdnchubm0+AGEVyEiED/BA0xbIdBkPZvVdprszq6aMfIzU7g8LkzGJ+ZkjLHBAeiO+B1bUjIZRaHjr9sgTFLMK0BCT06uhsgtKtymSwGGosJQCgg9ZcwvwMahEHGn656UmPSlPzWuhoMMRwaD3BiOodJhu1CH6Gnrpl8J3KxmEggFpZIeRFbBnwYACERMaGx86a9MUMKsiCzIiMQpCXcdW4Ghw/6CCSbKjIkESGnDWradGtlO1tM5JqGsT2ruTQbffTdyKtjqGRCFOCFKd5132+snJl91wggDDzodu7AEUDYubbd8MzXGumlhXLjmR8uUcDEgigaTTRyRJvjt/ELZioaqnGMzuY0xFFNQoSVShWRUOo2IctkTQtQMJkRrQuoZuoAACAASURBVEVYX+xOoyRb7vkGbnzjyx0hBrvwdS/KbbCiNRWEKqbeQKzaE9TLZSzeuCliLqHWxVquDVI6PBUG41F6tlFPdqNLg0CBFJhY6PhYrq/iqRe+OHSAMNjwMnU1YohzooQJZAdeR+RN48xbPwHv7vehLN4JTTgJmQQCv0jMk0jlRx53YUxzZRoad35bBAiWhbG+BsY+WQIEks5IP4cU7lgOJ+65C4XZKcRJooWKfPXj4NJgwQAXPOtyaW2xs21iAUJHRKqr0bIAQTfpOmgdY7UswjkRtGqxplsLEDS7ge3F9FbWXeDt5pIa5sZdHN9bxFjTEXBAvRHbKuA7KiygFkIUzYaJsWwXIMh76jIswEyTcZNj2pDU6MAN4MUV3H1uHMePcLywtgKnHuqDAnCzIZUtjV6CKbtSrHGg93KjHlVRNMWXFO6KMJsbldjDpHMQH/nx312ZcE+PAMJgk8eOHjUCCDvavBuf/K++M/945OY/HTH2ZnL0uRMT6nGAfD7z6gpNyJ0iaUT+IYIj10MjjLFSrqIplKejbnrWOEnmWAUKChZUj2ABQuzl4CXM3XdRWbiJ689+WYyS5LXvcmXsBglMe9N1RpXsTAnTVMYVLM7Py46XpLp4KFoTJOGuN5GW2affXk4AgW3lC3MUISKY438yUQN+HKLqTuP0Oz4B51WPIQnVpMr1Q/hRHYkzgabrw0VVGIUUeXgJwcIWAIIdH2YnLGOFFtEECwQnnmbUBGN5nLj3EnJTE2C1CKvOJzjwTC0Cq5tpAQQ1dFz301bcrA2udQAEk1EguJLKerkQjai03LOt5ricfFY8J7ZTO2SrUwPHu45rOkMRJDAbJYTfLOPAzCTOTBdYvUCABGtzxOI8qbkNIizNqDU3BAg9rJZ73zMZDbZVDjGaCtZpeJRUcOnOcZw6lgeiirz7wv2wbDnHgqf1FQSMSSaFhj5ZzGl9BmGwVpONUOLCdWPhvWS+a8Z49ckP4M2n//PRujRYM+74UaOO2PEmXv8CX/7ByuNVeJ+usUAT88hJEFN9Lu5iNqVq/e+nkj/MvQrVwAoQZFmWBV8nR3FclFLRiuh1MteQhhbY6Q0QtNwzU5ZcVBe03HMSavni9ZwTO4GCetJz3uPUV1ldwcrSItKQ04Eqr0VfMERQYFtq3VDDOgyC4wRYEgZh+CGGQYaXOmdSNxAhYBqkCExZwEvFqnVWDywUMfvQJzB75mFUvQAJVhC4BSRxDpGrcW0/oQqdvnZbZBB6AQRqQWSHq0rz/PQ4Dl88hwLDChwNUnNBtQAtN0UTgzcRCtkZc6KxIaPuNukXbugmqtdUczQaBJZ7blVzjD+LeFhGSYN0ogVVNnvH6lCtiWmcSLVV3/VxZLyJYzOzGE+Ywhgi9VN1L5Q0WN1di9cAhcvZNMctahDUt4DMj4YPndjBhB/i/Kk8jh1O4VK4GDNZUcUiBAdSuFIcErX1RejI9Gt5PmvPtZ5os3+DaQiRc0mEmB4fqYN8lMej9/9WdHzyrVTgjj63QQuMAMIt7IRvzpcfX6w7n14OXeTFIMhD0+Nu0FRzzDgq9rxNO7PKn0YE2NJaa1oUf1UNI5QrNFOiiI2LjnG3MwDBbBE0bU5cGU0WA5iy1AYIcbO/BkF94AHPc5BEEXzHQbW8KuAgCpvwTYVKnWg2piGH3jU9AUJNUg41xPAFLA0pi2FT9y6LgjGicRrCJohPvYRANMuBQq5o4igO/NhHMX7pHah4BdGL+LEjpllNV4sKB3TjFBfiLTAI2ZsWalqthO2nODuB/WdOorh3BqEIZBVkaiXOrqmkR9dudbJp+4q2IKD+ZdeqOQ7Ym7apsiJEel0YH6mEBZ5SDwWs4sj4GOYmx1EQF0hNg9QsIjUNUljtDgUg6G5AEodlXI35Cc7M+Th+1EGO2QNSal29FrTaJm9ERlHL2lLGI3k/ISGzOikLAwd9l7WRNMSg4SLxBIl9zE28Cg+c/9n/7uDEPb86YIuPDtvhFtjqO7vDt/XKOP3lavSxy6Xw09drCAqxepI3vBxc5sXLS712auxoGZlQNKWxrfRvzVK6g6d9qmESStWalIomhS1pjiJcNAyCTFK09DVpjhL2sCJFhhi+iI0AgnjOm8VEk+qofXZQXV1BaWkRSUwRkrIPpKJ5fbVe0c+gmQrbGhnr+CDQ9OVWMghGPWJCBL4wN+KInwaqaKc3hpMHwgaS2UPY9/qPY+L8o2DAR+h/cVxsGKEgQwyMyW8RIGRYBJsjwLBCfnIMB+88I5oDsU+WBdpoATJhJxMpa/VnywBpizMNr7A2NGHG+G0HEKy2J2OVbtwJpY9lkHMDECOPEAfHA8xNjWNM/AC02JHoiGxdg01mMWRNkFp/NwZInErcKETRC3Hu5BTmDrkI6FcgADMn6Y6SFWJScRWYmtTU1qZDU2bJSHTiwY3FiJ3vrD4j/8dU2JjMGVM3ozxee+xj2Lvn/OnzM2/67rbe89GXh9YCW3xth3b9V/SJyml64Knrzf9hpZl+uBCy7rqPmpeH69RNtsHGAEFDBELWibhJPQ2skloyn2XRpmiR/zHcsCK2zJwU1GSmVbxBqq/R1ayHD8LiTS333GjC4XbIGOVkhYr0NtDAq7rq8Z/UHKzOL8CJIzENEjten/FNjVtLrryZ68WspV1TamfGxQYA4VYyCFpqN5EyuWQN7C6NaYOhmxdx50RaRZIUEaOGcGwP5t78CeQuvQdlRChEdQTxGCKyNizFK972JoFOFnyTwW+slsuX5xEzD7GXzqXF9zvw6ObIhWUij6N3X4A/PW4KTrGTTahJdCvtUL8K27QvbRYEaXPBE5vsXwt1WwCh2yjJAgShwh3E2RBD9Fljgbx7U5wN2WlpdvPuSvvzxk35Z3l3CnStQD6p4uhYgLPTM/Bj6ijoJsj3lenOXK75XhM80FPClGzLpDk2FxV0my25fS118TY/5l00GC9wXfj1Jdx3cRbHD9KVk1UUjaUFtSMOZ4uwpTmQCosEqKI7YJ8SpNKrgI/DSpbZV9SyCBbtmxSWlu+F8eFQZ4XWjoBxhDgtIvbKGPNnMTf9wC/vv/Od//P9zv2WQt2ZeWB01oFbYPfenoFv6ZV14LPXq78/X41+rUwdAt9FhhpUVaAe9xt8NLKgM3rHDrwV19dZQioKco7yHdSiCEulMkKZyDXxUHb/rAYphAI1Ai5ilm3lHpVWyPM3ce3ZL6Ieh/RP0xVARg7ZgDYFLY5yrotCmqCyvIiFhYUWq6DJebqSSE0W2Sl1WQdvcgHZ9EhZByCwDXakmuOgN6iozhydeSWtxbYurwhSOtvNwI1dlNMUZ9/zD1E49ygqyZiwRDIfxyEizt9pgGKTOewp6nmCjwS5Sogffu3bWL66BHhcILQv2O+Jm0pFRK2p4GhdkFwKFAOcuv/V8PLMnVdhqV3o2/vL9oOa4djx5CbLUUDjoHtNhb36abFMMpatoNaIAEVcG2nWBAGCu4SbLNaUDLHc88D9mOnD7E3L0G8bY7l0VDT1G/y4gX25BBf2FVFMqvIcMQIxxWIVUC7MXkxtgoYGI5d9CURLTYQLIZw4J8fSwVDAYewghwnpRu7MKYAOnCb8aAGvvrgPcwd8OEkFCbNTkJc0RhquqcdB24tTh6MxhZYBwvvRnT+NjTb2aeHxecBl6TEyYWNSb4QshWgaqFFxE0R+E0k0hqAR4PQdr8G5udd/+Oze9//RoM09Om7nW2AEEHa+jTe8wuVK+ovfXyj/s9XYneHr6driTGJuMpyb00lV3ey4w6tFIUrVOprUGxjJICu5SZEkcUvjwawdUEfq+agt3MSVZ7+IhgCEbKln1RvoJK4leJM4RnVlSQBCGIbwfV/BB8GAYThEnNQSTA7nGQc6y+0KEAa5eToSuiH8mPAtx70emn4Bxx98HIULj6HuT8NLG2qeJKmJ3O2REaKVLUTI6NUiXHnyW1i5uoSUpUPteiZrl4K3lhNlkiKYHcehu85hYnJCwJzWVzDhIMn3N1r2DSoTZh/NkhODPK6FTL1AgibrksQwlHgPgCBZDLstUhzkwQS8mxLQwhLEyLN2w1QOh6cKKPD9Y6qoyzwHtjXBD9kYre5JloFrbLwUIlpoSlprSk8DWYjZIzRColupllEn+C34FZw/NYsTh8aRS1fhpKzASPfGQDchKcObZAg0rKAf21vG5aoF1awYeqPJKQsQuKHIq0E8WQsZn9xmaHln3uuEcwdec+L9Pzx39E2PTzpnPz9IM46O2Z0WGNIStDs3+5/qVZ66Vv3rG+XGg7FfNI6Cun8aRueoGEj1BrIeSJ0DNVMqS3ZDYiZa/Z3uIrhQEArUhSqtmSwGMgjCTNuOMLZ64honi2+CcqmE0tKClGwWktukL+qlNQQilLRx2NvVPn0ZAwTeOlMgOa2TEdIaDA00x/fjwAOPo3D+nYiCoqQ40t+BGRGkq7mA+KTiWZa3nuDyk8+j8dJVNH3aMmfWAslWUBBJirs4NYED505hbM+0pMcKiSzag/YAMEGlVnwhwyUNrVtbEY/MGa3ZuLBskj2xlkG4bQGCrpDG7IoZBDQWSMEExP3jeczN5DGBOvyU0MEVBkHkQcZdNRKWEUgWYwEIUuuCO3NuKFIyKPQ9aYhds5+kKAYxTp8sYO7gGAKwmihLqZuwI88pGhZWnDRmUz1nnexMNEgvc4woA6KDjOCGfi+8T7JUNEfiXbB6ZAOHx+/Ffac+9LtnZt72O0MbOKMTDaUFhrEGDeVGXskneWE5fOTKYumPy06haC10h+UJoK9ze1IX0SLztF1PzJQoXGzEfFFVzCjZEFI5jjtP0pYO6vPzuPGNL6IWNUViZSOKWlJACyox97u2WsLK4iLiKJT0RrNd0L2H3WW2GIfNx6S3PUZexgBB2B0xvIolXCBOikIX1OGOH8Ydr/0pjF16BFU/LzoSOjK6aSCUNDx+J0XUSHD56WcR/egq6m5B524b+TGEMrUQuekJHDx/GmOz05rKaDIaWtbZZtVuAYROnNEGkNkOa+kH2iFy+30bMld4Osink0HgQkQQTB+E2Bgl3bYAwYhAuYBrwIYggDoTB0Ea4fC4gxPTPsbYDOxmVw3FuLCKw6kxUooFILC2QkOMs5yEu3SOEVptq25h3Kvj3IkCjh314IPsknE5Mhkzdqm3Rs9SZ6MnQNgc92OCnkaTpGEK1l3Q9EjmT+ZMXY46ck4R5w++82uXTrzvZ/bnzj41SO+Pjtm9FhgBhN1r6w2v9PUbleWXVqLpNFeUOLAmKA6he1oFblSvIAWQZBtPQEDHxSaWyxVhElI/Z2rdU9RIgKDGSAIQGGIQa2QuUmoEo4tLgpzrSbbC0s2bSCOCDXVI7FZV97Q/3s32fzkDBMFitDHWnV7s5pDQcIqeGVGCtHgAx972c/AuPoJqxMqgunNzUJX+aDjjSJt1XHvqKZReKqlDnrhbZoUfCYKxHI7dfQkBBYlkE4yehaBSdru2LLMpW9zdfZmoRcevhIEwma0WENiyxzLSzXnltjcY9nbxyYYYXl4AwQr4bFqyLbzFkF6IQlLDoXEfJ2anJPWZC6s4M0oqogNhEGIHChCYrUJnzTETKmwoCZh68OIyLp0fx4kjFBoua2VRFl6KNbxBloj9oQ6natAk6ZU92156z/Rnnw4ycgvqGhgCsn4njIso+6QiXIIFaiPy4Wk8/Nrf/NPjE69+bDengtG1BmuBIaxAg11odNTGLXCtnnznuSul0yyTok72QzKBYxYDXeZMVUddF1Q7IIY8roN6M0SpXEGDOwyhpblbYYpdU2KV9Zu0WrYAgemMVlOgnvH1Shnz169LHQktO6SWz7KgmIXtloMDvRFZpbg4SgSd6YFOTRbSW5nFMMi7oRtPIyaRt1aBAoVmHndmcYxSOoO7H/0F5C48ilWGjrwq8kyfi8cR+gGSRgXXvvqcAoQglEwEa4lMv35vIo8T990t4YVGTOseMwhFk2r0CTK5a6S6nc+y9gnWMAE9GIShAARJlWAFVAde/HJgEAwAUkWw+fC9c+EwMySOEDgpjhZzOLFnDJ5kLTQl/NN2JvWkkmO4oN4pxA4xBcIUAEfMPinj7ovjOHHMQxo3xHpbMyzotUGAT6aB9RmMYJA6FWZJsAx5z8G4SYAg4SotKKYGWjwp/+4jJXPiUEETwas5uP/sx68+cPIXDw/yDoyO2f0WGAGE3W/zda/47Hxj6epybYa7w1aalDl6y46DmYlZ3RZttoIkQcrExNe/0QyxzCqQcSjGQRQwUVREhXTDAoSwqSEFTw100jhGo1rB0sK8+BzQFImLjuwUjCjxNmreDQHCrfRBGKSNdJdNx8S8lnwG489q0c0YNA22AorBohwOPfwPULz7nahzeyiMDivmJUgadVx56gXUfnRTMh1UBccxABSmx3HkrvMIpiZEjKjQLqNdsRt7Aw6EhMrceK+JJAsSLEuQXYFa37cZl2ITvgkGQYqciba/BRAihhiYxRDfriLF7PNZLkVssjRFmAyd46PYrOPIhIf9d4yjyPJbtgw0lQk0VFuMwTRHpiFG9E3hO5n4GHND3Hkqh1PHfCRxWYSaPJ44Siu+EiOz0qu1UObmgdUaiQLXAwjdI3RjdpO/ZaYFQxZkJSTllhUkqZ3xKIikFiHAgcJFPPbaX3luwr3z4iDvwOiY3W+BEUDY/TZf94pXyvE//tFy5Z8v17mz7/SR3ypAaE3Mxt5Y3dE0RayVnWxKRVeZ3VArI4wZleQKEiLxfGUQmOYYNlVvID7qMWpl1RxQiSz1AcyaIySkjKzbbHj1cFJ0UMsUa7pFToqDjEHD+DDEQE8Lpq/lYlbja0qufOQ48JEDogTR5Cz2veFxTJ1/FJHP6n11xE4RTj3E1ae+hsqVRQF+FLSRgyhQc3D2FAp7puQ8tmBYqx5IK1Wlsz/tMrEe6Ww3yNZ3L/vtXiMju+xsFKqwFUAlfp8BCK5lEG5ngCA0u7VRF35fsxaM+iJxKB4NxHo9iKvYNx3gyNQ4JpEy+ZG5K+IgGS4lAhCkndJQWIJiAJw5VsCJo+Qga5LRwIyWbDKxmDAZ6kL7QNk0eVttKuaa8Wh7K9sr67/bPCM9PTSMYXs/b7Ir6qKZCNJD+PGLH8fZfa/76byz718N8gqMjtn9FrjNZvDdb4Db6Yo303Ty8o367y1Wk080jBe7vrit/2srE1r05MZPwAmUqneJ2Zretup1nSi4g9BzMP5bi5soVRuoR1pIJXZ91AxAaNINMaHpkYPa6ipWFha0wIvxj7dGTfx3dncpWZO3QUPLBJgJMdhqjmtqMZjd821wy61bYD9K/NZpqEeGZCcwfBRLXFrYoRjwyT4lVcQTh3Dgxz6GqYsPo5IrCCB0qwQI30Dp2qJWG3RTFGZUkJifnjTVIKkfcUXfIOl1soao4MACSpnyO5ip9cNh2SVlI1ePVoS7a3Nqye3s+LHjlSybBQgywmNTzXGzAGGQwTnITDngecT91IJnIRGyegQ2OHfzzCKKkUMVh4s+jk9NoCjhPzU4ai7FCBfF2gg5RJjwGjh3fBxHD+XguXUNH5nMB56Hi7V+2FKm8JK0NRdxgk51Uu1ynWj/W55NZhFTn2GjBlGAwPElKakmk4F24UjL8JJZzM2+Da8+++7fmhu75/dup/dsdC+dLTDIsB+12S62wA9K0U8sl2r/17WGKYVK3boYJtnUtljSFKkNMJHhvneXxf92sbY/kz+Nu43uLoBGmGCxWkco/gWqQbjyza8giurIuxFWlpZQXloW+priJytGFErRTDOamtWak24LgKB3YwVaduKisCuH5doKnnzhC1itNVi3ZnjsxyCLRt8eVLKfegG6Kwq/ExPwBQjFtU8T/qgB0cqeARA1kIzPYv8DH4d7/wfRTHMoLod46ennUb/2kjAF7vQY5i6eR35mQp04xR1R/TA0/c2CU6XCux/F/ruPIbg8XTcp3f1vO1xkTekxK2XZCBW88SBJ49AFS3bieaTOEhbrf4bl+M9FaHvbsVitwI1tFBtmMGPOWl3z/SaJGIcoxgn2Fws4vidAwWkiDX0kyzHi+Soi5OBhCXefHceJQz58hIhZeMljRdCmZhNJmmoLgglAYKaSCgg1TVSExx0AoesdaLEePK6HUZJ5DMtKUOvAkJgU+qJKhMXEBNrWMR6cwR3T9//qgQsP/k8j18QBXv5beMgIINzCxu916TRNnctLpd99cRX/uBbxlXURetQEsFpfAp9on55kDEGIHaqtrLbxg/SqdaBlmdt7NBaJElMlz0MpTLFQi5HGKRoLN3H5uafhJ2UsLi1iZWFRlPM6eBw4ghIyeGDLiyJ3SGufY5gCR0Z7dUGJJF2Q4i4vKWC1vownX/j/sFJpIgmafUfFerR63y/u8AEs/JNLHPjNPKIgRMXN4ex7fgXNO98JlHzc/LsnsXj1B/Cmijj5mlcjGC8gEsW5+l8I+2P0c+rkuZNTxNr+7tXXdgm14JaWv2K1xXx6GYJ0gST1zrBYGQvNf4uV+C/hxkUDJDb/bnR/w7IW2+8+W9yq59tv2DwHiagSKTrMyTuad5o4Opbg5P48nKiJ5oKDdD4A4hLuu+cgDh0I4SclESk6YMojNxEsrkYxQIbuWfcB+A4PMKrZ1mqFarJgep+QFuEeZc9MmRYHRYYlfeRcH3cdeQznDr/xsUOF1/7p9ttzdIadbIGdfPt38r7/kz/3Uzcbf7KwWnsXyy6LL4HrIjQ50IHs7NUipVcpm600jmgIpLSsxgwbfg6lxMHy6gpqC1fx0rNfRrhwBYvzJREnBszJ58STsc+10wtDGYPls3feqU72a+++F2jYyjPyO3SkI0BwJe6ru5vYCbDSWMRXv/O3WK2qGVS/zzDvyaxx/S5pdB1dh3W5GMYUMCZ1+M4YqoEDP2SBrgLm3v1JjM29CT/4+otoVuo4cPddmJqZFPvsmJO3yXaUPhR9yvA/g0426zEVckeCRTlOaRPNTBvdHccO3QQD8fVfbPwZVqJ/37vKZHfzWZZkg8eVK9gG6tMs65W0zn7Nhvo2BCEyRl0EMfVItExO4UUuDo+5OH2Hi3SxBHcpwMVTdZw6thdpVIGbaLiPrJ9ySepYyhADU137fgatmLbhuXQg+VGAyInR9LjFiZFLQ4RpHvvG78EbTrzvT07P3vdLjjP7/b73NDrglrbAoO/sLb3JV+LFr1XjX7u8UvvdGzUU4eTE/IQmKQQEfhQLlchZnTRzvwh/v6mBv9dNho88Y5dJgshLEfkeGmENN3/4PTzzhb/F0rXLyNE8SeKbElsQXYOpGK/RTTlPFx1t4qztftRJpNfgs+EKe+x67MGGC7S9Xpc5k3jOm8aQmL54OrDcbA4rjZt45tufQ6lWR5wWhjfkBn3D+nVSj/P0OjVTV8XKWqyRHeTSBE2E8MaO49C9fw8rkycwObMfuZlZkbxxXImBsngUaP8JN6QJ9f2G1rbaqWf/9zhjNuqguftcPElhcxRKKgYisRvOA6hgpfYXqDY+j7BY73v/stPu0/YCmgbsx4HW2H59zTYwhdikkJfHUIAHLwqQj1Icybs4kY9wejqP04dWjBUznRT13eOH2RD2DRO4NwhAGBgW9m4M5SIVdM8266h6gQAEabw0RSHZh9ed/okfXDzyxl8uOEf+3bYGz+jLu9ICAw77XbmX0UW6WuC7q9Hff2ml8b9drTAtyZWJX3PfIeEGzuOMJW/UieuEdNe0NX0LmAZFZpP/8TWnR0LNdfHiD67ibz//FZSX6khol2rVD5LVSMqxFWzQHUz3RGOseluLfnv177wPmds6wYWyCpscpmbGVzV++7tax17hjAAbxwNLEjhMFWvcwPXvfRHNWk3p6iFR64OsBdsZ+N3KAGY4UJTqc/fmsj9d+FFViKZ68TSm73s7vLOH4ESmlJ/JU7f219IDZowZ9el2bm/D7w4KELpPwjeAdLVWTRSvR4mjO0kO+aSOuPw3SOtfgiuOfRt/KMwdpI/0negart1fHLDYWAe7Zk665j6ZfSA1NbT8M42FRGOSUHro4+DMBF73qnMYD2hdTCZFXTYTERxyJ0HjJQIoVrrkM/ZQinTcv/1H10Oteei1Jbpa3zBtybeu4JQQJeNy3yKAjIH7911ceP2Jex7fX7hvFFrYsbdquCfu9/4M92qjs226Bb50ufK+a9XaH8/XWEI5kAU5FBeyQHfw1q1m02fu/IIspImDyCcNr3Hs0PXwvUYDT19bwkuXy7j24jzSZhks7JSYAkycnsWOzRgi2R26pVH7gZe1k//aBxlkAs9+q31N+01zfyali/9inYLI8ZCLuXY6cOpX0fzR3yFpNuCjvKXW7Ml2dIEjxTs789rxrOyPgBVBUwc1PwefvhVxFcVmAZVaDrnXnIf3qkPw/n/2vgM+rurK+7wyfVRGxbJ6d5Vt3KswLgTHhjWYjsHUDbD5PpIQkk3bAJvAJpsNKV9oSSgOIWCbDc0kNriDC+6ybLmo995HI015732/c++7o6fxSBrJsi2bN/yMZc0r955bzv+e8j8mJK1RIRTNtlNr99FaHaSSMsVrl/2D7ehrlielSUkFSlSI2FcB3WOSEWzubjC2HQBz91HgpPBBYxBQ8futSqrlpXd4VN4AUiirrygocA1YQ2q8ZHDTGL22r6eid90EChlrofDYN76b8F3gXOV4HxglC1SWdELYGAvMWJ4BY2LnAUgW4BEQ8GgLouyn5H4S2IolnLEf/qLZFzye/gwW1cjEHti72jjoNPaAxWMDEXkPfDJkmONgWnzE7EUJiw5fcAP0B1wyCVycneqSNf/qf1FzsxJez7vfPNXQdUuTGyObKcMNSUPDc0OAfXQwc2l/EsOJgD5Pr4hEJniVAWpdMpxo6YQGRYTWpk4QuiSoK8kDnxdJkdC3SP2c5HJ1JlEXAyVJGc4nUHeqRoUQHhXwPmI6CZze6A3FmBeqFAAAIABJREFUHHPc8ClAsEiqVaanEpTKAyB7XUO3WAzQumGKIYT+Br+EBJvLGD0ugpczgE+UQPTxEF1mpjHkS+LAnWkFg8UBJosFJMxcQBY/NojESsWU4cV1MYTayUCfPY2+R0IhrFOAxavQmuAl8SU2rwfMrQfB6jwBPkwD6KOt+wJGOm0DrExMi2saR4FUf1ipd97Red/PlqouTKQgZ+yVfsWqxv1o5UGTBtBqgCmnGIcgg9Vog9qjHdBc4YOU2VEwdpECUY4cSIwdD5zPDgoGaWJGAqnISmnVMeOFjGcooLS/4Ahtw7SoUdPVXlcNnTNeowiiVyDuyjgIhwizNeHRWStqQx1z/brRIQEdIIyOcRiwFW2Kkl7S4nuxoMn19Q4vR1jKSM0TRQGDmn5EwLw/nWl4w4r0p0YA8KDloNsLBa0e6ObCobtHgvbWZgDOC94eGWqrqsHrwtrztFATJUOh2+3w3qzeHhQNhGi3DURG+CzVsqE94WDqmwmLU2FMByeC1S2DLPIguSuBq9gHXl/XeSyWwQaHJon1/ZwXP9HfqA4PO4U0U0m3ka4bWRcFHygeAcLrLWBt8YIrUgG4NgXas+ygSEYwWW1gtlqJxQA/BPBhMArW0WCm74vY1pA6dJ71gKp8BStVYQlrBEOSgQYpcjyYZTeYWw+DrTMfDDL1yw/0QcsAutKoA191yLH4CzarmdtN5dHwD7z/2eoPZC0M3itWFK2P3j3PXeED4gWCMMKyyPt8UFfcDg3FAKJogrGzbZC4OIJUYoyyp0F81FTg5UgAGYETFkujZdsFmbaJxSYM3rrQrvAX7mIlwtltqstT9sogG3lwKEa4PnVGpcMYMXlCbGxnaE/XrxotEghhOo+Wpn6121HhVm6uanevq2hw3tCtCFYPIYmhlKaD7eE4yIOdZAkNK6n0KEBVVw+c6eqCdlKPwQQelxuaOlrBKXrA7g0Dd1c3NFXXgNTVTfjjWeVG2g4awEjJUYb+OU/phviIYG87Ty6qP9fko7Xo3YIBLF6FBFJJnmoQyvaBR3aCmaSLhPDiwQTPFIzmUbQCZpBnh/K+EJqETgZk1ZOxNLTXC7Z6HgydYSBKPmiP8IKUOwGkFAf1VfM8GG1WEM1Y2ZH6lnuBJnWFXCDkC6nFg10USNlM64lg7QC0lMgEIGCQoo/nwORzgbXlMER0nlZN6wM/ncbM4EctLsaAERsmFTMQJcviazSncf9w4okdA0SDpO9o7Rb0pE2DSM/7aAjGZGQiFDH2yANyjw0ayySoLe8Cg2wGnvdC8hwLJOYagRNk4HwWiLFnwZiIcSDwEWR+ScS6gu4ThPyU8njkPpoJrC3nToMdiE1REAyEwCknJu1ogj3qvmvjcwpG7v36ky6VBEZsW7pUDf4qv6dOUWyVtc5fF7W7H23zIase/mE5BMGisXsXct+Nnqly7W+RW0GACpcERe090K3QAD700bq6vVDX2QPdpCxtDyknJTtd0FJTBx5nF7Xks8wFgkSCna/pJtz3E6KGHaFBJyZgADBKNEujRxDB6uFJHQOupxrMxftBQv56dXMdideSeheqAmLIgEh9GCuvj4Fc/QcxIOHzWao7KeXNAbgNYG8AsHb4wIPkShwPLqsC3KJM6EmPBYGkN3LEemK02UA0mf157dQ7o2pGmq9yUYMRtLOgP7EQxap+SUznGFgqYA0GzLoxgg8tCAKAxdsF4U1HIKr9NLgFsQ8WO9/iQ2WHypoaoBgtcO/Is0BXChCoTFC8gSdokijQH/jTTH1qhNCOJGsVLajEPhJnBFA8hE67qcgLdZVo3+NBkCQQOYCEuQ6IWWwGk+gjgai81wiRtlSIcWSDKISRntDeoDWJNsz/1l4qyiDrceCJ6cf9KrDS0rX3HkLQbWWEcVb70XExiY8uSZihxx2MxGZyGZ4xjG3qMrRSf6VfAk5FiTtW61rd2eF6tbZHAZfJSsysGK+NpEaAlgXVt4q1FGgUMepv5FNA1U4JVAhPOhZxIVRMmCYGUOISoLK1AzrRs8vRb1CZdfV4oandBR7CIUBjFNC763Y6oQlBQrcLDLg7SvQURX3YqlphJzL/Dk9BCf4h6XUX49MfDqFxmJT3XhHAh5khSB/NmUB0VREXg+TrQWqqYSnwYF1hcrhgYKTQMUFASE/NOI48eAlIRIUpgSwgh4MBLF1W8Lb3gNGpgEnCazBEjYMuDCpfmAaedAcp041DQpSIwIPRagOjhcYpkMBTfBfJjlPZIjQmKD8oGYGxI9NC8xw2NwIfTa5RLyTgBYsLqUodf0Tlie2yedvA3nwcwpynAZOB2UfFsH0eS0/yNFaF6mYVODNspNalUJ0a5GsytVSzOsF55ARNAQPOfT+uCtYBFUBIvJcqbWS8xD8E5COjJ16ALgKkNAcw+sKgtsQJjZVOkCUEQTIYcOx5BeJnRUH8YjsYsAIjeS4SIpkgIiwVoiMywSxGA05tnsQj0KwGSm3mBSCZSNhofD/KiGZJUBw4sEqgbaT1OghDI7po1MLioo8ycXZyPlgkJLdPzMr+0fSYlJdGYJroj7hMEtABwmUS/IW8Fi0JXe2e9fn1zltrPZjSRjUfL/Ak6IzEApA0SDU0nZxaSHIYSZPCEwiQyoDofzeQ4kztPQB5DR3ETOsWOOAMIkheZG4UoKvHA03tTvAigY4kgSDiqUQhhEKyxwMVxcXg7XGDmae/p1ttX38sqf6obqBEwZD688HV54XIRn15Xx967yGNnt4Iq5tAfc8Y5Q1mMLiqQK7aS/ojqBwTF9yOkXwAiaTniFUH0119OORYbAmtPDTjlUT1i14RxHoFlG4PWDCSHYl2MPUROQbtALAoHXypEZSrQqX1lUhFRx4sdjsYLRbwkDgEFR6SudP3ZN2vEhxGf7UAgdqeQsFmqgYnKTxohpexeDCZX3ZPK1hbjoPNeYYAKL+NTAUXWipnFjNCLQgMHPTCFQze9JMk4fz1Zzn0Xq/tMnWtMVNCP8JA8z9hfTQRkIpxPai0MW6EMKOStvjAyFmgurAdqku6COkVKnIMrDUgcyonQ+KsSEjMNYERORJYhgJmMUgcOMLSID56KvBSGK26iqXBmWQJeyo+g1metCpgkLb7IRSmz1J4TwNccSNQgBMEkLu9kBQzBmZBeNSiKYu6OA4LMOifK1UCOkC4UkcOAI42+x5ubOn4XYNbtnXhSYCn/OdYDpi4A8kJQSCUwrJA2djIvzE3XsHjhQIuwQg1LgWK69uhRxQIZzqanqnOwCwJDrq6VYCA2xhumhJlcaRpVArIHi9Ul5WBr8dNXBLMKK3NIuhjHmdafDh29gsZL9W8S5PXMG8cf6IAwagCBAkBAtm0R9nSIDoRA/LwpMxDD+GfkUkZYLTc4AlR6OFAaJdB7JRBxAA1Cav6CaReA/bUDxDSI4gUJUkiY0yohjjCtwcWuxVMFhsgaCDx/fTIPKDUL0RSfiuGqnwuGkBQjewkg8BvyqdH+j5WAU0aKgEEat8RiwQCisA4AgXZOc+LLQgiHWK9wZLuiOy6qWxlI1k3JIXYK0JDRSdUFbeCCOEkuwgtOqjmMW0V4w6SZodD0mIjyXIQBBPIMq5nD7UYeo3gsGfC2KgpIMgRtCAT7yXAA4EGUjFTKIbWBJXzA8FKCHOerGNisWLgnoIikiXhUyDNFg035MyvyDZHp17IUtXvHR0SuJC1PTp68BVvRXm79ERZe9cjpR3yFBcp4OQDUfESk7KsYJgQbjxogKWMc2hiJyc1wrQnQrXTC4UdLnCS8tLI24ZqX2XjIwHtPAEIzaoFgZHw0txq1LgyiPiG7m5orKkhAYxoWWBMi2R4NJsmOzGyXOpLOgGZGZlYLgSiENGCAJxqQajcCwQgEBPsJW1ZSLPYIEngJZTb1JQtKhJRMsiAKXaLYG5SwIDgQHUPoPLAflCAIEMXsyCkRxBwwMaFen9UCxPPgxndDSYTjVFgAKGfNDnmEhiqtNhp3H9yV+cJKpvBeSKGYUFQJUwyfVR3wPkpkL3urz4DggdkFSAwa0OwNiI3SOC0ofEmfU/pnGQkihldfcQlKOMKQu5DGcBjhNoyD9SWO8EAZjQ3kO8IYRJJa0bt7IOkOXZIuk4EgbOQOYxgkahsMuaUyCLCmgZjIqeByEcSS4XC9VAYhjUsmGvDD4ZDKblFnQtkHyEBkDRYFMmmRJmDbFssLMjM2TU5LHE5hzma+ueKl8BQ1/UV3+GrsQNNijL3SFnP112y9+nGHi/IaCEg5lfcX3ADooV4UJkT6wLPQQ9ngspOH1R2eqEDNzZRhRBqwRbCHId+TQQIqovBg3QsMs2TJ6ufaQdMt5QV8Lp6oKm+HjxOFwEJCjK/ISOcxleLvP+sVjDxw47EDPQH6FE7BfULM1dH74irMfrUxaAgQMBr8VzWCxDQxYBR4iPTsJGcbVhClwMP+nyJL5rmm2P2Ce8WwNQsg7UTg9gwJoGFjlGwR+mXJXD5XQyRgDVBmaudlekmegVnCi+AyWwBwWIkmQ5+vzP1DVEXFvmLKgs6xkMbSK1J3z9ejBV00GcNHSBQMHv+eJzXbjXOoE9vVICgvVtrTWC/16a5at0Rfe5DeUkigNBD3V2KkXCaYISA4hGhodwDDRVuUHwG4DFuCMEMeFVSKAE4HF9egqS5mOYogIjBjBizQIbDQNM/iW72ACdbIdKWDtEROWAQw0BWXMCTQku4PjD2QCVP8pv3zg/SDOwbyoXnsPYFdQhJJJUSYHJUEkwbk/pxWvTYx2I5W81Iznz9WZdPAkNb1ZevnfqbB5EAVoE83tj9hMsLvyxqcZu6kcgI93PJAwpvIupAwAA3SQKJN0AJWg6cPnCCSNwCoiyBT6Alponex8IvJLSBB6e7NwaBAAQeAQJVFszliuyLaNZ2uzAFshbcXV0g8kjWoJYiVoO5GEAgLgx80AjNQDw/seJL6PZQkQI976inUmoypoqNAQS0uCic6mKopDEIoxIgECps9FNLJPAMaXUVzghCNw+WFhksHWpkPxLxUKJsAu5QGWAAquCToCeMB1iYBr60CBK46A/NUOWDvBokAI+4FngQbRYwmDG7QSXPRvO36rwm6XzERI7xHAxEhLZMqSGnr89fq6gHBxtDBwj0lb0AMpiC97dexbB+nBIEIASCBWZZ0IIEkiYaAHboXMQAYXTb04wI5DLgJTPUlfigsdKDU5JANUxRpBaVHmLJkTiRFKjC+5MJQOBBwGJupHMsOJmOPQ1cRCAnQJglC8ZETwRRsNJAZlK8CduA36PlEA8TCBwGj0EgVT/J3OFJTAzGuOREJsDM+IwtsY64RxM5a0Vos0C/6kqQwAhtz1dCV6/+NiqKYjjd5IrpAv6/K9pc9za7fMDzZqzvR7j5UYn7eDOUd/ngXGsXODGoiBPQew0Klm/GdDiyadDNn1oKeHB6PNDc5gQf+jvRsUACDOmBjHiqiSuCBkYKvABelwtqKyoJWDCSuAg1jApN1urejvcRf/AIzECy6fKU5Ac3ZFasqA8DHnkVS2anMQikLQEAYdS6GBAggEhqcCg8uhoUMHiMYK73ga0dTc8CeAUMOsVxoPU6CBZCAzWagL0SdIfzAAvSwZMe3st06T9V9zJiItTCSp2ywIHJhjEJNLuBQgr6hwzjEAACUYjaipFBlmO//ADnXRsKQDitqXSqBsxqAIIWMBA5qYqcBW4GVmVkbdeeqLXK/zyLCJM/IxLSPp+sSBOtRKm4wcTbofysG+pLPSCQWAS36n7AGAPsq0cFCAYQsEgVp0DynDBIXCyCwJtpyXe1zggZTgIMmTNPBkkyQFR4FsRF5oDIR4Ms+UDg3SBj/A2xGFLGycAAyz7AWm0/9hlBAgH4HhmmxaYq12Vc84cwC/xHFBfVfvXvsl+tHo7A9vzVEtiV1NvPK11Vpc6eRLcP4xI4UrWwvEeBUy0u6OZFsi0gVTNWHwBRBFHy0O2f7b/o++RpFkNzmwsk4rbAU6N6olQPHGwSsb/RT4qKtrq8HHzdPcRvSr3h1IRJNzHc0wY/sYQkb7JbcUSpkY0aAYnK3kTfxYFE0sME6vZQgzVJVqgWIFSpMQijMEiRASqabYh5fRyIzV4IaxNAlATwihgvgGpczSAhB0gKwvC3os8L3eECyAszwJOGNQqoLZ0YilW3EU3wp7qFBi2iO0kBmy0cDBYrCVwkLgcyKMxVROfLQF4BlT6AnJjZh3m8B/Lp9z/2AwAEbyvYmvPA6jxNrWFsrgZk8PmVH3O0BLEuqOYmCrSYP0bTqEBrAQMdWqCjzZBgQIRSVWCwL2YrmKH8bAc0lmNmAFoHPPRdPAJ0LLxF44owBgFjT0SJJyb+5DnhkLjYQGIQOPBogg1xVZPEZeowQkpq3geSRwSHdSIkjplKWDQBrRY8WqGwVQiWaTG4PvFCmngQEl+BUIIVAwMeZsVnNq/JmhcT0hrVL7oiJaADhCty2EJv9Cmn7x+V9a2JrV5h6pkuAfIbu6BHNBFljfwJqCXQSiAJGNaIVgZ2ksA0JuSA58DV7YPW1i5QJCSnofcQq4G2GX6LAj1jYqw0xiTUV1WRv1mFSFTQqIiI+bV/l+eAHWSBZtqLqDFCDd4TDSQ63+Nxg8BzIKGbQxTB58NNEd0aGBshkC2UV6iLgaQ5YpCi1+MvpR26lC/+lUR/8V5iYjb0GEBo8YGpE8AoI6MgtUpjVU1Kr4vAjpoGKEDAjAYJXOECSAszoCcDI+P9TDdqKhyNLaHIrbceJyWX4sBss4HBZCXvoOGuaE/AwDrKPzDQRkLHi/I2qNDCb+VhSpVJMJhZ/nzphgAQOgto/r/GzE9TFlWkQO3ydA6q/aFIoLdAE5krKroJ7KMWHPRZBpqUyWCzgoSLKhIIqLjdRqgvc0F9eQ/wEip7GkxK/k9qKogqdwkNUsRoGZIlxEmQPCcCkhYbyOGfV9BKhx2iVj80N3BqGXi0ErBMBcVrAYc1Hcaiu4ELU2NYVEoE1c3QN/YioLKqumZjRBtkRyWccNgj/mVZwqTyiz/79TdcLgnoAOFySf4SvvdUl2d6aad027kmz70Fja6URg8GLwrgU0/2yCyIJ5oeAc3RePrATQoNzXSzImmObZ0ESJAiOeSYSbUCcR9QpzK1DvgZFdE6wYMHaZlrMCYByZTQdE1jG6ihum8pSrJ3M5N3r4Nc3cCRFY8FyaGCxygITMfEC5FzH09LPkiJEGBJTgp8UWf8vdhe/sTZJhf4SE4/bStTGIpsJEGKAucChTMB76oBpXIf8O5u9Uh86QaIGYNRhmjRQaWOpEgkdUy1eMhYwdNnAMHNA9fiA7MTA0YFwh6IyoNZFgjNLUk7U/3tCgaSKYQ/oSucA3lROrjTI1WeDJbY7vczqK4DBhDUIkUkO1Yg2Q3IuMhAghqOoJb4Vr0PRMb+hHk/CRHto9/2MEBtQTor/BGUOEuwWjDGvajzhpx0ScIArQNCD9l0XpqgDSwteWDvOEtLHdOSZirJEQU1LDODRscwkwmLTuwFCMSFEMQ0QgxQ2BuN24BaDVQGSvJIhMgIUFCtMySMz5bAgJUoPUaoK+umMQdY1AhrJ5C2oJULA0VR2SOIRgo0JDvDO5FaGj0ICBAiIfFaI/AikiqhWwKFgF/SPiMJErWeISmam6xXUTED7zVBZFgyREdmgSBEkiBD6pGg7SexJSoPFfKkkHRZQqmCWU8ANrutYrwj6a+THUnvXeNIPHbpVon+psshAR0gXA6pX6Z3HmxVFu8pqouNjbBuKmjugTKnDzpJ2VwjUcyiGtmOlmYCDrDSIQjg9PigHpkUcUPl3USB4UZCrA3qCZKdNVAxYbAbsvPh/ZjARUFCHQlcRJDAlDs1heJHPcap4IKmqqunTZW5TZCwgiSFLliHQuYxYEsG0esBG6fApLERMGdSAtjM0vM3T3Ic21/o3Vze2fIfh8tbf7S/vA18igHMKjmURzCTaG9BQdeLG3y8DYSuKlCq9oDi7ablfweNpB+5QWQ8BKTwEOEfwNQxVHiYyoj7tRckQYGwjnCQOnpAcElgwmh2UuVPjTdQ3Qkk80QdE3ZcR9VjlCkPgrIoHbwZkQSoBfYxWEAdM5cjyEAiHKPVSsiU8N8ScTdgzAczwSNwY1TCaryCfyypmmS6n1Qh1ciYMRIKpNImTa8k80wNdiHpuSoTJhL9IP8DZmcgYRQqzW4B5wNAlKcVDG15ENZ+DhSekUFRxxazX6jQqQ+PZ39Bi34QoLoZKLlX77bZ15KAIBUZDRHMoqkfNSulg8bVRcGzB6zdUVBd3gYN1T2geMxEuctKD4kBIlkI6GrAzuC7JJGUfSYAAceYxJ5KkEQAgglEJDUbJJAHaaSw96JiApBwBYkQZk+A2KgJwEM4tTbIGPxK7UIEZ5Cf6X+8zIFNNsK46BRv8tikXy6OTvuPkZv9+pNGswR0gDCaR+cite3zuu4Mk8itcCrw4t6qHjjW6AQPY0HkBdxD1Dx7VACY5ihBU0cXILuCj+smZzKq2WlkAc2hV0+hKikPmVgypubhKZ0HqcetBi52kcBFVFCKgIpAPVeSIyZGbtMytYQdkjAGovuDbKHI7EOpgIny8IHF0wGLJ6fDjYty5ImRhg9KW9zfS4uJq5uVwLnw9a8errGmxpj+88N9xd/98HAFSJwZPIoEXkECQUBtI4NIQFA4CK5a8NXsAp/XSZTppQQILNBTlDhMewes6o0K1IAmDnLC4wHcChiaAaBbArMsAJYh4DkcDypD3NdJcCb1RajuAmrpoQBBBqedowAhPYLEYoTSR3/wHSptEushgMlqAZPVDj4VjBB6bSIzVJCMZZCSM5HcEhLYpgJH1YSvBQhanz1aOtwiZl6g1YNaPnC8iWkddS9aEgwyKF6cjWbiSuFkD7GGibwJzD3NYGvPh+i2M+CTbCCLXvAJGOSHlMR4GkbFjQoc/e/0tI2cGANlOLDARf9y1Pjm+wIEPIWjSQdJkDCNsYcoYx7M/lRjnjdAbUEnNNR1AHgtwCsWMg9xlLCDNHBWJKWeCd31CAAEGlQsgxdBiIAF2AxEqA5LIiTETAVewQJPuN4QiKCrigfZp4BIUqQliBSssDhrGridSsas1NjmaC664yJtTfpjR5kEdIAwygbkcjTnrEs5++XpsvgCtyWs1uWFVt4A3WCipw7Mve/pgcbWJgyVAosvDC2i4BEAvKgQcDuTAQy4ydHcRZKbT7kWaXYDKg+s1YAgoaqkhAQwogEWT3gIAqhDA2MgEHrQOAIMYKQucRkkrDPAISkMB1FmBTIcnDQ7LbJ7zeJpUkRMeEo2xw24YdV4lPUvbT5817sHy4z1khnMsotQLXvRCsG7QUJmue5mUCq/BKG7C0BwD3oqG9lxwngQlIMAHgQumK9AXCj4wZgDEQzNEvBdEhiJ5YPs5cAJImHHJHs7sSDQE3xoAIEVFui/J1rFTeIIiLWCVv20WDEmAatA0oBGmiCi2qdZXUjV+kM4+9VzNIUvfWMWtMrZI1CuDbSE0DgKBHG0dDfOKTzNCpICHqORcD6Ivm6ItMtw37iZHV0+H7exZG+Yt/ogRLWdBVG2khRPr4BzEsEnWmTQ1I7kkxxxWxCQRPCg6v7QpsRqfkdJgajvBMEOifcIjDcgVi9aS4HDKozkHlEtiw4gSHaoLu2C+tIO8nu0NPCKSOjMMS6BMh6qQIpYH/DeC7cgEFZMrMkgyqAgBwPSrfMSSD4FIq0ZkBA7DRTJAohtCAhDW6KInBocZFuj3GNNYXeumbDww5Gd8/rTrgQJ6ADhShilS9DGqg4lWrIom6raPXC60Qst3T3zaroVS61bgpYeGepaneAhrgU0bavuBWLy5UDBDZhwDNBkONQarBYDsdYrlNiYVIF0u6GushLcThcYSKkIak6nrH3qaZg8RybmU7soQJLNBHFhQl1qtP3M0ukZSvYYS4HDYX1hLMeVhCqaJkl54qO8its2fH4293hFO3gVK+E7UMAFXt4GoqsOuPJ9oPT4gBPdASos1LcM7zriU1fQckBP3ZSMSqYFs3p4MDUpYOvA9DYVPPldOwp4VXBAwBhR0BcJIKg8ApRUCbNC0B9tB6PZ7HcJ+HkmNOmQjJ2IOBwIWKRWhv4+GAOD/UfAhIrdjeWMESYhbTRLr5VRCYtg4iSYGxsJq6dOPOYwh+VGh4WFn60tfPt/P/1zRmPDqVSXr4WcljlS8pj66GmlTsz5x9RQ1eyvKUQVrF2EQtkPD9RAGVKUTGUTZTdh/ADCH76Lphpi/AApruUDDmMOSj1QU4Z05BgzwEZKtRIxKxwBfIiIcCwNIwIQSCYEpr6ihULA4EfsPwYkKwA+E0RYMyEuajLw6GpEKwumRfI2T3Z04t6JcclvT4lMfG14M1u/60qXgA4QrvQRvEjtr/IqPyptk6NONHRAl9s70+X2XFfv7IEmnwk6uz3gdHuhW1ZIPICHBDCpoEBVXggSyHlS5UIiWfRo0lcU8Lhc0FJXD0pXF5h4LB6lgNXAQ7iRh2irCLFWDuIjzBAZYa+r6vS9vWzaOJiVbj+SYRHe5Wgd4mF9ShXFfLaodf3WvJI7Nuc3QGWnG0wCnryxmmMtSJW7ALxOcrrzx0peilgEVkwLlQmamgleEElAoqHJB9YOPPUayImXphRiwR3mk1fD/xCEEb++SpetRun372IY3ILg13sscpSdqJFqB8EdCVy0gmA2UeuCypiJBYMYeybLOMEgWFYmOdAyQbIFVABC6w6wZFgF3MQihadvACOe+kUeXN5uyLKHwczYuIJ/yZn8z5ljx74cx3HFrL2vffHXr3c1dby4v+aL9IrKcvDKCPqQ84OVQMYfGDfH+fEmgXwM+G9SYlq1ghAw7K9aqpmKKtMkUfAYpKhadcAjQn2pFxowW8FfQRGBCvr9Va4KQnRELRTIc+GvkRhgQUCXHR7zk+ZEkCBFrI0SjI9B+zu0tCiPSjT6AAAgAElEQVQSD7IogyS6AVMWEQSI+HLwgUcyQER4FsSGZUGCZQyMsyaAwxTxzPWZ054d1kLTb7pqJKADhKtmKC9eR0rdyoTGrp5Z1Z0dIIr2peCTp3kUb0qXT4lp6Qbo6Jahs8cLLrcPut244UjEvEqD79TUMdkHRkEEA5bkNZmBl7xg6G6FKJsFIsPMEGUVwMRzJW1t7jfCTXxZVkw4jImOaEqIMGwZyZ7VK0pcfkXz9cdK2h/dcrxs0YGSBgCzA0zd1QCVO0FxdxHfPlFR/pQK2oLBGf6G11JibcFocZLvju4UgbgVTA1In8yBQRHALajVMIkm7SWqQoVCMzTUCHQECKryokiDxSBoghTTIvw8CCG3uDdxhdxC3oFWcEEAg9VMS0UTUzYtLBQgul53E6uFgEW/1Iv8iE/lWSC5BTItn4zpmGh+RwIoWfKC2afArKREWDN5QpWRN9x5e1ravmB9KKuqWrIpf0NimBD+1j8Pb4GKtir0g4GJF0HxKaAIPPgwc4AULuttS+A4M14Nf11I1a1AgA/jkfADHGrBoQAT65/4gPNaoKbEA02VEnCYrQA9ABxmGNC4A4q5EBxgcCKFIHjCxxgEYnMLBAgEhGCQYgQk5hpJnECweekHOShTksSBC1ICpEWjZd9phoVP7ib8FFYhGhakfR1SozP+Z0Z0dl52RMJfQ54b+oVXrQR0gHDVDu3F6VibojgkALsEYG73gKHWCdDi9EBLp5MwLjqdHnB7PEjd0ueDnAR2owlMRiPY7Xaw49+eFhgbbYeoKDuEGQG/644DqOWQW/Yif442KgmtbU13bDl27jfvHKmHjvZGEGr2Ae/BDRyZ4noNFcMj8xlCB8jBn2Z3yCKPxHlgaZQpQ6IsghdT3shJWg0OVa0DpAYCI/EJeB3lNBghgMDAgSbzgChIEgyJLiYOzBYzmKxWUm4cQQJ1DNBPICmSVgnjcxjFM2pLvJPU+SCVRHEoMN1PAtnXA4lGC9w2eSZMT4x7NCMqanu22ey3GvQn7QPlByYdOXsyt6mj8ZXP83ZCW08zcCZsG1KRG8hpGtEMU7KBp3H/2FP2D/U1vRkZ7L0kEJO4T9Ccr4CIgTkeHmpLJKgr85ETO4dhvjxa21RgQA0G6pPVNA3/AzGIEmsv9I1BIMWaBgAIgdkY+G/MgJGxhDSCIclC6pd6RRdIUg+EyQ4YHz4Brp2wsD7NkfV8k5d7fcmYHOcQZq9+6VUsAR0gXMWDq3dtcAkcPqwYGiLbO3/1t0+FY/s/FI1SF/gELJPd15NxsawHpIXEXyCDwBmA94ggNHvB0qGAiYADIIF2NDtBtciwQE7G7aAqLprfT6vs+UkLMSAPkFAJetMch2hBYHEkpKwvajT1xMwUO6kjyPMEIJisWCqaWY94ouAJd79aF4LpWK31gJnsse0Wnw/cBjxny2CQOTBiPIrHBYtS06SH5yz0pURELMo0Gg8PPrJ9r2jsbryuqLHo9x9+/tG4bQd3mAxmLIQtgsTL5A8dBrXSo9q/QPpl7ROJbtewL+J3hOpb4cDAC4RzoPxME9RXSiDIZmLKJ5k4GPeA/hK0AlHzmhrsqNZPYIOMFoRhAgTiElFdDwhasF2YSYR1GBAUEcAluSE9Ot1709Rb5dlj5rwcK0R/Z6gy1a+/+iWgA4Srf4z1Hg4igZOKYiw5cPSevV/ufX5nXuHYkvo6jploafper7uBKo1eeztLUVQPgjS4kfxD9Sirl/ceFnuXnF/JEGZHICWbxWYFLE40UmPgpkqCRI3RIGCWAlVl9PkqTwAJ7iRVHulXJMtBfQ2pqcBhmmMgQAgtzZG9jRZnotkILG2RZC+o0Rok34DjwGq3A28y+Ys+UR87dUegZYGQAakprITviB2c/TxFNOcfr7RzPGTZI5UlKellN+RMe2WqVfjvkZjMOwt27tu0473w5u6WyY2uZuhyY1Ch2lOSjaH2U1XeNCKC/Y6SUvlZJ0m7GZhUCau8Jqgv64HaUieIGJDo5wMj1RfUImc044Ga+lGMmIbJaB0pWRlNc8TgVIlWc8Q8F2JBUGMQ0MUg9loeSNwHuilIPJA6Xpi9gRwKPgUMQjiEG82QbIvzTYufXjomIv6uZYnLjo6ETPVnXJ0S0AHC1Tmueq+GIYGazrZbP9t9ZPHRytJv7vx8L1/d2ASygCcuWhYXt3NqWcCUOZVxT1XO6n6sMh+qwWbkLqpc2OaPXmAMRcTTsaj4qB8cM/qdJlA6vWDolAkJEipTzOwg71Kfw6wI53dNLUakftGrwEhziBsAizx1IbvuwgzwpoczBuGQpMQsCAwM+MXAAjhJBgtVkrKIMQkYuIgR8QKREzIBIM4ixEokfVWNoVCxFCo+iqswwQ6BkARZdhtcn5zWMiMx9W9zkxM2OThuT0iNDfGigoaC7Iqaim+dqT27vKS6dHxRxTloc7eDJEqADIKUuAnbi3EDCNYweJBm6iABGK2AqJ7+SbQNLW0O3Waor2yHxsoe4LwmotBZ+W2a9UCpvtXgHLW1/vBENoLUnYRMhhLh+yQBqgrnAQP+wHOQiFTLuUbMhPSTVVHsgQEHWPIZeSS9pM022QzJ4ckwLmYCWC2WF2enzXAl2RI2RnKxQ7bEhChe/bKrRAI6QLhKBlLvxshJoLir66HfvvpGktvneXbn0WNQ39IGAm8kmz2tT6EGLPopjVVqahIoSP3bKhclSDwhqCanf8ohQE989CRO+R4Mbh6EZg64Hh+YJYGU0EUFhIyClDIZ0/7UpTrIimXKXHvCRfUlSjJ0hQ8PIAwmWWIqR8sFtheVp8CD0WoB3mIGHwYjkhLU6P9G97xM9BdyaqB1AfuFMkDKIg+vwDirCMuTsiAreszr8zNT/zHOZPrfwd5/Id83KrWLj53Ky96weYMwcdLUV/IrC6CiuRK6PE6QfB5C2EXO/bQus1pCWaUJxzHClxMSKQkUnwANxT3QUN0BgmQDzovxAwgk0F1AWQoRNBkwBSTgwxImWZwDpv4i6DAoHhKs6EXyIs4DooQuCgUS59oh+Vos7mQEzPxAYCVxXvAKbvCBD8ycGRJMiZAVOQ5SI1LKbTbbqzOSpzcmi2l/vhB56fd+tSSgA4Sv1njrvQ1RAhv37bO0dnRPtHLikzu/3L/2gz17wKVwYDJZQUCEoODpDJkd8YRIy+UiOKC0w701KbC4lShjsCECC0yXQyWD5Zo54AQjGJ0cCG0+ELoUMGBuPuHLQc2JLImMthgVqf9wOWAPzgcIlGAIiay6CNXy0C0Ig4lMkak7hBaLotYEdBFgCqTBboMemRbJwjRMD2F8pLwGMvIcIIDyeiFeEuGmqXNhQUbMuSiD+d8nREfvieC4lsHePVLfK4rC7Tj9+fSmjob0yLCwH50uKZhx6MwhAha6JRdwAgeigLTkqOhRomgLwoBEAXifAUTOAhXF9dBYjiRbJgCfkWQMKDJSXlJqUioVtAz1AgT/BsxKXvpxoIHMFUHpITVQfJh9wfPAS8gs6oHkuSZIyTVQCxfymPrcYAQR4oxxMDE2B2anzZEVn/L9TlfbzhlJ011pYXwpx2UjwYf+0SUQsgR0gBCyqPQLv8oS+GTf0bY/bnwvYt/Jk+BGVkeB+naRO19W0IiOhDyUw17mvCDxSEiD4ABPgiI5edJcenqaRNuw4BbA0KiA6JRojQoMIiMmaFphE+mGCR8/JaiknyFbEFSAgBYEdDFcBICAgAZrQiCrI2E7VHkxURliCqRox1LREmExVBBcGczQieWGJQ+MBYCvJaXAg3Pnw3RHxKjbj/aV7VMOnToC+YUnoaSmHDplJ7h5F8hGLxkKs2yDMG4MVJ1uhsqSejAZwgEBE4fggKA1WnaZpDUSoisB3AgQ/AXLAoaVJFVg4KSRjL1I0iIRgBlAxtomyGfAeyB1tg2yF9nBIJghyhIJ2fHZMDVhGiSEx98/LWLGX77Ka1Xv+8hJYNQtyJHrmv4kXQIjK4F9x88mFlXXfPzurm0JBaUVcR2dPZRKGqPG8VVqRTwvKkqSe86ByYemXw58AmUHpHRSApi6eTA0+sDYxYPAiUQp0FgDSphDi/P0Fhk6z23dT9f6syCIPiz3jAAhc8gxCNpXBaZ/kj77y/rQ9EQ1RlOtCsiBxWYF3moBDwhglBTAwlsxdosvOzq26O6JU7on2O3fHx8TuW1kR2tkn1bbUfXdZmfb2jPVxXC8OA+qWioivV5PenNTJxSfbYC64jbgOAvIGDOgckEQunFMUWVBjITrAsEDLcvMKL9o0U4ah0BKL3EAXuKGwpgMzH4QyByxGIwwJjIaYqIcHakzo4uX3jQtNcMxvjbRnNCSaE+5dmR7rD9Nl8Cg5xFdRLoEdAkESuBIWc0t2w4eW1V4rvDusxWl1vKGeujowZoOlApZxMJXhOiHEgb5SEliWqtCRO59lwCGFgnM7TIYeIPqSlDTHVVuAUpt00uChC4GWjtg4PG42AAhKFgg8XToPiF1g4kFhLAWqsyKGKFotljB4YiGhHALzImJhQnhMb9fkj3h14lWruJKnGFFXeUzu11dj58tKYJ9B/Lg1JkyS2ZC+u2tzU2GTpcLunvc4JY80NPTDR6vh5z+fT4FZInOBUZLjYBAFEUQBQFMBsxKEMBoNIHVZIYwkwki7HaPzyt/abKaz03PmQwTk9MgLTUzPzV5zO86lLqHAKwfhnPhWMZL/+gSGHEJ6BaEERep/sCvigTONTQ/uGXf3niOF57bc/QEHM4/Bc3tTjAQHgXVsCxgAJkMHCmvLJBURmOLAsZOzGLgScErUrSKVD1UGe9UFMDKKKvFGmka4zABAgbGjYSL4TwaYhq/T8gWjGr6Ilo/iK8e0zIlGRxWGyyaOBky7OEf2x2Rn64alwnjjcY/XE3zpKamxiqZrPc2tzYZm5tboaqmBhpam6GtrRk62p3g7OoCZ4cL3F4feHmsRIloTwZe4MFisYLdYoNwhwMc4eEQHRsNCdGxkBQbC2OiYty2MNsXMWFhp68meel9uTIkoAOEK2Oc9FaOUgkgh4LQ0jLrHzv2Q2JMxM+Pnzy9ZMfBw1DZ0g5OCav6KWDCHHSfAKJsBLkVLQdIXCSCB1kDSZpaL2eCPx2fhh/Qj4Zkr5fNL7hA+stiwCBFpyZIEZMNBgMb/Yo8oDYDcYuQaosYX4GgwAcRPA/jwqPgunGTYE5mVk2Rt+f2RQ5HxbTo6KpROpR6s3QJ6BIIkIAOEPQpoUtghCSgKIrhzTd3CYtvnPrNU+VV//PJjp2wc/9eaGvvBqPPClKjBKZukdRWIGZ4dCFg+hqp3ayy+aHeJlUuiTea+KpJhoC/TPLASzYQIBAeBB5A9Mk0BmFhBnjSwwnbYTCAEKzwDxMPY+jzsyCS+AMOBKRDlnyEvyDaZIKl06bBDZMnQ2ZE9O86Gup+Gp2V5c7mOD2CfoTmmf4YXQKXSgI6QLhUktbf85WUwO7K6l98tmv/v2zf/DlnapImdDf3QIerBzw+L4AHjfMiKVaAwWz0Q80GlHOQAgRSGElT08B/GaViVBV971KmhErUH4EERfgMDJB0hSkgLMyAnrRwUiY66EclaOhLykQvxuwLWtYbCD+AkefBKooQbzaB3WwpWzhhavdNc2YWThO51V/JwdY7rUvgKpOADhCusgHVuzM6JaAoinBg3/H1Rw6fg107joDdHr6ivrY5uqGhBZwuN7g9GPFOCZgEQaXkRRsDo/0lUe+U0ZF8VEpgVv26r+WAB6wVhKocrQ+0+qMMLrsClnkZ4MoIBx8DIiq+ICROjK4ZgytlhRI14e89Emb2E0BgM4owNtwOmdEOxcaLh5NjY88tiY+HGIPh6eyUlEGLJ43O0dFbpUtAl0AwCegAQZ8XugQugwROHKu5Z8f2z+MrqkrHJiUlPVVS0grV1dXQ2NgM7e1d0NPtAZ8XT+yIBQRSDAl5FzhkJexTTrm3VgTFAjTpkPImUAWPdMc+xQcdkTwIC9OhMysCzB4a40CNEFieG1PvFFBISWAMOBSAN/AYRQ9xJhukhzsgMzoaPB7POxaTeOT6a6YqmZFhOxyc8fhlEJ/+Sl0CugQugQR0gHAJhKy/QpdAfxKoq6uztbX55hYUlMOJEwWQl3cK/vWRO7fX1LRBZXkjVFY0QF1tIzQ2tEBreyt0OjtBkmQwiDQljlRJRBDACyDwCCQo9z9+CAOywpEyv17ZB212GYR5aeDKjATe5SbuAsy1N1tMEG63QLTNDolhEZASHg0pjmhIijRDjM3atfnU2X+ZmpgIk+MSYYzdXJBut9fpI6pLQJfA1S8BHSBc/WOs9/AKk0BpaWtkWVkblJWVQVleGZSXlcGP/+fR8rZmb3hjQxPU1dVDVVUNNDW2QEdHB3R0OqGzg6bSedweknKIWQVYJpowOEoA4VYr2MY6IHpONhiz4yA2zAhjIhyQEBkJY+3hEGW1Q4en5/r/PXjwcGpaGqRFRpI/qZGKEsVFtV9hItSbq0tAl8AISEAHCCMgRP0RugRGqwScihJnA2jgmFkBABoU5U8A8J0xHOccre3W26VLQJfA5ZeADhAu/xjoLdAloEtAl4AuAV0Co04COkAYdUOiN0iXgC4BXQK6BHQJXH4J6ADh8o+B3gJdAroEdAnoEtAlMOokoAOEUTckeoN0CegS0CWgS0CXwOWXgA4QLv8Y6C3QJaBLQJeALgFdAqNOAjpAGHVDojdIl4AuAV0CugR0CVx+CegA4fKPgd4CXQK6BHQJ6BLQJTDqJKADhFE3JHqDdAnoEtAloEtAl8Dll4AOEC7/GOgt0CWgS0CXgC4BXQKjTgI6QBh1Q6I3SJeALgFdAroEdAlcfgnoAOHyj4HeAl0CugR0CegS0CUw6iSgA4RRNyR6g3QJ6BLQJaBLQJfA5ZeADhAu/xjoLdAloEtAl4AuAV0Co04COkAYdUOiN0iXgC4BXQK6BHQJXH4J6ADh8o+B3gJdAroEdAnoEtAlMOokoAOEUTckeoN0CegS0CWgS0CXwOWXgA4QLv8Y6C3QJaBLQJeALgFdAqNOAjpAGHVDojdIl4AuAV0CugR0CVx+CegA4fKPgd4CXQK6BHQJ6BLQJTDqJKADhAGGRFEU7plnnuFWrFghHT58FEpLS8HlcpE7jEYTZGVlwpw5cyApKeGOpKSkTaNudAHg6aef5u+55777Wlqa38T2V1VVQVNTM3R2dpDmKooCHMeBKAoQGxsNSUnJkJ2dDYIgZG/durXkmWeeUTiOU4bbNybDBx54YHNZWdnXy8rKoKKiApqbm8Hj8QIAR96PfwwGA4SFhUFUVBTExcVBSkoK/v3Ht99+6/ERaAf/zDPPwN133724o8O5o6SkhMiipaUFOjs7wePxAM/zqjwArFYrREdHQ2JiIqSlpQHPc1Hbtm1rv9B2qDIn80or02effVYeroxH4j42TtpnjURfL7RtOH8vlpywzzgBcV4M5aO5/oLWxlDeya4NlAe2heO4C547iqKQ9RH4uRhzIJjcH3/88TRZlt9UFCXXYDD85cUXX3wwYC6OSD/7kzmb/3PnzjVMnz79jCAI97/44otfjJR8hzPWo+EeHSD0MwrV1dXJzc3Nv/v0009X19fX85KkgCzTdYjKjH3w54kTJ0J0tOPmNWvWfDgaBhXbsHv37okHDhywpaamHjp+/AR4vV6i/PAPKkLWFwYQqOKSyXcACphMCICy3SkpyT+0WMI/T0tLLE1KSmoOtX+VlfVTT5/OcwDAE4WFRWsqKysIIMD3UkCA76PAgLVLK1faDgBRFCE5OREyMzPfdLlcLy1YsMAVHx9/KtR2FBQUxBcUFCSmpKR8cOJEfmJRUTG43W61nwA+n4/8jO+WJMk/tgy0MHnhv9PT02HSpMnbOzpaf5CYmFg4a9as9lDboQID4cMPP0zgef63JSWlaxoaGsBqtUB29rjizMyMX9jt9g0TJkzoHMozR+La9evXJ8bHx284der0wvLycrDb7ZCamgrh4eH/PmXK5A2TJk0qH4n3DOUZbW1tjjfeeDs1Pj762JkzZ8n8RfnzPPfA8uXLT6WkpBweyvPw2oqKisza2lpHZWUleDxyTEpKwnd7ejzLESS2trYSoIjzAd/ldDr988FisZBxMhqNEBkZCWPGxEBs7Bjw+eSXKirK3khOzkAQ6U1KissbapuGcv1rr702LSws4vjRo0fJOsJxmj9/LrZrxuLFi48N5Vl4bV5e3viCgoIwp9OZmJ6e/kF5eSU0NjZCR0cH6TseFFJTk193u91P3Xjjja1DfX7g9fn5+bPOnj0LUVExXwNQvlNZWRlTV1dPZI/vY3sR9g3XpM1mA4cjCpKTEyA5OcX3+ed75o8fnwPx8THlM2bMaLzQ9uD9Z86cCautrR3f1dX1TGlp6SrsP651bAMeVqZPn46Hmfl33nlnPsdxXSPxzivpGTpACDJalZWV2eXl5S/t27dveXV1tapMqBLBicOUBrsV/42nzGnTpjywZMmS9ZdzApSWlk44cuRIbldX1w+Li4vT29raQBBEUFQbAFPIwdvIFDe1KuAHN8epU6fgQn3d6w1to/jww82rwsLs68+cORONCgcVcu978bnnGyTY99r29f4so0WDyHjy5MnVXV1d99500027BpLz4cOHrU6nc211dfXKjo6Om4uKisDnQwBAx7EvMKLtYRYE9h3+rf3gv81mM4IVMJuNv1+wYMHJrKysP4U63h999FlKY2Pla0VFxctdrm5Udup7OcjOzsLN6PE5c+b8ieM4KdRnXuh1H330UXpNTc0fSkrKVmqtKHSDtMPs2bP2rF69evGFvmeo92/fvvOpgwcPPt3Q0GDXKg7ctG+44QbIzV0Y0t5VU1NjbWpqWXvo0CGIixvzqNPZNbOpqYlYsNrb2wkgwPnAACl7l3aOsDXP1gQqM7weFfSYMWMgNjYWxo4d215TU/u9SZPGH5sxY8aQwctg8vnwww9XlJSUv1tSUhyBoBk/2FZB4GDmzJndU6ZMuX3KlCmfDPYctBTs379/8tmzZ+dZrdbv1tfXj8c9Di2jPC/6rXns+Q5HBK65V8aOHfv9RYsWDQu87tmzZ9W+fV8mTJw44Y9oPayrqyNgjIFwfFfgoYsdGvA7Jn+Uc0JCAv7qr2azZc/SpUsgIWFsyOsvUDYnT540Op3O54qKip5C0JiYmOipr69fHxERAT09PbjWc5uamiYgUImPj//+HXfc8avB5Hu1fR/SIrvaOj1Yf7Zs2bKuuLh4fXFxMVmE9ENPtIGKRbuRZGene26+ec0PEhISfjPYOy7G98eOHUtraGh4Mz8/fzEuQtzIKBpHgECVvrb9gcpPu1C1yhGVs8PhwA1xw9q1dz8dGxt7Nlj7T506N/f06RP3l5aWr25ubk7ARcYWvvZ5/YEB9sy+baWWDeaKsNms6HY4N3HixJfmzJnzdnh4eFNgW5qbm1ds2bLl7sbGxnX19Q3gdvf4LRc4jsFkEQgKtBuWdtwZOLTbbZCRkY6nrF8uXLjwB4ONJ5ow//nPrY/s37//j3g6DewjgoUZM2YUJiQkzFiyZIlzsOeN1PevvPLKbQ0NjZtaW9s0c90/EoCb5V133fmbiRMnPjlS7xzsOWVlZUs3b/7Hy6WlpeO0Vh02DniKv/fee36alZX1s4Gedfz4iV8cPXo0XpKkdbgeUO4ICBgoYPcGgtLg85BulcHWD96PLseIiHAIC7MdHT9+/JcOh+Ons2bNOm9uDtb3/r7/05/+/ElhYREBcX1BvkxA/Ny5c3fdfPPNSwZ7/o4dO149ceLElK6urvk45pLk0/SJeFzOm5vJyUk4DzIffvjhksGer/3+88/3zy0tLbq/ubl5dXNzC9kPmOzZfhBsTwoG3tl6xL/RFYlzAF2QdnvYT1evvnHAedBfm8vLy5/ZsmXL0whWxo4du37BggWfZ2RkvMauLywsXHzw4MFJdXV1/6+zs7Pd4XA8+a1vfeuyHgCHIv+RuFYHCAFSrKuryzh+PO/THTt2ZFIfOUW3A01atnGYTAZYtmzZrq997WuDLtSRGDztM3bu3CnW1zceO3fuXE57e5vqQkBleL5bpL93B1u02t/hwoyNHXP6+uuX77/mmqkPa5/z3nvvZXR0OD9FMy6aKJkrIfBd/W0M2t8zefa9l05VNGxgvERUVHT70qVLS202S25OTo5foR46dOSFo0eP3lZZWZmMCoGOHd6H7hVqIdFu9IHAJfC7YMqjdy7IeLLwJiYm/mHt2rUDKlAcn7a29vJdu3YlBFoxWBtQGVsspsgf/OAHQ3JdDHcuHT16NKG4uHTX/v37srXGEi14QeAyf/6C9ttvvzVyuO8Z6n0ffPDBd06fPvtCfX19UGsdjuGtt645uWjRoinBnn38eP5jx48fvb+xsWlma2urARVTMPdgoIWIPSvQyhZoWWLXkRAGcn7gUK3iXyCIAoSH28HhiD6+bNnS5kmTJiwfav8Dry8uLn5sy5bP/qu4uCiSraveOYjAHyApKWnXk08+2e++U1FR/dqHH344qaOjfV5rawuxppEGkzWFnegLgLSywXfee++9T8+ZM+s/Q+3L/v0H9u/bdyC2ra01s6ury+9GHGw/ZVZaLUAPtjewMYmMjHQlJiadmDhx3O8WLlz4bqjtw+u2bNni/PLLg7ZJkya/e80105r27ds/Cy1L+ME9Bl3H8fFjHz569GhYY2PjAbPZ3DRz5sz/O2/evCG9ZyhtGm3X6gAhYET+8pd3c1paGvIxiA1PzoOdvHs3CwVEkfjNdj377LOXHCDs2rXbvWXLViNuhtqNbrgTLrDfbJGiTOLj45UlS5a8PHPm9G/i8ysqqpyvv/66saOjw4D/7g8cDLctgffh87Ed4eHh8NBDD/06JSXpKbzmo482P5ufn/+TpqYmPtRxG06b2LPxdGs0iuirlNPT03++bt26p/t73uHDhw0lJZL7GW8AACAASURBVCWeL774wu/yCbRS4L1r1671zJo1wzScdg31npdeeimjs7OruLa2VlUUfbcD2j8jyrr9l7/8r0sGEJ599mffcblcL2hPy32VhAJr1txyMjc39zyAUFlZs+bQoYMb9+7dK7D4Eu0a1Vq02Dj2BqfSgwB+mKUI/9bOZ+39CAuAxjnSe0Amf/B5OD/RHbVo0cJtK1bccP1Qx0Z7fVFR0c+3bdv+43PnCoNYeaiCj4+P3/W9730v6L6zf/+BF/ft2/94XV0dh/EVzLQfCJAC/609ta9bt06+5pqpQij9eO+9950HD35pC4x7YnJlIIHJVQvAtL/rjVfqnZdszPA7nJu43+HBZezYsVJUVOTSRx55ZE8obcRr/v3f/11xOBx7MjIyljocMa/v2LF9HbNY4XssFjPOM6/X67VJkuTZsmULupSefPzxxy+LhTjUfo3kdTpACJDmU0/9KEdRvPlsouAiYT7HwQUvQWSkA2bNmvWbVatWXRKTbFVVVVJhYdHOzZs/ydKaTgNN+8GU0WD9CbSasH/jszIzMzCI8T8NBuMtO3Zsn9Ld3e3fWAd77kh8z06ECBLuvPOOqt2797zQ1tb2AvqXgymEkXhnsGfIskROGzExMejDfNJsNr94xx13eAKvVRRFPHDgwJm///39TK/X10cha8HXpEmT4OGHH7wk6/L48fxzb7/912wWIBbYZnaaQ5/3smVLd3396ysuOvA9diz/urNnT+88ePCg/9SP7WKBtdgm3Lgfe+zRD1JSUm4JbPPvf//iba2tLZsw8C3YGgi0GIViRejP3aSiAj9AoINKAQYDseiKyszMeEuW5ScefPDBtuHMw5KSkp9/+um2H587dy6oGwjbFx8/9jyAsHHjRovPJ/+gvLz8pxgQi23CscTxZko6yDwNcGEAATsGg5D5i1/8ol8Xw8mTJ6MURXniwIEvv11QcDqCgYH+3DeB32vBCI6Jdu/RtlG7B2n3aLwG3aA33rgKeN48/pprJp4bSNaHDh0qfvfddzNuvPHGXUuWLFnyxRf71n/yySfrcnOv9a5ceYPx9dfXP1pZWfHKxIkT0JVo3Lt373iXy5Xf1NT05K9//WsdIAxnIl8N9zzxxBM5isLl46Jgkxh/HuxUzMzYqCySkpK2zJ8//5tz5swZks9uOPLbt+/A+u3bt6/DDTFYG/tbaKG8K/Be7SkONxr0A6L5EMFBoBkwlOcP95pA4ILtwNMKBloFKoDhvmOw+/rKhiqFpKRETHv9bm5u7gvB7n/55ZfntLd3fIlxEcE2UPwd+pPvvnvtLVOnTvpgsDZc6Pdvv/2OwiLite1hz9WesDMyMk7fdNOqdcPJHhhKO19++U/XtbW17mxoqPfLiN3PTr4Y0Pn4448FBVHf/vZ3b+M42MTADVOEA60DLQDQnq4DrQ3ngQlimVdjlBTiZFCzc3qDW/EZVqsZ42ZeDQsL+8FwQMLgFgQGEJ7yAzhMh8zIyPqP6urqZxA0B7omBtsXWF/RxTRlSg4GYmbeeOONQfezw4fPxni9rf999OixBzEoWWv5Gcg9i9/hPoIZU/h37zgoIEkyCW6mVggZZLk3cBrHlAGwwH7h+lm4cGFDdvb428eNy+jXmvDpp58W79mzJ+Ohhx7alZGRsWT37s/XY+zZpEmTpJKS0gcFgV/i9XofnDdvTp3ZbE6ur6+fUF9fn3/q1Kkn//jHP+oAYSiL+mq6FgECxwmY0jJgUF9gn3sXnAIY1JOWlnb/mjVr/nIxZbNnz57FR44ce7m6unqiNk1oJN4Zqok+1OtGok2Biqu/MbhUYCWw72jqnTp1KjzwwANBldehQ4fmlJaWfYmnY+oD7hvfwp533XXXlaxefVPmSMos8Fk1NXXPv/nmmz/EtK5g4CBQ1snJybB06XW/ueaaay6aZWznzp3murqGtzCGBK1h+MF5zcA6k9eaNbeg6T6ojJ9++me39fS4NrHMGa1PWwt48GeTyQwREWHEVRUWFk7AGSoqQeDJ33gNKihsA4JgzAhqaWklwY7s+cHmIP4OLR6s7WhlwviScePGv7V27d3rhjquA1sQ6BxKSEjY9dRTvTEIGzZs+F1hYfETzKLGlG/gIUJrmWHtYm1H031aWgoGz745ZsyYb2dmZp4XG7Nx40YhJSX1rUOHDt+NHCda64QWhGhdBzieY8fGkVRam83Wcfr0mWdQ9jyPhzI63k5nN4KqBRaL+Zba2mqhsrKKjEFgrARrqxbkIYfJrFmzC2fMmPZvqamp24LJmwGEBx54YFdWVtaS3bu/WL9165Z16LbAgNOWlmaSVjtv3vwnZ8yY9tsNGzZMrquryy8oKNABwlAn8NV0/XPPPZfjdnvzMbJVq2gGQ9zaTRYn+5IlS85kZ2euTEtLK70Y8lEUxfjKK3/8YVVV1TN4cmabkb+d7HSDPtJLYrC+GL28sp6JJx2DQcS0s3/cddddqwJb39jYGPbBBx89XVJS/N3u7r4ZHtqT1tixY+seeuhfb4qNjRzxdDnWpsOHj7Zt2rQpAhUgc9cwBawFB+x3mNI3bty439x338DBmBcyYhs3boxobm5t05rSA90EuPnfdtua5TNmzNge7F179uy57fTps5vwGdQETXpA1jIqfYwLwNTEuLi44ydPnv52cvJY9F8TFxGaqPEadh3eiT5u/IP7ARJr4R9F4eOjox3vlJSUklRJLTjXgpDADAx8x803r96ekzN5SIGLA1kQ2PuSkxP9QYrbt29/Y9euXQ84nZTUTQuSAscW72cxEyx1E9Nb0VUaExN1wOv1/iAtLa2gP96Bmpra3Rs2bLq2vLzM/y7tXqh1CaA1Aq1s0dGxf1YU6a+zZ8+GsLAoT1JS3P5gY9nY2JjQ2dmZefLkST4/P19MTEzcdvZsIbFQaGMFtPey+YLz9dprc89Onjzt3oSE2PPW0cGDB4mLAdOl0cWwY8eu9du2bVs3c+ZMX11d3f9xOp2v4FoOD4+a+8gj9x/81a9+lePz+VAvPPn888/rFoQLWehX8r179x7KKSsryt+/fz8JfsEJzhbRYP3SgojJkyfD2LFjptx4440nB7tvON+/8847ufX1DZ+Vl1eYAk3ufh4nfwAVjbDWPxdXAhRQKhAeHqY8/PDD/0xNTT0PJHzwwUePnjlz5hVMu+vPRx4WFq4sW3bdu9ddd909F6vFf/rTa20FBQUR2vkdDARrFcikSRMP3Hzz6sccDsdFIQQqLy+vfOWVPyahQg4GztGqMH/+fBg3Lss4a9YsmmIU8MFg0IaGxucLC4ueKikpJgABT6TIijllyhTM6e/YvHlf8oIFE3yzZs2iGnSIHzTfz507156cnPof5eXlTx05coSQ/Wg/DJAEgoTk5GTvk09+2ziUVw7mYkDFPnYsBik+ueTEiROvfvLJJ4/U1zfwDBgxkBD4Tpx/atAxSdnNysoCWZZu371796f485gxYwaUUVNTU+Lf/rahCuXMPgyMMLcs+z1yCcyZM6usvLx8WlZWlnvlypXuocgArz1w4ECS0+n84YkT+f9WXV3jPxQFS4XF9yMba1zc2JX333/vPwPfdfLkSfvbb7/diUHlP/nJT0gMwubNm9ctW7bM29rabCkrq/g/nZ2dv122bEmX3W53tLa2thw8eNAeExPz5KOPPqoDhKEO3tV0/XPP/WJdd7drPfrX2WcwC4LW3Iz34EknJSV11WOP/es/Rlo2lZWVlqKiog1bt356k9tN4+H6mNXV1Cv6BVoQZB0gjPQgBHkeU7boU501a+auO+64/bygvtbW1mnr17/1SkVFxby+QVa9qWZo5szMzPjHrbeuuTs6OppyYo/g58yZMzv/+te/XYeWJ2b6Zex1ga9h8wqVEJqEs7Oz71+5csVFcZ1t3fqp8tln2/qYqVmAMLYPT//z58//19Wrb3ptMPrvkpKyP5eXly7GEz5aCJKSkl5OSkoKGhtyoaItLS3bt3Hje/GtrS1p6HrQ7hnBFOfixblHZsyYkZucnEwjewf5hGJBSE1NPbB4ce7dn3766W+am5tvxhRtNNmz8cNXsIDrXktKXPWCBfO7Z8+emT1YGwK/P3DgQFxeXv6es2fPEq4K/DB3Bcv+wt+p2UbVt956a/fkyROH/J5g7Tpz5tzPvvjii6fOnTtnZvEOrH8of5wnLIMFg36nTs1ZMHfu3POsFB9//HHx4cOHM1JT09+IjnZ8KyEh+d2MjKyfR0eHk2sPHjz8M0HgNuXn53c1NDQURUZGds6bN+9bU6dOfWOo8rpSr9fPlUFGbvfuz9edOnVqPbLvBcuf7m+wtSACFyPSdN5339oRlzGaYp1OZ9vJk6dI8I6WOpmcSslBlhwg6M86QLik6xPnQVxc3Kk1a25eO378+PNO2xs2bHrlxIkTj7KgSmpJQDM45azATXXcuHFdy5df//3MzLSXRrrx77777s4jR45dx1LeAmMp+nsfshhOnZrzh+nTp/8kmD/6Qtv5+9//XikrKye8FVrFxpQP+oTj4mLn3nHHHQcv9F0jff/bb7/k6OzkP6qurl3EiLCY0gpU0lFRkQ2rV9/45NSp098OpR2DWRDwGVlZ2aeSkuIPHzt27H60ZiA5Gn4YaMU5heON8RZxcXHlmZmZBxMT45+95pprQqYtZ21VFMXw/vsfrT927OjdWkZE9i52HVpg0dpkNtvXPvnk/xnyewaSDcbQbN269WunT5+eydIpmZsO26FNUV+1ahUsW7bkvH0Y99H29va2lpZ2iI2N+UN29rg9ubkLSE2dykrFUlT0xcyjRw/GGwyGd7q6upwpKSk/Wbt27R9CGbOr5ZoRV15Xg2Dq6upyPvts2yunTp1c2NNDaYJDOYIHAgQ0q911153PTZ486ScjKZddu/a8sGXLP7+DbQu6CQX4ExROoVQuKpsiawsLxKQgqPcEO9S2BosY17aLvUcb+Mk2E2bCDj2V9PzWBVpvtAFLgVdr26Ld0NgmHmjaZv0IVSasLZhZkZub+5ulS687L6gPiW82bXrv+bq6eocf0JHaFL2R2sj1P2HCxJ+sWfMvz4X67lCuKysrW/X++x+8VFlZlTJQZHsw0ICb7ty5cyAtLXXK7NmzR9R1tmPHru99+unW/3b3oEUMMwLQLYZIgfYKlU1u7iLIyBg3Nydn/KgDCNjG999/P7Ompvalqqqqr7EYk2DuP9wXJkwY/+q99977WChj1h9A0D4b6yag5amgoCBIWjYVosMRCRMnTv4kIyPzlZkzr9kcyruDXfO3v/1taWFh0cvt7R3jtEGP2jmjZjkdGzMm5tFvfOMbh4b7roHuQ2vctm3bj9OgX2SEpFcHrn90L61evfpHU6ZM/i/t8woLC03Nza1Pbtv22UJRFFdhDEppacl/YQyZ0WgMs9nsK1paWrJiYqIxyPRf77vvvj9fjH6M5mfqAKGf0Tly5MgLO3bs+E5NTbXKxDcwR8j5GwHld8e82ptvvmlIPsfBJswbb6xXTpw4Mdhl6vcYQ9G7aFg78TQ4YcIEcqLAAKPCwnPAcb2pnYHpSYO9LNBEzTYOXGzJySmQmJhAIrnxuYj48ZSD/Oc1NdSXOJgLZ7D3B57S8PrADQsj8fFPeHgEGI0GQjPb3t4ByEWPbUHzJOtHIFAYCHRo28beiW6GqKio33z/+0+dBxCwENGGDRt2nD1beE3vBtsXoKFCnDNnTuGcOfPXpqTEj9gGu337jhcOHjz0HWQp1PaJ9ZedvLTgic0FnM9Y3TIiImzKI488MqIA4Y03/lJ84kReRi/xEE5arHtC5y4GnU2dOuX3y5Yt/WlUVNQlYZocbM4F+37r1q0L8vLyXq2vb8wJ9I2z61GOkyfnVC1duvTRtLTkQV2QA1kQ2BjifMMPI0rTrifMokDeEkVRVq1bt+6Uw+EYdvGt/Pz8qadPn95w5MiRCW53L9Ms6xtbP4mJ8cgq+5fp06ffPxw5hnrPiRMnvnH06JFXT5w4SeaKdv2yeYtzesqUKbUPPLCOFHII/PzhD39IzcrK+nNDQwMp3IUyRICDgCEzM9PV2dl5+0033TToOIXa5ivpOh0g9DNaWCRm69atW/Py8hZQBYZFfvof2kAFxzb+yMhI+d/+7d9+OmZMzIicBM+eLTr41lt/mY1mzGBoub8WatuHCyYrK2tzenrqw+ifzcvLg85OZz1WOsRP4CIbaEIHnt6ZYsYNC5Xx8uXXbz506MDDWOAIg4bwg6EdTmc9IMiZM2fuwc2bP0llPPnDXTyBJml8DmNowyJPisLPiYoKQ9Oqvx14DSpKrLkRFRWzrrCw8FcIWOhphJ7mg7HoDSZjvAcV/MyZM125udc+mJQUvzHwnr179375wQcfzsF0x/7AEVK9ZmVlrFq6dOmIbU4vvvjqC9XVlchUeN5JC/ubkZFBgBKCpkCrCvYBY2vuvPPOlmnTpkQPd6wC7ysrq3jtrbfeQs5+gSM1T3ChYdwMBU3YDgyamz175mNz5859daTeezGeoyiKsHfv/o3btm1bg8pGa+pmawP/RnfJzJkzH1u0aMGg/RnIgsD2AG3Aq3Yt4BqYNGkCxmGsuPHGG7deaJ/feOON65qbW3bW1NT6uQi0cSL4Pvxz7733nElOTp57MWJotH1ACvOamprHyssr/l9jY1M/TJMcYTtdsWLFhgUL5gUN/C0sLAzPz883436AexECUtyvpkyZomRnZ49I5cgLlf3luF8HCANIvaCgYOPGjRtv7ejo4GW5l8e/v1u0p2jtIr322tyDa9bcMvdCBxh9f+++u/Hs4cOH07WpaUNV4NHR0Z5vfOMbL8bFxfpPt2fOnFHWr3/LfwJh6DvUNmtP3DabBdkka26++ebEUO5/7bXXwjo6OosrK6tj8bQT6mmdPTvQHM6UOoKUqVOndWZlpd89d+7cQSvdlZeX/2LHju3/t6DgjBXZDrWbbqht0s4BDJCaOXPW/TNmTAsa1PfMMz/ztLW1GoI9G3+HJ5jk5JT7rVbT23fccccFV3gsKipat3fv/vUICAPz4VGGuLHfdtttne3tbcZt27abWPCZFohiu3Jzc+GWW1aP2N7x8cebNx06dPg2rOFBAYKGgEgt+e1wOF790Y9+EJJJPpQ5d7GvefHFl4qLi0symCUm0FqDvAuxsbGPPfHEN4cNELR90K4/RiKE70xISOjKysp6dPXqm0KKdxhILsXFxRFlZeVtmzfTpRQM2CIgWrhw4YjOj8HGqq6ubt7OnbtePXbs+FRt0KJ2D0bAnpycvOPrX7/hluzs7BEP/B2sjVfq9yO2yK9UAQzW7tdee63t1KlTEaEAhMAFwyao2WwpXLnyhtuuvfbaUP0CQZt18uTJ295//8M/Njc3E991KGb5wGvwvmXLlpasWrWyDxFPSUmJ8uabfyH53qE8t7/NCSOIp0+/Zl9GRvr1Q0kje++99+ZWVdVsrqioiBlKYGigoFjbcaMaP35CQ25u7ncnTMj+62DjzL5vbGz89scfb/71qVMFvDbXOhSAoN2k8fr0dCxPPen+pUuXBgUIO3bs9Hz88WZDf/JGn/LXvrYcefYTJk2aRAsmXMDn7bffXldeXrkeaXe1Sp/9jHET3/zm4w8dP56Xu2vX7gedTqzu27eID14bFRUF69bdf1NqatKw/disG1ha/eOPP36ztLR8ASk3jW4uFnug7k7YroULF766fPnSKwYg7Nt3sPiDD/6egX3Sylo71llZWS/dc89dP3Y4HANSMA+WxRD4fEYeFB4e3paamvbjRx55cEQCXY8fPz7nn//855f19Y1BC9ipgATuvvuuzUlJiTddwFQd8q07d+5+eP/+/b9sbGwklq1glj9cj7m5i57DINshv+AreoMOEAYZ+C+++OKHW7dufZ6RjgxnnqC/f/Lkya/eeeftF7TB/e1v72w6fjyPsMwF8pCH0i7cnLCm+j333PXt9PT032nvKS4uJgBBW4o4lGeya9jGN2nSJG9GRtbyZcsWh1w0BZ+BfvkdO3Y9n5eX9ximpmk/oSpn7Ynf4XA4582b/9gNNywf8snp5MnTP/3www+eRZZBrSVlsHYEKnrMLc/MzLh/5cqVQQFCeXnlT1977bVnyck5CODDjX78+HEQHR2VcOutt14QQMjLyxtz7NixV06cOHmL1nWg9dMuXLgI1qxZze3YsWNlYWHhJ2fOnPXHAGhPY7j5rl271jt37uwLjq3Jy8v78eeff/Hz0lKVhY/wevUWTcL2paQkV69YccPjEydO/Hgoc/JyXltX1/CtV1999bfIvqgFjmyO4PpdtGghTJo0cW5OTs6AQZeDAYRAax/OG6R8z83NPXjTTTdesOWSyXH37t3733vvvXmiaAxCrU4zByZNmvhnu93+2EhYvIY6fm+++dbOgoJT1wVaEdi6xXirzMzM59atu1cHCCEKVwcIIQjqnXfeVQ4dOtyHNCnQRDvQY2hQ0qSyJUuueyw9PX1YfsBjx07cvn379t/W1tYkDOdki22g1oNlsHLlivPGHS0Ib7yxnlgQQrVOBIIDDEjMyZn8p1WrVv4gIiKiJQTR9rnkyJG8pdu3f/ZSTU3N+KG0QetiYHEH119/fe3KlSuCBiWF0q5Nm/5X2bdvH7l0KBYV7bXoz8/Ozrx/xYr+eQPWr39LCTT5a/uDxX7uuuvOrTk5OStCaXd/1/z973/PaWxszD9zhhb8CQQ+GFuwdOnSB5ctW/Jmfn5+3Oeff/4/ZWXl97KS5+yUypRdWlqa99vffuKCAcLrr7/+4/Lyip9jsGiwMcdgsenTrzl4zz13j5iiuxA5DuXev/7/9q4ELIojbfcIKgoKyjXDDQMCMoAiCB6oKCoa4wF4EBKNUeORbLIxGmPcJJs/bjZZszGHCm6MGzQqigfxVtDhEOUS5EZguG8BOUVUnP/5ui1omhmmh5lRcaufRweY6uqv3qqueuur7/jjqDgpKanLFoZpJ+DgMBbIj7uPj0+/CQJTHjDUU1PjEGPG2HTOmzdvppmZmVxEva/27d27VywSFRLg9PQsQCXt/aBykejp6bmvWrXqhXiZZGRkCsPCTs4Awk1/D9G4AtLk7OyUB+Pc2NiYernx1ScCmCCwGCC//RYytaSkKBap39F5raxb6bsuiD1uY2O9wc/PT+aZo6R6Dx78fUd5eflOyFfOJnkUc/EGWSDUq5OTi2DhQp9ePsn9JQgICyAtYAA4bdq0zePGOfUr0hjYWOzZsy+krKwsACyJmQZefeFN36XBTmH9+ncPGxnx5I57j55x6tSpt+LjEw8xYwWw6XO0ELAhCPHxieIzZ870iO1Pt2OAn+fNm0v4+PQmdbJkoX9//fr1lbGxsSH37zd1GV8iMoWCIGloDDFav349qak4evTojsLCYnK8IZKE6oPyQ4YMEa9bt+Y8n89fKI8c9LLFxcVeN2/ePJ2UlKxDP8pAZQBHIJ2BgQGJDg4OA44gJCQkiUNDQ2mLaPdxDfzR3NyMMDDQdw8MDFQiQRATGhpDiXffXbfHysrqL/3tG+Z9NTU1sb/88svUBw/aCeq49SkZhA3cUaGfgJR4e3uDptTd1NT0hRCE6upqgyNHjhVUVVWNQJlte5JhMczBxNixY5d6eXmdVBY2r3I9mCCw6N3z5yOs6uqqwQ1LZlZHadWBB4STk+PJ6dOn/8XS0rKaxWO7ipSVlc1PSblzITY2tuv5lAGZbMNJ6gWhzuRmzJjexOPxzDw8PHoZ6fSXIICQaEFzdnbumDPH+69GRkbB8rSPXvby5YiQ2NiYlRDFsr9aBHDF27r1Y4XG9t///g/BkycdZE4OtJDKOmJAC6k8BGHXrp8EHR1tGWghpi/GqO/Af93Pz09XIBDIrZVB2N64cUN86tTpLq8A+m4W2jd16uRmIyOjMR4eHmQaxfT09I9iYmL/WVhYNJQZLwF+h93YlCmTE319ffu9cB86dGh+bW3thYqKqh5eI0jbBe3n860fv//+RoU1Ff0dj4rcl5SUJAgNDcsAw1t6vyLsdXVHgVeI++bNm5VCEAAvCLbl7e3d+PrrC0YpIjvz3ps3b4pOnDhhxeEMIsRP1QhITEYGYCOPgwhCW1sLwllv+OCDD/q1AVKWrFeuRDRevHhRm/6udmvLxODNQGhrj1y6ZcsWTBBYgK7QJMqi/leiSHFxMa+4uPRSRESEMyxckjKgSScGnGcxwzmk25+Jicm0pUuXxsoDzJEjR+ZXVlZdKC+vIG+DAQ8vKnVA3LMmpjocLTIGBvqQntlr48aNUZKerQhBgPqoqGk6h7Zv/1Qhv+eUlNSQ8PA/V0o7l5ckO32XQBkHWhIffPC+QmM7KChI0NzcmgE5E+S55D1iiI6OtiktLY9KTU01Yi7EaFGB3VlAQECVq6trv49M9uzZK87Pz6fGDS2YDMgLgXs0NYe99tlnn/Vwp/zhh91h1dU1/vQz3W4sxLD7vfvGG2/4mpubZ8uDEZSFIDVxcXFbcnJydsIxBgpyg2RDmikfn9mX5syZO1/e+vtbXiwWqxcWlttzOI95wMG1tEY28nh6/doRb9u2TfvpU6IRZaakaxRhDhk9GgjCsP4ThK44UlSEIBj7QCaHDdNw3Lp1q1LjVAQH7xfl5GRbqQ1SJ8RPnyWAI+NUQLwXgsxg6+DgsGHOnDkvlCAUF5eeDg4OXgJjVlIQJ5DV1tZ+57x5c79hG+q6v2PpVbhPoUn0VQCAbRtCQ0+5FBTkHairuzee7c6252JNpZedMWPG4ebmxtVsjXiEQqFWYWHhz1lZWaupSfSZ9wIwAym91/NMHtR/gyBlK/iSe7m5uamEIMCEp6enqzBBSE3NCAkPP70SDBXZ7NjRIor6EeSAo4733tuo0Ng+cOCAoKGhMQPiItAXVFnjRV6CIBaLh/3xxx/bcnPvftnW1koGq6LXAT9D/40d61C1Zs3qfhGE1NTULX/8cXQXTJi9DeZgwhwDoZ17PJDdmgAAIABJREFUxVsQCoVhERER/hAVEAUsoo8t8C7w8Zm738PDXW7j25iYGF5tbV0l2HnQiRHCF7ReQGq3b9+uUD9K6i8gJ+rq6n+Fvi0tLSdjYYBnB4y54cOHD7W3t1uipTViHLT16VNxyc2bcUFQDxAp2IEaGnJJ2eATFvlRo7T/1NPTy2U+a9u2b7UHD37QKCmnC4xthQnCswciDR7U6ebmCnYNjlOmTFEqQfj88y9Fra0tVuSk8yxiIfkj6R4L9gcmd2bNmrXB2dk5QdY7ourv//Wv78VVVd1aKfocAfMD2GGZmlrxnZxsC1Uty0CvX+kv30AHRJr8sLMICtr/TUVFxVb0wrNZwOiTPQxOJydH4uHD9iHr16+XmI2O+fz9+/fzWltbKyHSH7X7k91lPReBp4SOjjbkhTjk7u6+lcvlUj5ujEtRDQIkhtHTG60EgpAWEh4eTmoQ2F5MgyRlEISgoAOClpbGDOZEI0smeQkC1Hf58mUI0hRSWAjz1aBeizjYYujo6Dx8++23vzI1Nf5WlgzM70NDTzyKj4/vEW8BjZGhQ4cQ1tb847Nnz/7IwsKih6dEQUHB5NDQ0DP19fUGTLngGaA10tfX379168dyEwQY101NLZWSJnJ4ryA18JQpkwlfX1/ZA54FIJWVlUuqqqqWgxalsrJ8sKbmCF8YY0B+IGQ52JpI0pTQCRG0F/oC4mugf2Aj8fjx41saGkNLR4/WJaytLQk9Pf2Dpqam17777jutjo7HjeDJ0PvigHcKMXy4Rv81CM8qRTKCW6y9vf1eT88pO5SZKyMzM/OjY8eO/19bW5sWc3MEz1ZXHwRRUvd//vnnco8DFl0nd5EjR46JIcOmtFgfEyZMIAwMTPizZ3tigiADXaW8fHL34AC9ITs7e2dk5LUd4JIlz0VfsDU0hhDr168vsLCwYJXZLCEhofD06dOWlD+17JwQ9AmNennVCTMzk3wfH59Ntra2kdLkxgShJzLPkyCUlZU5Xb58OSg3N3cyWIgzNQgwKUM/zp495+KcObN6pZDuayxWVVWdPHDgoO/9+/c5dBU3UuHDLtbOzvZv/v7+EiN9Xrx4UXTlyhUrNTUq9Tm60P1WVlZNkyd7bHBxcaGs8Vhed+6kFf7+e4glFEc2HvT3ZMgQdYjYWODi4sLqPZH22JSUFP179+rjcnNzR7e1teqCGy+8S52dVP4ReCY0C2SAiy4DWgzpf4MydPsN+B1IA9wPn8OHa8DCdE9f36DJ0tKKExcXx4dn9t5MKE4Q6P0B9UNUVHNzi1UrVixVarbNa9eEYZGRkf4QfZNpjwPYwZxmb2+3f9WqVS8FQbh2TSi+dOkSGRFV0iYOQszr6o7i+/v7Y4KACQLLGYtlsR9++OlCVVXlfGTd3tdtaKKHQUpXo44f70zMnj1b08jISGY++t9++02cmQlxxsHuQDafo1vAP7M2B9fDQ4GBb/RpG4AJwosjCPDkgwcP/lBaWvpRY2MTmaaXHiyKMgpUB+v0qwEBK14XCARU9B0WV2JiYsKpU6cn0t0V6QuejY31E2/vWZ+NGTNml6TqysvLM3755RfBo0fd4aehHBpnEI6WxzPcsGrVKrnOnvfuDRLn5UH+j+4xTdnWUEdokLtDR0e7XzkfMjMzh0RHRw8RCJzzb99O5paUlPRY1BEZQIs9dZTwtIskIBzoqvu+Ipd2t4EyEkSaPiAMQEbgs/elOEFA8qNQx46Ojo+nT/dcxefzj7EYGqyLHD16NCw9PdMfPIskaRA0NbUIT8/JB0Ui0YesK1VhQVdXt5aTJ0+RWiH6+ELzsbm5BTFixHD+mjVrMEHABEG5IzE7O++7I0cO/7WtrW0IcychaQFHOy00wVCL9mBizZp3Mm1sbBz7ki40NNQjJSXlFoT9pSdcYkNK0CJgamrStmTJ4m+srKy+6es+TBBeLEG4cePG+9evC3c2NjZpM8/k0aQMQa5mzpz5j0mT3FkHegkKCkrIzxdNpHbK3RoApJUwMjI6+dFHHy7ta2z8+OOPYjirlxThEtTaFhZm//by8vrKzs4OQi/KvG7cuOFx9uz5W8w0vWjBg09394l37e3t5jk7OxfJrJBW4Ny5c3oaGsN/yM3Nfau8vJx0H0WXpMWCrnFjPof+fjPvpcsKP1P1wCeVshtsSSSRju5nKIcgoPmFSi6ks3v79k97JQeTBz9JZX/99bew4uJif+RZxCxD2R/pEaD16alt6R5visrQ9/1Is0ptxIDIQB4Met/S+w+MxbW1R2CCwKJTZG9JWVTyv1bk+PGwyoSERB4zbwBdNSwJE/TywKQ6fvz4zICA5VIJglgsHr5//38Kc3LuGsJ5rKy66c+jvxienp6Zfn5L+iQicC8mCC+WIMDTd+/eLSwvr5jx9Cm1mDMJKBjJGRkZ/XvTpg3bORyOTBuWa9euzYyOjv5vS0ubmaTxAQlpFi58/aSbm2ufBCE6OubhmTPhVLpAxgWLg7OzE4SVdp82bRora/9z585VCoXRPDphQdXC3yAHhZ7e6FXvvfeeXKry/fv3a3d2inc3NDSshgVCWjAzJimg44xkYsqGtBsgJ1Kz02XuXoAogsA8Duz9/iqHICBy8iw76+7AwAClE4Sff94TVlFR4Y/IliSiRZEiyu2aIkmgNXleBKHnoERkmLlhQ2QKjmK0tIbzN23ahDUIMhZvTBD6wW7S07OWnj596gQyPpK205BUNdpVcLncxsWLF35ia2v7q6RycXG3dly+fPlvbW1tGvJEbUQTBsgE0fH8/PwXubg4n5XVTEwQXjxBuHPnjvDYseNkqFjmggK/wy7R3t7+7uTJU1fb29vcktWnf/zxR3Bubu56CBMuabK0sLC45+e3ZJmpqalEzxZUf25u7jtHjhz7jRmGG+2awQhWQ0PDfdu2bawIwq5duyqrq2t50tIhCwQCYvx4F6lJrqS1+7vvdp1qbm72hbNySYSavrulf4+0KWBwCJ4ZQMR64sUhnjx5TMAOGvoGjBtBdpTMCml4qPeU9HzoOiaiE4uecitOEOhER1dXl5g8edLuWbNmKp0g/PTTnrDKygrS3VXSuJQ0thAmssaoMr6nP0uaFpc+RxsYGBAaGiP5mzdjgiALf0wQZCEk5fsTJ8LEiYlJ5CTRU63Wd4WI3QLjB9uAFSuWS7QNOHDg4AWRSDS/vb29q0JJg5/5NPoOyN/fn/D0nMKqjzFBePEEoaSkxCo0NCytpqZaS9LuGiQ0MzMjzMzMl/r5Le4z0EtJScnSqKio4MzMzNGQUpru/YIm+QULXi+cNWtGj6RdkkZvRESEdkNDY2NcXBy5e+6p2aDcMKdOnSrS0dGx8/LyetLXG5CWlrY3LCzs3dbWB+qSFhbwDuByeYfffvutD2QlMULPaWlp0f/vfw+dLSkp9qC7cqJdLV0eZM9BeWAYEJaW5qS9w+nTp51Ac2FiYkJqMAiiZ2ymx4/biPv375O5SsAl0tNz+uzRo3X+XVd3j6ivbyDq6uognwhJIqizbzXSSE6y/QGlYVDUiwGNEegTIyMjSMK2e/z4cS+EIMgzB/ZzymV1myTND9o0wSdgZWNjQ4wcqcUPDAzEGgSsQWA1ruQulJGRsSUk5PAuRBDYBk9Cai6YqGCnNGuW92ZLS7MeoYnz8vJIb4n8/IIuueQ5YoCJF1jyqFHarN0pMUF48QQBJLh8+WojLMiSdtcwBiCWhqam5vIvvtgR1pcO99KlS+vz8vKCi4rgCL97UUeTJeyU16x5J9/U1GSMrMEPaX4bG5vrw8LC1EDNzNyJQ1RFMzNTiBEwbPXq1Q+l1ScWiwcFBQWdLyoqmvfkCaWKZx6lQKZINze33fPmzWW10EGdv/9+6HpGRsZ0+o6a/jPaYaLQ3XZ2dk+mT58RbWtr7S2r7fJ8X19fb1pbW/tjQUHBwqysHNA0qAOhUKWRIppPrK2tiblzfXbz+RascJOnXaBBqKgo7wqYJUmLgOpjs4mR59lsy0rSDjH/BnM0/Js/f37n2LF2NlwuVy77FrayvErlWO0uX6UGK6stQqGQW1tbV5SQkKAh7cxL0rPoExfsVPh8/mfGxrxdaOdVVlY2Oj4+/vv09IzVLS2tZBVSX7qugCXwQ3ecd5iQ3Nzc8g0N9cfK2tEhGTFBeDkIQnFx8bW9e/fNBDc8ujYILXIwwU2c6Aa7Xr6np2Q/7urqas2rVyP/lp+f9yksUBAzn1yMn/0PdY0dO5ZYt24N6/f/2LFjM6qra4UlJaU9eAk1Np+Savm1a9det7CwmCXtHYOshJcvX94BpAUIAvMsH+oyMTFpWb586RcmJiY/ynpXi4qKNIqLS3+8devm+rq6+q5kauidoS8QYPejra1dMGPG9IbJkyf1Ozy0LJno36elZSSfOHFiAhx59L6Uq0Gwt7d/tHDhwm8NDfW/lEdGNmWDgoLDSkpKSRsEaRsV0PxQ3iG0KEpsKldRGSbxhDkRbG5sbGwqra2t3nJ2dr6uoke/UtWyniBeqVYroTG1tbVaOTm5e6KjY1aB6pGcgGmGZbIeAWVh0ho71j7G1XXCGoFAQKoL0tLS/NPT08PS0tIJUA33ycifRVZEMdGRDHAeaWnJn/vmmyuuypIDEwTJCD3POAhMCYKDg8U5ObldYZHp31MhekfDLuhzF5dxOyVJn5mZOVEkKkyA3B1ANCAVQNfkzaHS8q5YsbTD1dVNg+34SE1NnZGXlydMSEjq4Q1BjbmnpAX7rFnexNy5c6XOKaGhoTvz8vJ2wPsCbrv0C43zSZPco5YtW+bFRq74+Pipqal3fi0oENmhowWmAR20G2xxLC0tUnR0tNf5+fmlsKlbGWW+/fZb7YcPHzUy05dTdStOEJCM0GYrK8sif3+/d7lcrtRYJ/1tU0hISFhOTp7/w4ftEucjIAd2dvbZnZ1PYjo7H5OJmwhCvb+PU8l9cKRka2tLmJiYXjY25v6pkoe8gpVigqBAp8bHx8/Pyyu4AOl66QZLfVXJJBGQ0c3Q0MArICCANBQLDg72r6urC4NzTeSV1qcGgdGDMPlbWJj/OWaMzaY5c+ZQcYJZXFiD0BOkF0kQTp48uSMu7ubOrrDaz2IDIC0CEMslS5YQkya5S3x/jxw5MrG29l5CaWnps3QdyA//KZl9D2IXLFvmv4nP55MhhNlcpaWlRrdu3foxPT1jaVsbZQRID5oDigQej0esW7d2go6OTq9FuLi42OXmzZsH0tLSxnd0oKBflHYM7fS1tLQ6VqxY9rFAINjLRqbg4F9X1tXdC4Hzf0n2DFAHGHaOHTs208rK5p0ZM6YksalXWWWAILS3P2psbm6SUKVyCAJgBzYgXC43auvWLayIlbzt+/PPP8Nu3UroIw6CJuHiMmG/n9/ilyJQkrztw+WlI4AJggKjA85mY2Pj/llQULARjJPYahDo5WBimzdvfi6PZ+D25MkT7cLCwuj4+Hj+48eU9kCS77kkkVGd4I9sbm7xfmDgin0cMuUauwsThJeHIOzb95tVW9t9EUrOhdJ7g4QwJmBhBvuV1atX9Xp/hUKh+uDBg9POnj03loqfISYGgU8+qd2i3Cc9PT3BSEtn9uzZklYuqQMmKirqo9u3U36oqKjsciFEHjZogX7jjYCrbm6uc5mVxMTE+Ofn54dB0C8Utpm52x87dmzzwoULjLhcbpusUZucnMwvKiqKSEpKtkRBoJgkAX43NTWtMzc3neLr65snq05lf/88CAIyuuRyeVFbt25WCUFITk4KO3PmLBlJUZL9AZAwPT29/Z9++gkmCMoeRC+4PkwQFOyAjIyMHVFRMTtFIlEvv3VpLjfokWj3BJbTI0Zo6qirq+s2NTWJYOdHplV9trzLMvxBLy3ySZ88eeoGa2tLuSLbYYLw8hCExMREq8rKKlFs7I0ugsh0dYVjpM8/39Hr/d2/f/9gTU2tR7dvp3Tt8uGIQUzAmT+HPIfV0hrpvW3bx9fkHfolJSWjjh8/ebC2tmYx0pjRF4xnibIyN23a0Cvuxt69wf4NDfVhEJ8ALrq1OdwHi4y/v3/TxImuOmzkOn36tKCmpjYjN/duD00G3cYH2rpmzZoqS0vzfiW5YiNHX2XoBIF5Jg7vt6JeDAhHIJA8Hi9qyxbVEIT6+vo5P/30y5Hm5mY9NGfRPVmo5xvFvPvumvUjR47slbRKURzx/S8OAUwQlID977+HhGVn55BWvvSL+TKhF5r+cqEd4Zo17xDg0njo0CEy2AiyPO9LK4GMI+EFBZcqsEy3seHvf+utt+Rm8pggvDwEAYwMExMTv0pMTP6YngkQSYjGxGuvvdbk7T2zx4KalpbmEh5+9jace5Pj4ynYH6gRnU/hbFiNTIXN5Rp4LV26tM/YB9Jei7CwUyF37txZCWOVTlrQz1wutyMgIGC3ubnpdlRHenq6VXl5hSgy8npXpEEmSQDN14YN707U09NjdQxw9uzZRYmJieH0GA90cgCkAwwx165954XNcRRB6GhEicfoRpPKskFARz1GRkYqIwjQV99880/RvXt1VpI0CDCHQYI0Nze3De7ubnJtTJQw/eIqVIjAC3t5VNim5151enr6e+fOnftnQ0PjCLSzomsJ+hIIveCgMgY/akp7wK5b6BMi3GNsbFQ3e7b3Fmdn5xB5QcAE4eUhCCDJqVPh/mVlpWEojwD9qAktNGZmZu0rVizzNTIyuoykT0xMEoeFnSQJIzk+xINI7QFnEJXwafz48cXOzo6+Dg4OqfKOESifkZH1lwsXLu6sqakeyVyQ4XeI7+HiMuHQ4sWvd8X3OHLkiFV9fYOImeQMtQM0G9OmTSMWL17EbuATBJGSkvLg0KFDw4BISyLl0NYlSxZDRkjWdfYHD9kahA7SSJG+WaBwU44GAZ4PdfN4Rio7YqDG45+iGzdirJjho+lHmzye0YZ33pEvJ4eyMcf1KReBF/byKLcZL762I0eOiG7fTiUZNn2nwMYuAcrAhAaf0qLLSWoheg58amhoEF5eMxJ9fOb2y4ULE4SXiyBkZmZaR0XF7isuLpqNstLR1fKwKECfBwQsj3Jycuo6ez548L/ijAxI7iUmOGTqaFhA4D+CPF7g8/n/8vGZ839szvmljLlhQUHBt0WiQns6GYYdO/wOBpQODg45c+fO28Tj6ZNairi4uP+eP3/hbUirjDQH3SRYTMo1a9bMr2fMmPEF2zdZKBSKw8PDyYBEvRdfCpvAwICzAoFgEds6lV1u27Zt2hyOWiM9H0R3+wcWQcjLKxD9+uuvVtDHdM0Rmt/AS8DdfeJ1Dw/31cbGxuALi69XAAFMEJTUiZcuXXKLjr6RCK5AzB2NrEcwCQXaFbC9DyZnAwODJwsWzHcTCAR3ZN0n6XtMEF4uggDSHD1KuQWikN5oMkbGq7AY29raRK1du5YkCIWFhSH79gWtBONE0q2RdCXkUBoEDgHeLYSHh/tmd3f3HoG55B0vUVHRGWfPnhMwtRpo0beysgJDyM3jxjmRzzl9OlwcFwf2FN05JrrHPAHppgldXV250u+Gh4eLhUIhMWhQd4Ig1A5oO8QYcXObMM7HxydN3vYpq3xCQtLN48ePT6ITeVT3QNMgVFVVuYWEHE6srq6W6DECfW9rOwY8styXLFnCKuS2snDG9agOAUwQlIjt2bMXxBERVwk1NfVnSUu6E+709Rh0zIDStrIVCU08oH2YM2f24zlzZveMD8u2IpysqRdSL9LNEQlTWFi88+rVqzvy8/O7NEtMMmlnN6bztdde+97U1PTTY8eOZdy6dUugpjaYrALsD0hjV6KTtD/Q19c/6u09821XV1eZiZ76Gjo3b94cdunSlQfIc4d81rMYIPAJQZN0dUdt3rx5M0kQvv/+B3FlJWSDhOmGeidQOyCz6fz5PoSlpRXf3Nycdejbo0ePihMSEkgNAlwokiki1+Byqa09wmj9+vVVcrwGSi164MBBcUZGxrMkRpRHUneqaeW4OXa3V7VHDPCcEydOim/duiU1SyIcFQUGBrQ/fSrWVnSMKbUjcGX9RgAThH5D1/tGMErq6KDOHJ+SxmGDpGaUY97NtCdgJxaVYlZbeyTx5Zd/V6gvsQahJ+IvA0EAifbuDbpQUlIyn54aGS3I8AlBkyZNmrRbW9vwXydPHo7p7Hxq031MBTt2KPUUoggSkydPPjR37lyJuT/YjbfuUmfPnhULhdFd45uu5oeFEFwpJ0wY79XR8Tg8ODhYGy1kdDIBZAESPY0aNWrpBx980GduCaZ8oaGh5GIFBpgoFTpdwwIGu5MnT53s7T1DZlIredvOpvyVK1cso6JiCuF4QZL9yEDTIECbS0qKU37+ec94wBu1id6vMAbACHbKlOkOLi6CbDY44TIvNwIKLSovd9Oev3QQQ7+pqakRJi4gCGzsDxSTEoLVcAhXV9dLAQEB8xWpCxOEl5MgxMTcuBAZGTm/paVFYvfCMYOVldVxJydn7YiIqz7gRtgzvgAQVTEcQTWtWLHiMwsLi32KjBN0b2Fh4fFff/1t2cOHDyWOc2NjY0JXV9+ro6M9PCcnR7t750zVQGnNOIS9vR1EuFs6bdo0uQjC+fPnxZGRkV0aBLQ7R+8c4PL22ysf2NvbayqjvfLWERoaJkpKSiTP7OmLaHc9A0+DAPNbTU1tY1JSctfmB+W3oOM+e/Zswtt7Jl5b5B00L2F53IlK7JT8/PyhJSUlP8fG3ni3ublFriyP/RNDTPB4XLAcd9y4cSNEoOn3hQnCy0kQ8vML/U+eDDtYW1s7QlrnWlhY3NfX1xuUkZGpLWnBhlDIdna2mRs29I5P0N8BA/EWHj168gjyKjBjNMBiAeGNra1tjmVkpPtyOJyhTMM2IAeUQePY6zNnztxkbGx8Vx5Z4uPjxUePHiM1CPQjC/QzLFwLFswnvLy8nvscd+nS1TeTkhJ/aWxs1JGeqn3gEQQ0v8XEwPzW3MM4FJE+wF9TU4twcXHe7Ovrq5CtizzjgV4WMpi2tbV9kpeXRxqrQvbGcePGfdrf+v6X73vuL8+rDnZSUtKMvLx8YXLy7a6dElu3RXmxgUnW03MqqPUcnZ2dMUF45vIFPtnvvbdRobH9shwxwJg4c+bPyujoaB5zJ4p2bRALHxZEUGcjjwc0lmDsPXrUQWzcuCHTwcGhVwAjecccKp+cnDy4oaHx0eXLlyXkZqDsDEDNDxoNdNRGT85EGdbqEe7u7v/w8vL6m7xynDt3bl1UVPR/INcEXMiLAj0D8LC2tiI2blRsHMgrV05OXkB0tHB3fn6BoaT8EANZgwCy37qVNEMkyhempqaSxJDpWYN+Nzc3a5040e3rKVOm/EteDBUtf+bMmViRSDQVSAyMB/CSsbW1Pf7666+vULTu/7X7FZpE/9fAYtNemDizs3M/KSoq2omSONEndmUdO0A9MAGbmBi9t2bNmv0cDofSZfbzwhqEnsAhglBZSaWzYEvy6P0L1vw2NvxVPj4+h/rZLeRtsbGxo65ciWigB02SZLPC/BuarE1MjAg/P79RlpaWjYrIwbz3xx/3zK6pqbpK11rQ2y9p8aDv8HV0tCPnzfNZ5OrqKindYZ+iBgUFCZqbmzOqq2u7ytHbD3+E3ePy5Suyx493clBmu6XVVVFR4Z2SkvpnXNzN4ci1Ufr7PvA0CNBumN9yc/M+EYlE5PzGdDFFRA0Imr29XceECS5/dXFxCX4e+MMzDh8+XJiammoJP4PXDGyi4Bo2bNjTxYsXh7m5uWGSIEdnYIIgB1hsi6alpa25dSvhp/z8fE2YINA/touMpOfQJ1t0nuvk5Nji6Tl1NZ/PP8VWNmnlMEHoTRCam+9nVFVVsSYHUIMqCALUGxJyWJyent5lHEb3ZmA+F3Z26GwYNAorVix7NGXKlKGKjhHm/RcuXHAtK6uIy87OHgLPY8pBL0/HBeSDIwiBYOzFwMDA1/ojV1xcnKC0tCwjMZEKvCiNMPF4vA5/f99v+Xz+3/vzHLb35OaKXGtrq5KuXbtGgL0I2B6gHBpd7z2ZlR2lRxlYcRDoOLS1tRkdO3bst7t37/rAIgz/0EU3FEXRLE1NjZffuHHj5FdffUWpe5R8paWlaQ4frvltfHzChjt37qgjbzD0jsAnaNkMDAwvfvzxX/s13pQs8oCpDhMEFXXVwYO/hxQUFKyEBCc9jcbYuT4yxaIvCEh74OTktNvXd/FmZTQBEwTVEAQ+n79q/nzFNAggWXJyStWJEye4zHDe8J0k4onGC2iZNmx4dzeXy1XKOKGjdO/ePZ5QGPNLUlKiX1fkRilRQJk76eHDhz9ctGjRNxMnun7dn/FbUVFhlp2dfSY6OtaltbWVrIKJAzwTXIANDQ1u6+hov7Vu3bqc/jxL1j1CodCnvb3j0vXr10ligAgaYEISJ9LNAlgMFZcCvDfA/UgZuRhQu1UdSZGJQWpq6oc3btz4P5FINBJFs2R6ssA9gD+fbw0/Bvr4zL5nZWUVIQtPeb5PT09fnJeXN6OiovLDsrLyLvzpmUYRRoaGBhe3bfsEEwQ5AMYEQQ6w5CkaFxe3SCiM/k99fb0B3MdUt8pTFypLn2RNTEyK589fsN7e3uZqf+pi3oMJgnIIAuprmCytrCxhclQKQcjMzF4bHh7+K5zpS3Ixo48R9DPI4OTkRDx69HDI+vXrFYp9IG2MhYWdWi8SiYJramq6ikhTq9N3dFZWVlUffvgXhZIoXb8evTI3NycE4kRIeib8DRZo+Ddq1Kgbnp6e101NjX80Nze/r4x3RiQqmRUXFzutvb19c0FBgRYQAmY/kAsVucN+NtUCSeCQASoGNEGAdh4/fnzD3bt3gxoauk+uEEljanQgcJWd3Zj7nZ2dGwMCAo4rin9tbe2qq1evWqmpqX0Bxoj37zd2ubvSY2Kg54AGwdl53MU33liOCYIc4GOCIAdY8hYNDz+XERMTTUac67K0hvkBTRYyKmS+ZMjSXKdnAAAQ3ElEQVSVCya8adM8oxYufF1p6V1FokLx77+HkOpR+k5AVpuRjPBS6unpHtq+/VOF/OxTU9NCwsPDV6IEN7KeT1+QQZZnGQWVYqSIjhjQDoSNLKoiCDExMbzq6trKmzdvSgwtzJQNxgp4CSxevJgYOnTwEFUFrsnKylkfHx8fnJOT02UgKYsggKxvv726atw4R4UIQnl5uUliYtKeO3fSFjHdQJlHMJQmwRBI27XJkyd9xOVyM9j2J7NcZmYRt6Wl9j+pqal29+7ds+lKjIXSrxIESUqmTJlCgDFfa0srQYi7c0aIOZDKXTlHDGjMP28NAsJk3759i+vq6s80NPS0R5C0KVJXVyO0tDSr9PT0kqdOnQo2VKvkIWtisXhwQUHBksLCwjdLS0snVVSU67W2tpHjjpxVORTGzL6H+Qw8fQSCsfNmzpyZ0N9+/1+8DxMEFfZ6XFycgVAYXVNfX09qFZ+FV+zaTLB5NH2yRZOBvr5+i4fHRCsvL686NnWwKZOYmPj6hQuXztIzz7G1mQC5IBY7l8s99PHHHylEEDIyskPOnDm9EgygUHvp2hdpbUE4wcQ8ZswY4t131yo0tkNDTwvq6qozYHeCzvNl4QEyoF0rLNDgXsXnWypspAhtPnHihFpVVe0b1dVVhyCTIlySAnGBjChQEpfLJeztbRcsWrToIqXXVv4FmSdDQ48HV1fXvAmGebLIAchnbMwjVq5cyTMwMKhWVCLwzc/KyrlUUVExCYJJ9UXmYP0eNmwooaU1os7JybHDzs7+Vxsb/ldsZSgrKw/LzMyalJWVpd7S0mIIRqN0rQEVJZJKXT1r1izi8eMO++TklBzynXqGPpoG4JnUEcMw982bN/cZmrigoHBnREQEGVGT/i7Qz/tVnc1RGkYnTojVuNzY0MjIa/4oKRXVB9RijY5b0JiEMQvvk6bmcDAirTY2Nu2kQjQb/mJubvod8znV1dX/bG5ufSMvL1etpKSMU19fp9XR0TESDGMpL4ruO9D7iTZS1CcHXGnhmbzVq1crPN7YjpVXpZxCk+irAoIq23HlSkRtZGSk/pMncDZJ8lsCwuSzuZgaBHSmGhj4ZsH48U42bOpgW2b37t28trb2SiAzaGGW7sPdXSsqCyo8a2v+oTVr3lGIIBQUFP5y8uTJDdXV1eowkbBJXkVXXcPkDLuTJUvYZwaUhJFQKBSUlpZn3Llzp98Br2xtx3ROnjxplZOT0xG2/dBXuatXr87PzxddKCgokBpjg06qXF1d22xtbaa5urqmKOP50uqIjY3bJxQKNzQ0NHD66jM0cc+aNZNYsOA1pc09xcWlZ44dO7aorq6Og1zv6Dgwz8ZhjMDCDmPWwsIMXOAIMzPzp4MGcU6LxeIqDoejKxaLwbBh7YMHDwaJRCKioKCQgDwEcB+QYaY7KVqMoM5x48Y36evrOiclJTV2dDxuRLk0EH7Ue81eg4BCbgNZZZJltCi+KA0CatP333+/qrW1Nbi5uVmDIspU9/Zlf4XsBNC4gN91dXVJ7xMgAEA4wOYGvkcaMaibfsRGx5T5vMGD1Qlzc7PGIUOG2K1bt677DEyVL8MrVrfSXtJXDBelNQcCynR0PCYDylAhYWVXTVeR0UkCTGzOzs7EW28FsqhF9nPoJQ4fPsxramqpBDnRoixtNyip5pEjR4JP+6H5830UIghQ908//ZxRUlLadTQjqyV0vACjZcuWQaIehTAqKqqyyMpKOSsURjn27c/eWzqkUbG1HRO3YMFrGxVRZ9NrLy0tdYuPTziSnJxs8+jRY4lHQajPhg/XJCwsTD9Zu3btjxwORyX2B0i26up7K44dO/pjaWmpoawxM3z4MOLNNwOF9vb2M2X1qzzf371bcCoi4qov9Z5Ri4i0xYm+8+7spNTTEExKQ2MYZVT4bLsPGhEqEiKor6l/9AWa/jvlb68Jrn2FlpaWqzw8PG5A6PX29o5G5nEZej5bDYI0goBkgWebmBhHbd78kdKOHOXBHspWVlYOj4iI+EtlZeX2uro6bSAIzBDTdPsE5mJOX+gRuZMkQ1/jiz4PwHxkY2Odz+UaBnp7e1OuLviSGwGFJlG5n/Y/eAOohg0MuAdiY2PfBgMzthedGKB74Ax11iyvoIkTJ25iWw/bcsnJybza2rpKsMSmpxdmo1aHMvr6uvd8fX032dnZyRUyV5J8Fy5czIiOjhEgi302MqAJR19fn/D39/95zBjrD9m2XVq54ODglXV19SF1dfWsXB3pfQbeAwKBYLe/v69SvQcOHjy4o7S0bCfsSrtx6f0aW1hYEGPG2G6YN2/OfkVxYHP/2bPnE2JiYibSU0DT70PYWFtbEyNHahm99dZbSk+ilJ2dty8h4dbG/PwCor39Qa+069LaATiiXSx9oZJki0NfhOhl4ThHIHAQmZubbXR0dCQt9YEgPHz4iMzNQi+LxipbggBHDJGRkTuYGgT6YmlsbBK1ZcuLIwiofVeuXNlYU1OzJzc3bxDKQyEJM+bYQJhIIgDMv/VFEoAscbm8B5aWFn/a2tr8x9HRkUw5jq/+IYAJQv9wk+uuEydOjK6qqvlnVVXVu+icFr0QkiZRSX8DRmxqavyDqanpF3Pnzm2TSwAWhYuKxBr5+de+SEpK2n7vXl1XNkq6nPQFkD55cjhiYubMmZkLFixQSqS+5OTkORcuXLpCN/6S5SqKdu1w9qunZ2Lk6jpW4QUoLS1tZXJyckhWVnbX8RBzF8TEB36HScrY2CjLy2tOoIuLQKnphrOzs7dGRkZ+U1hYqE7J0vO8CnCAXbCjo1PN1KlTN1hbW4az6H6Fi+Tk3N1+/PjxnU1NTYOkTeiAy9SpnpecnBwC+Hx+96qp8NOpCsAeAhJbZWfnrigpKfFF8QiYfUTfoUqSFam+mZo8SX0NRwpwRPH0qXjZvHlzqoyNjW+g5jA1CPT3h1KnjyaGDdOQaYNQXl6+88qVKzuysnIkakagvw0NDaI++WTrC9Mg0LswLS3NLyoq1pwgxP8uLS3tirjIfIfppADdz7SrYWpsUDlm30DdMEdOmDCBaGtrWQTGiIaGhvhYQcF3CxMEBQFke3teXt7q5OTk4JSUO0OYIUphsKNJS9KkBGdy2tra+4yNeZ+sXLlS6eQAteHcuXPDc3Nzv25ouL+5vf0h+Wfm7p1JEuB7W1sbYvz48WYTJ04sY4uHrHK3b98Wnzx5mjyLhEvSREH/G0wsYBQoEDiumTp1UoiikSXhmbm5uSOKi4t/SkpKWl1X19BlrMiUnSkbqJqXL18aJRA4Kn3CLioq0omLizualZU1j4qxQeUioGMEmRsdHQWH/fx813M4HMqiUcUXLM5Xrly5n5GRORiFP2aOZQiBzedbL503b84pDrBKFV2XL18ebWRkciohIWFGYWEhgWKR0EmtJA0d88iA7n0EEFP3UJ/q6oNhUYZMmmCUOMnDwyOe2Zz9+/drt7a2NZaXV3QZ66E64VMgcCBMTU3cfXx8+jRSLCsrG33+/PlTRUXFMyhbJppXFBUlkJg40T1qyZKFSh9v/e2iEydODLGysvmgtrZmF3hy1NXV9Wk3Qx/DzH6SRCTo8xK0H8bW8OGagQKBfYKjo6Oov3Lj+3oigAnCcxwR1dXV3wiFUetv304ZTbd+RoMdRQCjizR48GCxq6tbvre312e6uroKR0yU1dzy8vKPhULh52lp6SOePOns2p7SZURR8+Cs1sLCvFVDQ2O0sv3sIaRrfX19g1AYpdXR8ajH+S9zcn8W1/+xQCDYvmDBgn/LaqO834eHh59PTk6e39zcyoFnSdJmoJ07WGcvXryozMXFxUze58hT/vvvv79TXV3tTBlwUUQOyWBiYhT70UcfTZOnPmWV/frrnS0NDfe1UH2or0aOHPnEwMBw+3vvbfheWc9iU092di5kV1UvLCwc1t7ePoi5uEpbjHrK3207BO+osbFxk4eHBxDSr3k8ntTxlp+fP7K4uLjy8uWrmsiuBx1lDBs2rFNHR2fDJ59sOcCmHfn5+WFnzpz2q6qq4YCBI70dJiYmZVu2bFbpeGMjo7QylZWV51NSUqdmZWUNqqmpGdHtUAMeN+BpMKhHJExJ3jloHNH7C9x4x40b12RpaRnq7u62QREZ8b2SEcAE4QWMjNOnz0QWF5d4tLa2asJZ6cOHHaQ7DjKEAkM7MDIbNIhT4ebmljBnzmy/5y1mcHDw0cbG5gDYfcEuHiY4pOUAtaqmpibB4xnmjRgxYpG/v3+uKuS7e/eunUgkCrp9O3XMkyePjcDnmb5b19AYSlo86+rqFQoEgsPTp3uqLJxudHT0+eTk2zNaW9s0wc0Q7COAKAHRAxlgF8PhEFlLliy+JxAInstObs+ePbHt7e1TYVcJBrAgx5AhQ6+/8cbyL0ePHt2l6lZF30irc9euXZaDBqldfPKk0w5FEhw8WP3hqFGjf169etXXHA6HCnv4HK+GhgZBfX3jlwkJ8Xp5eXc1tLS0PKD/4Ljv8eMn5Nime8sgEghW8DDW4d+DB20Furq65V5eXoSjI3vNUGJi4riysrKwwsIiaypnBdlPLTwe7/i8eXN/0NPTYx3dsbKy8tThw0e4gwZxJoPcVH8PSXj//U0ezxHOfj8qOzub19TUdDQ+Ph7eHyexmBgNcx+Mk8ePqU0A3e4ItDSgsVFTUydjekB/dHaKITlKnqurK5ADgsczeC7vWr8bPcBvxAThBXVgSUnJJykpKYagAgWDsydPHpGSqKsPIfT09AhI9DNu3Lg4U1PT0y9IRAjv+++MjAyipKSEgEURJk74Z2pqClHRIPjISQsLi1uqli82NnZpWVmZBxhpIcMnmDAAJ4h54OHhcX7UqFFCVctRXFy8NTk5mSsSFRFgmY52g2CQyOdbEXp6vJBp0zzSVS0Hqr+oqEjjwYMH/yDjbJB+9fqEg4P9x8/r+dKek5ub69rU1BIAx1RPn3YSZmZmDdbWVv940XLB8+/fv69TVlb2eUlJEQHHRvDutbS0keObIKhUARQBHgFp1Ak9vdHkeB81atSfY8aMielPG2pra6eVlpYugvN4NbXBkGCtbMKECT/2py7QSnR0dHx5/34TKRtBEN/Y29tTA2AAXWVlZeuqq6vtysrKyIyfYC8CfYACXsEmCTYhQMLhyAzsC4yMjMANMt7BwSFsADV1QIuKCcKA7j4sPEYAI4ARwAhgBFSDACYIqsEV14oRwAhgBDACGIEBjQAmCAO6+7DwGAGMAEYAI4ARUA0CmCCoBldcK0YAI4ARwAhgBAY0ApggDOjuw8JjBDACGAGMAEZANQhggqAaXHGtGAGMAEYAI4ARGNAIYIIwoLsPC48RwAhgBDACGAHVIIAJgmpwxbViBDACGAGMAEZgQCOACcKA7j4sPEYAI4ARwAhgBFSDACYIqsEV14oRwAhgBDACGIEBjQAmCAO6+7DwGAGMAEYAI4ARUA0CmCCoBldcK0YAI4ARwAhgBAY0ApggDOjuw8JjBDACGAGMAEZANQhggqAaXHGtGAGMAEYAI4ARGNAIYIIwoLsPC48RwAhgBDACGAHVIIAJgmpwxbViBDACGAGMAEZgQCOACcKA7j4sPEYAI4ARwAhgBFSDACYIqsEV14oRwAhgBDACGIEBjQAmCAO6+7DwGAGMAEYAI4ARUA0CmCCoBldcK0YAI4ARwAhgBAY0ApggDOjuw8JjBDACGAGMAEZANQhggqAaXHGtGAGMAEYAI4ARGNAIYIIwoLsPC48RwAhgBDACGAHVIPD/G2xfSjLolz0AAAAASUVORK5CYII=;" vertex="1" parent="1">
          <mxGeometry x="-210" y="80" width="200" height="125" as="geometry" />
        </mxCell>
        <mxCell id="xXsEObeVSqV9C6Z43QaJ-14" value="" style="edgeStyle=orthogonalEdgeStyle;rounded=0;orthogonalLoop=1;jettySize=auto;html=1;fontSize=18;" edge="1" parent="1" source="xXsEObeVSqV9C6Z43QaJ-5" target="xXsEObeVSqV9C6Z43QaJ-13">
          <mxGeometry relative="1" as="geometry" />
        </mxCell>
        <mxCell id="xXsEObeVSqV9C6Z43QaJ-15" value="WILL HAVE" style="edgeLabel;html=1;align=center;verticalAlign=middle;resizable=0;points=[];fontSize=18;" vertex="1" connectable="0" parent="xXsEObeVSqV9C6Z43QaJ-14">
          <mxGeometry x="-0.2324" y="-4" relative="1" as="geometry">
            <mxPoint as="offset" />
          </mxGeometry>
        </mxCell>
        <mxCell id="xXsEObeVSqV9C6Z43QaJ-5" value="" style="shape=image;verticalLabelPosition=bottom;labelBackgroundColor=#ffffff;verticalAlign=top;aspect=fixed;imageAspect=0;image=data:image/jpeg,/9j/4AAQSkZJRgABAQAAAQABAAD/4gIoSUNDX1BST0ZJTEUAAQEAAAIYAAAAAAQwAABtbnRyUkdCIFhZWiAAAAAAAAAAAAAAAABhY3NwAAAAAAAAAAAAAAAAAAAAAAAAAAAAAAAAAAAAAQAA9tYAAQAAAADTLQAAAAAAAAAAAAAAAAAAAAAAAAAAAAAAAAAAAAAAAAAAAAAAAAAAAAAAAAAAAAAAAAAAAAlkZXNjAAAA8AAAAHRyWFlaAAABZAAAABRnWFlaAAABeAAAABRiWFlaAAABjAAAABRyVFJDAAABoAAAAChnVFJDAAABoAAAAChiVFJDAAABoAAAACh3dHB0AAAByAAAABRjcHJ0AAAB3AAAADxtbHVjAAAAAAAAAAEAAAAMZW5VUwAAAFgAAAAcAHMAUgBHAEIAAAAAAAAAAAAAAAAAAAAAAAAAAAAAAAAAAAAAAAAAAAAAAAAAAAAAAAAAAAAAAAAAAAAAAAAAAAAAAAAAAAAAAAAAAAAAAAAAAAAAAAAAAFhZWiAAAAAAAABvogAAOPUAAAOQWFlaIAAAAAAAAGKZAAC3hQAAGNpYWVogAAAAAAAAJKAAAA+EAAC2z3BhcmEAAAAAAAQAAAACZmYAAPKnAAANWQAAE9AAAApbAAAAAAAAAABYWVogAAAAAAAA9tYAAQAAAADTLW1sdWMAAAAAAAAAAQAAAAxlblVTAAAAIAAAABwARwBvAG8AZwBsAGUAIABJAG4AYwAuACAAMgAwADEANv/bAEMAAwICAgICAwICAgMDAwMEBgQEBAQECAYGBQYJCAoKCQgJCQoMDwwKCw4LCQkNEQ0ODxAQERAKDBITEhATDxAQEP/bAEMBAwMDBAMECAQECBALCQsQEBAQEBAQEBAQEBAQEBAQEBAQEBAQEBAQEBAQEBAQEBAQEBAQEBAQEBAQEBAQEBAQEP/AABEIAHYBqgMBIgACEQEDEQH/xAAdAAEAAgIDAQEAAAAAAAAAAAAABwgDCQIFBgoE/8QASBAAAQMDAgEHBwgFCwUAAAAAAQACAwQFBgcRIQgJEjE2dLITIjVBYXOzFDI0N1FxcrEVGVZ1gSMzQlJXgpGTlJbTFhdD0dL/xAAbAQEAAgMBAQAAAAAAAAAAAAAAAgcDBAYFAf/EADsRAAIBAgIGBQoFBAMAAAAAAAABAgMRBAUGITFBcYESM1FywQcTNDVSYYKRsbIyREXR8BQiJKEjQvH/2gAMAwEAAhEDEQA/ANqaIiAIiIAiIgCIiAIiIAiIgCIiAIiIAijXVflDaW6NxmLLb6ZLmWeUjtVC0TVjx6j0NwGA+ovc0H7VjxblFabZLFE6atqbPJM1rmx3GIMB3G489hcwfxIWhXzXBYaqqNarGMnubt/OB6NDKMfiaTr0aMpRW9Jv+L3nPVXlEaV6PxvhyjIGTXQN6UdqoQJ6t/DhuwHaMH+s8tHtXS6ccqLBc6oqWpudNUY86sb04flbw+ItPV0pG8Gn8QA9pWtXK6yS4ZXe7hLUuqH1NyqpTM53SMnSlcekT69/tU3YH2Ns/dW/mVweb6X43CyjUoJdG9rNXuve9vytzLDynQrA4mnKnXcnK17p2s/ctnzvyNj0M8NTEyop5mSxSAOY9jg5rh9oI6wuapHh2pOY4LKP0Bd5G03S3fRzfylO/wC3zD8372kH2qfsI5R+K38x0OTxGx1rth5R7unSvPsf1s/vAD2le3lOmmX5janWfmp9j2PhLZ87HPZxoRmOW3qUF52Hatq4x2/K5LyLhDNDURMnp5WSxSNDmPY4Oa4HqII6wua7BO+tHGNW1MIiIAiIgCIiAIiIAiIgCIiAIiIAiIgCIiAIiIAiIgCIiAIiIAiIgCIiAIiIAiIgCIiAIiIAiIgCIiAIiqfy7NXM8wGkxvGcMv1RZ4r3FVzVtRSkMne2MxhrGyfOYP5QklpB4DjtuDq4zFQwVCVeaul2e92NzAYOeYYiOHpuzfb7lcsNqdqRjmk2GVub5S6c0VEWMEdOwOlmke4NYxgJA3JI6yAOJJVf8K5a9xy01lxOn9PT2+GqMEUPy9xm6HRaQ5zuh0d/O6gNvVuetV+1XynJ7lphT2255Fc62ldLSSGKpq5JW9INJB2cTxXT6Mdnq7vx+GxVtmmmGKxOH8/gW6aTtuevmnq5FoZVoVhMNW8xj0qjavvStya1nkdacjOX6rZZkroXRfpC5SPEbiCWNADWtJ9ezWgKZ7d9ApPcR+EKv2a9rL132bxFWBt3o+k9xH4QuVzupKtCnVntldvi7NnX5NSjQlOlDZGyXBXSK2Vn0yo96/xFT5gfY2z91b+ZUB1n0yo96/xFT5gfY2z91b+ZWTOuohx8GQyjrpcPE75ERc2dAelw7UbMMElBx67PZBvu6km/lKd59e7CeB9rSD7VP+EcpDFL90KLKIv0FWO4eUe/p0rz9vT2HQ/vDYfaVVtF72U6S5hk9o0Z3h7Mta5b1yaOezfRjLs5vKtC0/ajqfPc+aZf+CeCphZUU0zJYpGhzHscHNcD1EEcCFkVOdH81yXHsws9pt11nbbq+uip6ijc7pROa9waSGn5p477t2PDjw4K4yuHR/PaefYd1YwcXF2a27r6n2ckUxpFkFTR/EKjKakpK6ez5rt5sIiL3jnwiIgCIiAIiIAiIgCIiAIiIAiIgCIiAIiIAiIgCIiAIiIAiIgCIiAIiIAiIgCIiAIiIAiIgCo9zjfpvBe53HxwK8Ko9zjfpvBe53HxwLxs/wDV8/h+5HvaM+s6fxfayIdSvq9pvx0vhWPRjs9Xd+Pw2LJqV9XtN+Ol8Kx6Mdnq7vx+GxUn+my737F6fn490jfNe1l677N4irA270fSe4j8IVfs17WXrvs3iKsDbvR9J7iPwhZM26mjw8EQyzrqvHxZWys+mVHvX+IqfMD7G2furfzKgOs+mVHvX+IqfMD7G2furfzK2M66iHHwZgyjrpcPE75ERc2dAEREB6HTzt9jn71pfitV4lR3Tzt9jn71pfitV4lbPk69Frd5fQqDyk+l0O6/qERFYhWwRFqwunO96s0F0rqCPR/EnMpaqaBrnV9Tu4MeWgnh69llpUZ1r9DcY6lWNL8RtPRap/1wurf9jmIf6+p/9L02l3Ot6oZ5qhheB3DSjFqSlyfJLXZJ6iGtqHSQx1VXFA57QeBc0SEgHhuFleDrJXaILE05OyZsyRYaurpaClmrq6pipqamjdLNNK8MZGxo3c5zjwAABJJ4ABa6dcudxorReqiw8n7B6K+UtLIYzf766VlNUEEedBTRlsjmHjs574yf6u3E4qVGdZ2gjJOpGmryZscRaj7BzvHKApK9sl/wXArtRh+80FNBV0cvR+xshnkDf4scr7cljljaZ8qe0VLccZU2bJrXEyS6WGuIMsTXEgSxPHmzREgjpDYjcB7WkgGdTC1KS6UlqIU68KjsmT0i8dq1q1gmiGCXHUbUa8i3Wa3BjXObG6SWaV7g2OKKNu7nvc4gAD2kkNBIoTe+eNgFze3GdB55baHkMkuV8bDUOZ6iWRxSNaergHnb7T1qFOhUqq8ESnVhT/EzZOiq7yYecD0i5SN5ZhBoq7Eswla99Pari5r465rG9J5pp2ea9wG5LHBr9g4gODSRaJRnCVN2krEozjNXiwiIoEgiIgCIiAIiIAiIgCIiAIiIAiIgCIiAIiIAiIgCIiAIiIAqPc436bwXudx8cCvCqPc436bwXudx8cC8bP8A1fP4fuR72jPrOn8X2siHUr6vab8dL4Vj0Y7PV3fj8NiyalfV7TfjpfCsejHZ6u78fhsVJ/psu9+xen5+PdI3zXtZeu+zeIqwNu9H0nuI/CFX7Ne1l677N4irA270fSe4j8IWTNupo8PBEMs66rx8WVsrPplR71/iKnzA+xtn7q38yoDrPplR71/iKnzA+xtn7q38ytjOuohx8GYMo66XDxO+REXNnQBERAeh087fY5+9aX4rVeJUd087fY5+9aX4rVeJWz5OvRa3eX0Kg8pPpdDuv6hERWIVsF8/WkFDj1z5TWJW7L6e3z2GqzmnhucVwDDTSUrq3aRsof5pYQSCDw2334L6BV87Njwy46j6t02ntnnpoa/JskNppZKkkRMlnqSxpfsCeiC7c7AnZejgNk/52mjjNsf52G5v/tDzf37DaG/6e1rucQ0c5Fbslt9Vgmn+kUl+oKhldQPtdHb3VUM0LhIyWPyY6QcxzQ4OHEEb+pa+v1QOvv7Zaff5lT/wqaOR7zderXJ718suqmV5JiNXbbbSV1PJFbXzmdxmgdG3YPjaNgSN+KhONNRdqtycJzclenY9XzsmrN1w3RWyabWOsNPLnVydFcCx5a91up2B8kY29T5XQNdvwLC5pHnKu/Nn8knDNaa+/ar6rWKG849j1THbrXaqpvTpqytLPKTSTsPCSONjog1h3a50j+kPMG/tOeRpqo3vSatDD8mbS3uFzvV5Qvoi0ffs13+BUz80zVUk3JerKaFzfLU2V3Bs7QeIc6OBzSR7Wlv+CyJulhE47WRaU8TaW4mbVXkc8nfVbDavE6/SzGrPNJTmGhutptUFJWW94HmOikia12zTsTGT0HAbOBC1/wDJw5GPLP0J1/xPPKbBqVtBbLtHSXWpgvFKWVFrkkEdVswv6RaYt3taRv0msPWFtrXUDL8SdUijblFoNQX+SEQrYumX77dHo9LfffhstWniJwi47U+0zzoxlJS2NFEOdWwnWnU2o08xPTbTjJ8ms9AK66V7rTbpamOOqPk4oA4sBAcGOn6/U72r2XI95Cej1u0Cs1XrTo5b7pmV+jlq7sMgoCami6UjhHTsa/jB0Iwzct6JLiXHrG103Oa1pc4gADck9QC1+csfnL7NiEdy0w5O1dBdciaZKSvyYN8pR213U4Uu/m1Ew4+fxiYR/wCQ7tGSnOrVgqNNbN5GcYU5OrMobqXaKXQflWXi0aZ3KobT4VmMZs0wnc+SMRzMeyIv639HcxEn5wB6W+5335xPdJEyRzCwuaCWnrB26lp65BnIxzTWvPrRrNqFbqmkwO0V7bsJq4O8tkFWx5kY2Pc9J0XlQ18krtw8AsHSLnObuIUsdJNxindraQwkWk5PUmERFom2EREAREQBERAEREAREQBERAEREAREQBERAEREAREQBERAFR7nG/TeC9zuPjgV4VR7nG/TeC9zuPjgXjZ/6vn8P3I97Rn1nT+L7WRDqV9XtN+Ol8Kx6Mdnq7vx+GxZNSvq9pvx0vhWPRjs9Xd+Pw2Kk/02Xe/YvT8/Hukb5r2svXfZvEVYG3ej6T3EfhCr9mvay9d9m8RVgbd6PpPcR+ELJm3U0eHgiGWddV4+LK2Vn0yo96/xFT5gfY2z91b+ZUB1n0yo96/xFT5gfY2z91b+ZWxnXUQ4+DMGUddLh4nfIiLmzoAiIgPQ6edvsc/etL8VqvEqO6edvsc/etL8VqvErZ8nXotbvL6FQeUn0uh3X9QiIrEK2C+ejBM1pdNtebJqLXUM1bTYvlzLvNTQOaJJmQVZe5jS7gHEAgb8N19C6qrWc2PyPa+sqK6owO8GaplfNIW5NcWgvc4kkATbDiTwC28LXhR6XT3mvXouq01uIk/XFaYf2LZj/q6P/wC1noOd/wBMq+4UtvZo1l8bqueOna91XSdFpe4NBOz99tz6lJ/6r3kb/sFev90XL/mWWj5sfke0FZT11Pgd4E1NKyaMuya4uAe1wc0kGbY8QOtS6WE9l/zmOjX7UZecT5PF7190LD8NonVmUYdW/pq30rHAOrIvJuZUU7d+tzo3dNo4EviYN+JWuDkY8sS88k7KrrFcrFVXvEr+YxdrZE8R1NPURdJrZ4A/ZvlACWPY4t6QDQXNLAt4irtrdyCOTfrveKjJ8ixaqseQVjzJVXbH6gUc9S87bvlYWuhleduL3xl3tXyhiIxg6VVXR8q0ZSkqkHrK+6uc7hp47C62h0XwzJ5cnrad0VLV3mmp6ekoHuG3lHBkz3SvbvuGBvRJHF4HXVrm6uTvcNZ+UNa87rraZbBgVdFfbpcpmFxmr2O8pTQ+U28+V0obK7j81hLvntDrrWHmkuTZa7gysvGS55fIGP6XySpuVPDE8fY4wQMkP8HtVu8FwHC9MsZpMNwDGaCw2WhBEFFRRCONpJ3c4+tzieJcSXE8SSVN16VKDjRWt7yMaVSclKq9hTLnUuUNf9N8BsekOF3eW3XPN/LzXSop3ls0drh6LXRtcOLDLI9rS4dbI5G+s7a9+TZl3JxwDJpMp19wDJMzFCYzaLNb46Y0BeOLpKoSysMu3ANi2LOsuDuAG4rXDke6D8onI6HK9VsbuNyuNtoRbqZ9PeKqkayASOk26MMjQT0nu4kb9Q9QUdfqveRv+wV6/wB0XL/mX2jiaVOl0He++3/oqUZzn07kbUfO86GxNgoaXSLPIYWdCGNkcdva2NvAAACo2AA9Q+xXzpqhlVTRVUYcGTMbI0O6wCNxuqrM5r/kcxvbIzA70HNIIP8A1Pcev/OVq4YY6eGOnhb0Y4mhjRvvsANgFrVnSdvNJ8zPTU1+NnNERYDIEREAREQBERAEREAREQBERAEREAREQBERAEREAREQBERAFR7nG/TeC9zuPjgV4VDPKP5OFt19tlve2/SWe82cSijqDF5aFzJOiXxyM3B4ljdnA7j7HdS83N8PUxWDnSpK8nb/AE0z1skxVLBY6Fas7RV/9popNqV9XtN+Ol8Kx6Mdnq7vx+GxSzyh+T5kOA6NTZFWXqlrRbZ6Nk8NNA8hrC4MMhedtgCR/R9fWom0Y7PV3fj8NipjG4DE5dgpUcVHoybvbVsfC/YXfgcww2Z4tVsJPpRStfXtS99u0jfNe1l677N4irA270fSe4j8IVfs17WXrvs3iKsDbvR9J7iPwha+bdTR4eCNrLOuq8fFlbKz6ZUe9f4ip8wPsbZ+6t/MqA6z6ZUe9f4ip8wPsbZ+6t/MrYzrqIcfBmDKOulw8TvkRFzZ0ARF+q12m6XutZbrPbqmtqpPmw08Ze4+3YdQ9p4D1r7GMptRirtkZSjCLlJ2SO3087fY5+9aX4rVeJV/0u5PF2tt2oMnzCujpn0UrKmGggPTeXtO7fKSdQAIHBu+/wBoVgFc2hGWYrLsJU/qodFyd0nttbet3PWUlp3mmEzLGU1hJ9JQTTa2Xvue/lqCIi7Y4YIiIAiIgCIiAIiIAiIgCIiAIiIAiIgCIiAIiIAiIgCIiAIiIAiIgCIiAIiIAiIgCIiAIiIAiIgMdRT09XBJS1UEc0MzCySORoc17SNiCDwII9S8Ba+T7o3Zq+ouFswOggdVSmeSFrpDB0yACRCXeTbwA4BoHr23J3kNFgr4WhiklXgpW2XSf1Nihi8RhbuhNxvts2r/ACNZHKo0ey7BNSshyJ2LTQYxdK11TQVtNGDTNa8AlhLf5sh3SGztt/VuF7rFrHesggpKSxWmruE3kIwW08Ln9HzR84jg3+OyvzUU9PVwPpauCOaGVpa+ORoc1wPWCDwIWOioKG2UzKO20UFJTs+bFBGI2N+5oGwXH5noXTzGspqr0YXbta717k7pL5Ha5bp1Vy+g4SpKU7JXvZat7Vm78zTZcYpILjVwTMLZI6iRj2nrDg4gj/FT1gfY2z91b+ZXjtcdDtR9LcjutyySwTus1TXTy092p2mSlex8jizpPH824gjzX7Hffbfbde90utF1vmNWS22a3VFbVSUrejDBGXu23PE7dQ9p4BcJn+HqU1Gi4vpdK1ra9jLDyLFUqvSrqS6PRve+rcdkv12q0XS+VrLbZrfUVtVJ82KBhc4+3h1D2ngpswjkx1tT5Ovzu4iljPH5BSO6Uh9j5Opv3N3/ABBTtjuKY5iVH8gxyz01DCeLvJM86Q/a9x85x9pJK3cp0GxuNtUxf/FDs/7Plu56/ceXnGnuBwN6eDXnZ9uyK57+Wr3kE4RyY66qEddndw+SRkB3yGkeHS/c+Ti0fc3f7wp2xzFMdxGhFuxy0QUMP9LyY3c8/a5x3c4+0krtkVmZXkOAyiP+ND+72nrk+e7grIq3NdIMwzmX+VP+32VqiuW/i7v3hEReyeKEREAREQBERAEREAREQBERAEREAREQBERAEREAREQBERAEREAREQBERAEREAREQBERAEREAREQBERAEREAREQGOeCCqhkpqmFksMrSySN7Q5r2kbEEHgQfsX4LDjOO4tSGhxuxUFrpydzFSU7Ymk/c0BEUXCLak1rRJTkouKepnZoiKREIiIAiIgCIiAIiIAiIgCIiAIiIAiIgCIiAIiIAiIgCIiAIiIAiIgCIiAIiID//2Q==;" vertex="1" parent="1">
          <mxGeometry x="480" y="90" width="330.33" height="91.5" as="geometry" />
        </mxCell>
        <mxCell id="xXsEObeVSqV9C6Z43QaJ-8" value="" style="edgeStyle=orthogonalEdgeStyle;rounded=0;orthogonalLoop=1;jettySize=auto;html=1;fontSize=18;" edge="1" parent="1" source="xXsEObeVSqV9C6Z43QaJ-6">
          <mxGeometry relative="1" as="geometry">
            <mxPoint x="480" y="142" as="targetPoint" />
          </mxGeometry>
        </mxCell>
        <mxCell id="xXsEObeVSqV9C6Z43QaJ-9" value="WILL CREATE&lt;br&gt;5" style="edgeLabel;html=1;align=center;verticalAlign=middle;resizable=0;points=[];fontSize=18;" vertex="1" connectable="0" parent="xXsEObeVSqV9C6Z43QaJ-8">
          <mxGeometry x="-0.1859" relative="1" as="geometry">
            <mxPoint as="offset" />
          </mxGeometry>
        </mxCell>
        <mxCell id="xXsEObeVSqV9C6Z43QaJ-6" value="" style="shape=image;verticalLabelPosition=bottom;labelBackgroundColor=#ffffff;verticalAlign=top;aspect=fixed;imageAspect=0;image=data:image/jpeg,/9j/4AAQSkZJRgABAQAAAQABAAD/4gIoSUNDX1BST0ZJTEUAAQEAAAIYAAAAAAQwAABtbnRyUkdCIFhZWiAAAAAAAAAAAAAAAABhY3NwAAAAAAAAAAAAAAAAAAAAAAAAAAAAAAAAAAAAAQAA9tYAAQAAAADTLQAAAAAAAAAAAAAAAAAAAAAAAAAAAAAAAAAAAAAAAAAAAAAAAAAAAAAAAAAAAAAAAAAAAAlkZXNjAAAA8AAAAHRyWFlaAAABZAAAABRnWFlaAAABeAAAABRiWFlaAAABjAAAABRyVFJDAAABoAAAAChnVFJDAAABoAAAAChiVFJDAAABoAAAACh3dHB0AAAByAAAABRjcHJ0AAAB3AAAADxtbHVjAAAAAAAAAAEAAAAMZW5VUwAAAFgAAAAcAHMAUgBHAEIAAAAAAAAAAAAAAAAAAAAAAAAAAAAAAAAAAAAAAAAAAAAAAAAAAAAAAAAAAAAAAAAAAAAAAAAAAAAAAAAAAAAAAAAAAAAAAAAAAAAAAAAAAFhZWiAAAAAAAABvogAAOPUAAAOQWFlaIAAAAAAAAGKZAAC3hQAAGNpYWVogAAAAAAAAJKAAAA+EAAC2z3BhcmEAAAAAAAQAAAACZmYAAPKnAAANWQAAE9AAAApbAAAAAAAAAABYWVogAAAAAAAA9tYAAQAAAADTLW1sdWMAAAAAAAAAAQAAAAxlblVTAAAAIAAAABwARwBvAG8AZwBsAGUAIABJAG4AYwAuACAAMgAwADEANv/bAEMAAwICAgICAwICAgMDAwMEBgQEBAQECAYGBQYJCAoKCQgJCQoMDwwKCw4LCQkNEQ0ODxAQERAKDBITEhATDxAQEP/bAEMBAwMDBAMECAQECBALCQsQEBAQEBAQEBAQEBAQEBAQEBAQEBAQEBAQEBAQEBAQEBAQEBAQEBAQEBAQEBAQEBAQEP/AABEIAOEA4QMBIgACEQEDEQH/xAAdAAEAAgMBAQEBAAAAAAAAAAAACAkFBgcBAgQD/8QAQBAAAQMDAwIBBgkMAgMAAAAAAQACAwQFEQYHIQgSMRM3QVFhdQkUIjI4UnKysxUWIzM0NkJ2d7G0tWJxU2Nz/8QAHAEBAAICAwEAAAAAAAAAAAAAAAEHAgYDBAUI/8QAOhEAAgECAwQFCQgCAwAAAAAAAAECAxEEBQYhMUFxBxITNWEyUVJzgaGxssEiIzM0QmJygpHhJNLw/9oADAMBAAIRAxEAPwC1NERAEREAREQBERAEREAREQBERAEREAREQBERAEREAREQBERAEREAREQBERAFzrfndp+ymgjrsWQXaKCvpaaem8v5Jxjlf2uc12CO4ZyARg4xkZyOiqPHXh9Huv8AelB+KF7OnsLSx2bYfDV1eE5xTXnTdnu2g6HtLv1tpvPQCfRt9b8fjjElTaqrEVbT+vujz8pueO9hcz25XRFSxQV9faq6C52qvqaGtpXiWnqaaZ0U0Lx4OY9pDmn2ggqWey/XxqCxeQsO8dDJeqEdrG3mjja2sib4ZliGGygfWb2uwPB5KsDUXRhiMLevlD7SPoPylye6XufMmxPRFgdGa60huHY4tR6J1DR3e3S8CWnfksd6WPacOjePS1wDh6Qs8qqq0qlCbp1YuMlsaas1zRAREXGAiIgCIiAIiIAiIgCIiAIiIAiIgCIiAIiIAiIgCIiAKPHXh9Huv96UH4oUh1Hjrw+j3X+9KD8ULYdJ9+4T1kPigVsIiL6vMzP6J17rHbi+M1HofUNXaK9mA6SBw7ZWj+CRjsskbyfkuBHp8VNjZbr301qEwWDeCji0/cHYY2704c6gmP8A7GnL4CfWe5nBJczgKBCLXc90tluoYWxcPt8JrZJe3ivB3RFi6eiraK5UkNwt1XDVUtQwSQzwyB8cjCMhzXDggj0hf3VS+0e/+5uy1W06PvpfbHP757RWAy0UuTyQzIMbj9aMtJwM5HCnfsp1h7Z7tGns1zmbpfUkpawW+umBiqHn0U8+A2Q54DSGvPoaRyqM1FoDMsjvWpLtaS/VFbUv3R3rmrrztEWO8oiLRCAiIgCIiAIiIAiIgCIiAIiIAiIgCIiAIiIAiIgCjx14fR7r/elB+KFIdR468Po91/vSg/FC2HSffuE9ZD4oFbCIi+rzMIiIAvHNa5pa5oIIwQRwQvUQFqm22sBpHpY07r26x1NwFl0PT3WoYJMzTiGiEjgHOPLiGkZJ8Tys7tVvhttvLbnVuh9QRz1MLA+qt048lWUuf/JETnGeO9uWE+DiueU/0Dn/ANLJP9WVW3arrdLHcqe82S5VVvr6N/lKeqpZnRTRO9bXtII4yOD4FUHk2jcPqeONm5uFSFWSi96t5mvqmreO4ixdIigpsv1+Xa1iCw71UD7lTDDG3yghAqGD1zwNw2Qekujw7A+Y4lTS0nrHS2u7JDqPR1+orvbaj5lRSyh7c+lrvS1w9LXAEekBaVnmmcy09U6uMp/Z4SW2L5P6Oz8DEzKIi8ABERAEREARF4SAMk8ID1fgvl+smmLTVX7Ud3o7XbaJhlqausnbDDCz1ue4gAf9qN2+nXptntmamwaDEetNRRl0bhSzAW+leOD5WoGe9wP8EYdyC1zmHlV/7sb37mb2XVt03C1JLWRwyGSlt8I8lRUhOR+ihBwDgkd7u55HBcVt+TaOxuZWq1/u6fne98l9XbwucFTERhsW1lp2z3UVoHfPUGqLRt/8eqqPS7aTytxmh8lDVOnM36lrvl9rfIn5Tmtz3cAjk9SUDfgvP2ncv7Fm/vWqeS8rUOApZZmNTC0L9WPV379sU372Z0pOcFJhEReKcgREQBERAFHjrw+j3X+9KD8UKQ64T1q6ev2pdhbnQ6ds1Zc6mKuo6l8FJC6WTyTJQXuDG5JAHJwOBk+AXv6WnGnneElN2SqR380CsdEBB5Byi+sTMIiIAiIgLLqf6Bz/AOlkn+rKrRVl1P8AQOf/AEsk/wBWVWiq26O9+P8AXSIQWyaD3H1xtjeRf9Cakq7TVnAlETgYp2jwbLG7LJG+PDgcZyMHla2isWtRp4im6VaKlF701dPmmSWA7K9eOkdVCCw7tU0GmLq7DG3KIk26d3rcSS6nOfrFzBjJeM4UqKapp6yniq6SojngmYJI5Y3hzHtIyHNI4II9IVKy6Zs/1E7n7K1DI9LXn4zZy/ums1cXS0b8nLiwZzC45J7mEZOC4OxhVPqLovoYi9fJ5dSXoPyXye9cndckY2LYkXENlurjbDeB1PZpKr83dSzYaLVcJRiZ/qp5uGzexvyX8E9mOV29UxmGW4vKqzw+MpuE1wfxT3NeKuiAi1Hcrdnb3aGx/nDuFqektNM7LYGSEunqXgZLIYm5fI72NBwOTgcqAu+vwgmvNdCfT+01PUaPsj8sfXuc03Sob7HNJbTAj6hc/wACJG+C72U6fx2cy+4jaHGT2L/fJXOOpVjT3kyt7uqTafYqF9JqS8G4X4x98NjtxbLVuyMtMgyGwtPj3SEZGe0OIwq8t8ur/dre81FpqK4ad0xNlosttlcGys9VTNw6f2jDYzx8jIyuJTTTVE8tTUTSTTTvdLLLI4ufI9xy5znHlzieSTySvhWrk2k8DlNqjXXqek+HJblz2vxOjUryns3IAADAGAERFtBwk6fgvP2ncv7Fm/vWqeSgb8F5+07l/Ys3961TyVHax76rf1+SJ6WH/DQREWsHMEREAREQBERAcS3p6StsN4jPd/ip09qSXJ/K1vjH6V3rqIuGzejJ+S/AwHgKBu8HTluhstPJNqaz/G7N39sV5oMyUrgTx3nHdC48cPAGeGl2Mq19fzqKeCrgkpaqCOaGZhZJHI0Oa9pGCCDwQR6FvGnde5nkVqM32tFfpk9qX7Zb1yd14E3KVUVge9HQdo7Vnxi/bUVMOl7s7LzbntJts7vU0DLqc/YDmDHDBklQh19ttrja+9Gwa705VWmqdkxGQd0NQ0fxRStyyQeHzSSM4IB4V6ZDqvLNQw/4s7T4weyS9nFeKuvPYm5rSIi2Qksup/oHP/pZJ/qyq0VZdT/QOf8A0sk/1ZVaKrbo734/10iEERFZJIREQBzQ4drgCD6CrMuiTUd/1NsTR1eorzWXOoprjVUkU1XMZZGwsI7GdzskgA4GScDjwCrNVkPQR5gYvfNd95qrfpShF5HGTW1VI29qkQytTcbU2otX64vN81Ve627XB9ZND8Yq5nSPEbZHBsbSfmsaPBow0egBa4sjqP8AeO7+8Kn8Vyxy7lGKhTjGKskkeM94REXIQEREBOn4Lz9p3L+xZv71qnkoG/BeftO5f2LN/etU8lR2se+q39fkielh/wANBERawcwREQBERAEREAREQBYfVekNL66sk+nNYWGiu9tqMF9NVRB7e4eDhnlrh6HDBB5BCzCLOnUnSmqlNtNbU1sa5MEF96ugS527y9/2UrnXCnGXusVdMBOweqCdxAf7GyYPHz3HhREu1puthudRZb5baq3XCkf5OopaqF0UsTvU5jgCPX7Ryro1ou6eye3G8ltbQa40/HUTwsLaWvhPkqylzz+jlHOM89pywnxaVaenek7FYO1DNl2kPSXlrnwl7n52ybnOaf6Bz/6WSf6sqtFWra+0a3RnSzqbQNqlqbi2zaFrrXTPMeZpxHQvY0lrRy44HAHieAqqGua4BzSCD4ELbOjWtDEQxtWm9kqra5PaiUeoiKziQiIgCsh6CPMDF75rvvNVbysh6CPMDF75rvvNVc9KPcS9ZH4SIZWFqP8AeO7+8Kn8VyxyyOo/3ju/vCp/Fcscu3T8hcjxWERFmAiIgJ0/BeftO5f2LN/etU8lBD4LyGbu3KqfIyeRd+SImy9p7C9vxsuaHeBIDmkjxAcPWFO9UbrHvqt/X5InpYf8NBERaycwREQBERAEREAREQBERAEREB+C/wB9tWl7FcdS32rFLbbTSy1tZOWOcIoImF734aC44a0nABPHC4Rub0u7LdQVq/PbRlwo7Xc7g0zQ3uylktNWOPpniaQyXnxcC2TIwXcYXSOoDzEbjfyndv8AElVYG2e724e0N1N10FqKah8o4OqaN/6Skqv/AKwn5LjgY7hh4Ge1wVkaJ0/jsxw1XH5XiHSr05WXoyVr2f8AtNeHElIy27vT9ubsrUk6wsvlLW5/ZDeKImWilJOGgvwDG4+HbIGknOO4crnCsS2i61Nst0aNulNz6Ok01dKtnxeWOtIktdb3DBaJHjDO76koA5ADnlYXefoL0tqRs2oNna2HT1weDIbVO5zrdMfH9GRl0GfZ3M8AGt8VYGB1xWy+ssBqWi6NThNK8JeOy9uabXn6pNyA6LYNcaA1lttfHad1zp2ss9eMljJ2/ImaPF8UgyyVvPzmEjPB54WvqxKVWnXgqtKSlF7U07p8miQrIegjzAxe+a77zVW8rIegjzAxe+a77zVXvSj3EvWR+EiGVhaj/eO7+8Kn8VyxyyOo/wB47v7wqfxXLHLt0/IXI8VhF9RxyTSxwQxvklme2OONjS5z3uOGtaBySSQABySVK7Yz4P3cDXnxe/7qz1GjbG/D20QYDdahvq7HAtph7ZA5/iDGPFdTH5lhcsp9ripqK975LezKMJTdokY9L6V1Lra+U+mtH2GuvN1qv1VJRwmSQgeLjjhrRkZc4ho9JCm/sX8HNTwmn1FvzchUP4ezTttnIiB9VTUNw5/tZF2gEfPeDhS32y2i262fsn5B280vSWqB+DUStBfUVTh4Pmldl8h8cdxOPAYHC3FVhnOuMTi70sCuzh5/1P8A6+zb4ndp4ZR2y2mPsGnrDpW0U2n9M2aitVso2eTp6SjgbDDE31NY0ABZBEWiyk5Nyk7tnZCIigBERAEREAREQBERAEREAREQGg9QHmI3G/lO7f4kqqPVuHUB5iNxv5Tu3+JKqj1e/RL+QxH818pktwIBGCOF2HZjql3Q2YMNtoK4XvTsZANmuEjjHGz1QScug9gGWcklhPK48is3HZfhczovD4ympwfB/TzPxW0ks30XvJsD1VWA6QvdDSSV0ze+WwXljW1DXAcyU7wfl45IfE7vaMEhhOFwTenoGv1lM9/2ZrX3ihGXustZI1tXEPVDKcNlH/F/a7A+c8lRFjkkhlZPDI6OSJwfG9hIcxwOQ4Ecgg+BCk3sv10a80N8XsW5MM+rbIzDBVGQC5U7fY93yaj/AKkIdzkyehV5V0tm+mZvE6aq9anvdGbunyexfLL9zItYjVcLfcLRX1Fqu1BU0NdSPMdRS1ULopoXj+F7HAOafYQrGegjzAxe+a77zVnrnp3p16v9MflGnnpLpUQRhja6jd8XuluJ8GvDh3tGckMka5h8QDwVs+we0T9kdDS6H/Lgu0TLlU1cFT5HyTjFIQWte3JHcMYJBwfHAzgaxq/V9DO8neCrU5UsRGcXKEk+Cd2nbxWxpPnvIbKfNSEDUV3JOAK+p/Fcuu7G9Iu7W+Jp7rQ28af0zLhxvdzicGSs9dPFw6o9hBbHwflgjCmrtB0J7Y6Fu0ur9edmsr9NVSVcTKqEC30Zc8uAZAc+Uc3Pz5CeQC1rCpMNa1oDWgAAYAHoC6ea67jTj2OWq79JrZ7Fx5v/AAzpU8NfbM49sh0q7TbFwx1lgtJueoOztlvlxDZKo5GHCLjthaeRhgBIx3Fx5XYkRVzicVXxtR1sRJyk+L/97jtxioqyCIi65IREQBERAEREAREQBERAEREAREQBERAaD1AeYjcb+U7t/iSqo9W4dQHmI3G/lO7f4kqqPV79Ev5DEfzXymS3BERWySEREBktO6k1BpG8Qah0teqy03Om/VVVJMY5GjPLSR4tOOWnLT4EEKzvpU3O1Vu1tFS6q1lJSy3NlZUUUk1PD5ITNjIAe5oPaHHPPaA3PgB4KrJWQ9BHmBi98133mqsulPC0JZRHEuC66nFKVttmpXV99vAhkjURF8+GIREQBERAEREAREQBERAEREAREQBERAEREAREQGg9QHmI3G/lO7f4kqqPVuHUB5iNxv5Tu3+JKqj1e/RL+QxH818pktwREVskhERAFZD0EeYGL3zXfeaq3lZD0EeYGL3zXfeaq56Ue4l6yPwkQyRqIi+dTEIiIAiIgCIiAIiIAiIgCIiAIiIAiIgCIiAIiID81ztluvVtqrPd6GCtoK6B9NVU1RGJIpontLXse08OaWkgg8EFQ83q6A6GrE9/2Tr20U3L3WKvlJgefHEE5y6M+pr+5uT85gCmYi9rJdQZhkFXtcDUtfet8XzX13rg0CmbU+ldS6KvU2ndXWKts9zg5fS1cRY/tzgOb6HtODhzSWn0ErFK4XcHbHQm6dlNh13pylulMMmJ0gLZqdx/iikbh8bva0jPgcjhQf3p6Eta6OM992sqJtU2duXuoHgC5QN9TQAG1AH/ABDX+ADHeKvHTvSPl+bWo437mr4v7D5S4cpf5Zlci0i+54ZqaeWlqYZIZ4HmOWKRhY+N4OC1zTyCD4g8hfCsVO+1EhWQ9BHmBi98133mqt5WQ9BHmBi98133mquelHuJesj8JEMkaiIvnUxCIiAIiIAiIgCIiAIiIAiIgCIiAIiIAiIgCIiAIiIAiIgOV7x9Nm1+9UTqnUVoNFewzshvNBiKqbgcB5wWytH1Xg4ye3tPKgbvR0obobN/GLrLSfnBpuLLvyvb4nYiYPTUQ8uh9rsuYPr5OFaMvPHgrctPa4zPT9qUZdpSX6JcP4vfH4eBNylIEEZB4VkPQR5gYvfNd95q83p6JduNxjUXvRgj0jqCTMjnUsINDUvPP6WAYDST/HH2nJJcHlbV0pba6s2m2tk0ZrKlghuFPdquUOp5hLFLE4tLZGO4OD6nAO9YC3DWGrsu1HkCjhpdWopxbg962S2rg14r2pBu52RERU6QEREAREQBERAEREAREQBERAEREAREQBERAEREAREQBERAEREAREQBERAEREAREQBERAEREAREQBERAEREAREQBERAEREAREQBERAEREAREQBERAEREAREQBERAEREAREQH//Z;" vertex="1" parent="1">
          <mxGeometry x="190" y="82.5" width="120" height="120" as="geometry" />
        </mxCell>
        <mxCell id="xXsEObeVSqV9C6Z43QaJ-13" value="&lt;font style=&quot;font-size: 14px&quot;&gt;JENKINS, DOCKER, ANSIBLE, JAVA, KUBERNETESE, and HEROKU&lt;/font&gt;" style="shape=process;whiteSpace=wrap;html=1;backgroundOutline=1;verticalAlign=top;labelBackgroundColor=#ffffff;" vertex="1" parent="1">
          <mxGeometry x="995.49" y="95.75" width="204.51" height="80" as="geometry" />
        </mxCell>
        <mxCell id="xXsEObeVSqV9C6Z43QaJ-17" value="" style="shape=image;verticalLabelPosition=bottom;labelBackgroundColor=#ffffff;verticalAlign=top;aspect=fixed;imageAspect=0;image=data:image/png,iVBORw0KGgoAAAANSUhEUgAAAMIAAABmCAYAAACZbE7JAAAAAXNSR0IArs4c6QAAIABJREFUeF7svQeYXGl1JvzeVLmqq7NSK400GmlGmsxkJmFwYAGv06692N61Aa/XBszuDk6PjYG1wQu/8e+ADSY6gbExNpg4BAPDMFGTNUmTFTpUh8o37/Oer07rqlF3zwCz612rnqdVreqqW9+997zfSe85x2q322kcx+CP4zjI5/PI5XJI0xT6SJIElmXJ34MgQLvdhm3by38/1S/1en3Nv6dxgm6nAz/w4XoubMdBkqRILcBxPfhBJN/HH8/lsw0LCdIkRhpHyOVcACniMEKn20MYxbBsFwksRHGKXKEka+Y6XceBy2fbgmMBsC3w7BIeIUmQDM6f10COn6YIg2BwDVKzBs+T68Jny3YA8ECQ9/B7+ODne70e+v0+KpWKPPM11+VaAV5HHqtQKMix1no0m83lP2fvhf7OY/E7eBxZd5qedE943lEUyf3is65T16rH4flwPXyd7+OD61V54P/5uu/7CMNQ/s5j8/98Hz/HtfD3Uqm0fK7Zc+N38T3Z9fB7+R188JqoDFL+yuXymteGf1xcXFzzPTyOyo/KKtehP3oOvEdybRqNRspF8g96g3gAnqB+SE9eL4pcXF4UxYp14lddXa02dNJCT8AKIIT6rTalEHEaI5bnBDEshCkQpzb6YYLaUB2lkgsrBew0Qc7mZ0PEYRcuD+L7gOch7AfwShW0uyH81MZix8fIxCTCGIgjIOcAJRfI24AVmRtqlyqQ28CbFEWIoxBxHCHhB+IYOc8IL8+M14Y/vC4i1LaDNLEAy14GAa8Vr4sKDG+0PlTosgK93kaxtLS05o3m/eHN5o8Cks8q6HqveKO5Lr3HKhx8XTYJ1xVw80fvu4JWBYgCTIDzuumGyHOh8PL/yxvEYOPhceQaD66Zro+v6fXh8XRzURDymJRBAmq9jXa96zM0dLL8Za+Rnp+Ck+dnUSPojs+Lkr0YimRFrS6YJ+TKrnjiwZ08+7BX/n2wg8rNAuDBgpUmSAQIkQAiSlNEsBHDRbsfoliqoFR0uYEDSQQn5ffGcK0UUbeLJAyRy+cRhjEsL4dm10e+OgLHy6ObAmEEJDHgWUDJAfIIYYddRHGEOFdEbDmwuJNaFqgj0pT6JOXWLZpC4c3zPvFDNNlIcUIr6EXmddSdbeWOvxIMvM5rPXistR68ByrAemP5rKDl53U9+rueA9+j9zx7btnvo3CoPPC9/D7VaHxdgcBnlZnsDq+A1OOrLOn1UY2j2lK1kWoogneth37Xau/RNa7cjPT/vAa60cu1iKIozaoMvXhZ1OjJ6oe5iFqluiYQaD6deBhTRM0J/larVGAsigRIQyRxgIS7M8XPcmF7BTGPgjAScyUK+4jCHjwnRT5XQLFUR78fIO95yNNMsoBOtytAgpuDk8shSoifGG4aI5eG8kMghHGEPhyktgvHdgc33Oz4YvbQTKBppOaPaEdj2vA5TShwNOWMsKnZoTug7pKnugkKiJOvz7fezmr15Ou78h38fFYAZVcbmK96n1YzDXgsClzWZFEBVVlQIPB9PN6ymem6y7u1mmS6QaopqNpKr42abdnrkz2mgiqrtTqdzppAWM986na78vlTaWM9f12DgFVQMPiA2oJEIxGlN3qlWuX7aZ9mTaOVq15YWDgZKBmNkMJGbagGh5srxS0NkMa+kTDBiwPLLaDVpg9BfyAH17EQRz5sK0G+UMLcgo80tVHMuyh69COoAQLEtANtB26hhCQ19quVhLCjAHYcwIr6SJIYfpyK0NMfceXHhU2zxyGoaPrQXyFSLSQpEMW0cWOEYSS7fo7XJ+b/T+yUNFOo2tV2PtWd1Buzno07PDy8piBQ6PjgWni/sva77vi8bll/JLvhqUbK2u0q2HpcNQV5PqodsppMz4WCxDWo+cTP87t5bPVP1P/kNRI/a+BXZTcLvlfXsJ5GOJXpk71g9LGypujK39UUXLaCFAg8iNqCPKFisSjHVQ3BhfNDPEG1Lde6U1lnb+X7EstGrlilhQHHCsXksRIfVhKJmUJBBFz0+6EIM78zSSL4vQ6QRvByRfQDG6ViGbk8d/AYCPm3GGkUIogT5Mo1JOI8OyLEcRggifg9Iew0hmMZJ5c7u+3QWTcgIDgIJAGDeDN8NkDwA9q4gfgTxZyHKDQCqM6i2rdrqeVnqxFqtdqaQODaFQS0u9VUUAHjuih0tLezZlrWWeRneM/5XjVN1LTKHk/9CAXBSt+Rn9FAgQIya0bz+qjJs5pDzZNVH4IgyPpYp7oQshGv8VCNshoY+FE9L9m4kiRJV0Y9CASNJCgQeEA9GT6vZ8OupdoIhNQrCBBcK4KDEG4awUpp2NAep1ecRxqnsgvTgY0DH2kUwHOAHCMOfoz5mRk0po9gqJLDxGgVzvioOLqIE6BQBbwSYqeAMHXQDyMTWbIseFaKfBrCsRgNMzb/siag7UiNZBvNIH/nhpACQRCi5/tiNpVyngCCN09NR14z/mQjIqupZ93RV7uX66l+FT4eJ7sGjeJQmLIaQe9x1pTLAkF9Bt0ps6ZSFghZ01mFiQDhNVDHXJT6IApFgGU3CtWYWflRP4LvpUlD+Vvv/AmotR56fVcDAr9LnfVlIOgBefLcXXgR1SZUz1qBoDtM9gtOtaBWq7XqOhPu+vmChI88i3s2HeBE9l/jtlpIE1vMkMj34aQJisUcN2egvYho7jjuuulruP/OW/Dk4QexZ9dW7D1rF3aduQul0TFg81Yg9oBCHUmhjr5VQCeyEaQObNdD3rFgdRfhIRINQKG3xD+gVqA24A5H08n4Dfxa0QphhH6fUacApXxeAJpV/eq8qgOYVftZQPB3tWFXu0jr+Qi8P7zZao6osPJ13hs1bzWio1EYNXfVdNFdmPee79FzULMmu5uruaz+iG4Aqim4FsoPP2O0uAmZ8pENQWt4Vs9dbXW+n8fgtSFg1nqspxFW+ggrr78CYdlUi3nHBz6C7hBqq+lFVVTz5AgEDdmttdCVPkL2vYw85iplcXAJAJe5A4ncGCgYk8RGr9tFt7mEAmJUiy7SZgO3ff1LuO3Ln4PTnkd75hmU8zYuv+R85D2g6/fgVao48/yLkd+5DyiNAaVxRE4ZrdiDjxzsXBGFnIv+YgMODaeBWWR7uYGJ5Ig30w9C2BaBYMOzuTaGYkME3Cj8AKVicdls1B1Q7c2VpuOpdqX1wn/r+Qg8JoWGTrPeVAqP+gd8LRseVQdad3TeR/5OwSWgVLgJBBV4Nfv0vmcjPHo83TB1PVwT5Yg7ujrjvD66FgJiZWhUgcD38fP8WS98ul74WTfitTTCST4dgZD9Upo0/OFF5UVSJPOicJfhBTS7lcZLsxmCE+K+UiNkfaPUStELeiiVinAdW3ISnptDLldElFpYbLaRY2Qo52Hm6ScxNT6Ex++5DR/74J8ibc/DnzuCTSUHuagDK+ri0osOYKiaEwunR7s3X8bRVohtBy7F1MVXA+PbEXVizLV8JE4ehVIV5VodvX4g5hId5hyTSjZ9AVpXCTzXFmee2QQTKE0Q9Lpot5pyowrFigHOIBSpiTMKQHajUGHIOqpqRqy1kTwbjaBmhO7aKsC6oWVNo5WCxTWo+UIw8TNqDquppdpOfY1sYjAbftTfec95bTRBpuenUTT6nSuvjW4iuhlrnmE9i2O960NZVR9KN3IFra6X58s1iWnm+74AQR08VbdcMA+m6pIXhz/88HpqiSd1clREwTJ4thinDzFcr0moMmHAn96B4yFKbTHxaZMTCJ35GVTsCN/47Cfw9x9+DyZKLioIUIx68KIe7KiDSy88B8NVD7aToB+FSHIF+G4JC5EL36ujvmknps48gNKmbYBXBGIHxzuAbxktUKpUUSxX4NiWJNn4/aLOrdRoKxprNIOCPvxeV0w2J18SU0ptdTUtVt5svcFZB5O/r2U68jPraQTdPTUzqtpIQ5EKTFX9CgQVMI3jq13O1/levk8BwPcoyPQ4qlEo7OpXqI/ADVQ3z5VmIde3MmKkESJ10LkGNc3X80HX0wiU1ayFo2vNmmG6UchrTKgpELKePhet2UGehNqM/LD5m7H9vjWnbF49Ef5aAYLB7lrKMzqUIu50JE/gVmoi/X7Xpx5FvsyoQIp+YxoF+Lj5s5/AFz7+19hYzcONfCR9hkN9OGEbl1+4DyNVB55NsPZg5Tw0Wj24lWEgP4R+4iKEh9rIOLbt2AVs2wuM7UGUFhFETOQBtpeHQweeIVTLCIMYaUy4kbiRxMs//Ds1izjVg+iNRlnUVs/eSBW+7C6ntvNqWmE985Pfo1o6a6urBspmdldGexSUKsC6Fo0I6toVCBoxVEdcQZ81CTWEymNlzZ+sc66vrzS5Nd/B4+k5rfSzVl6n9SgquutnnX5dr4JdNw95fWFhYRkImqDh4nkjeBBVJ3pR9GSazawz/K3mkQn/fSsIeBOYO0ZAikUMSEiU6V8P6HUlq4vRUaDXF6Ag8gErxD2f+ji+8ImPiXboLS2hXB6WUKgTtnD5hXsxVrGRs32hXziegzABcqUqLK+Edi/EUpMZ5RS1ag328BZs+r6fBIpjQC5PFACWizix0AkidP0Q1aFh4T4NMmnCU/KEt0R7yQPs3MCXORFizgr/qaJC2dj5euHR9TQGtXLW7NJdlTeV69Awpgq9Osl6H1XodYfUzTBr+2cjhirQWXCs/KwKK19XkOka9droevQ4fF3fnwXaeqbPWuF5roPXd6U5qkDg9yhdRK+XNT8/L+FTvRCSWMqYSnrzsrsaUd8kV0j8BM0ZnwyG0dGRVTQGhYtA6MBvTEsYE06Kw7fehH/424/C73dw+ZWXYev27RgdG0VtcoI2Cm7/5Cfwz5//DIbyLlIJgxYM7SIyQBglEKwASdiB69rw8nkR/DBmFIVuuGPCsUGIpSSH4+4opg5cgq0HzgNGJuhcoN+PEHtF2IUK7FxJuEr0GagBPKp2LweXZLlBnsGwpkz2Uk0SDTTQVtZrp+FBfeZn1lPtawUb+HkCISv8epNVGFXQdD36rOaIRmWyodHsOvU4GvnRXIMCguebjfVrKDLr+GbNI92Zs+taucvr+fB5vfBoo9FYTZnK67y+2fPJamO1fPTcRPsvLi4u59Q0YbYy86cH0QPQSTP0gxMOs5IodHWVCqMGJ/gyA66mibkz8dVrSRLtkVu+ho9/+L14+tCdOO+snbj04nMxXK/gqSPPoFyrYXh0DKViCYfuuw8PHzqEcs4TI77b8cVutwUIZ2OkSiCQkNcTINB+T2nixBaiMEYSxsg5LirFIpzyEGbTPJ5e7KAdJpiYOgNnXXg5cMZZQOyivdBBoTaGIHURJg7geHA9EtwKcJl4EyCQq3KCfaomEk1CJbllVbFuNnpz1lPtBNJaDx6HWns1EyILzJVCzOMqw5ifz0ab+LmVx+Tns/kK9Yv0GBQkjSxlzbCsBswm7lTTqOCrtuL/eZz1rg3Xv174Wc8py53LXk+eZzZ0bHU6nVVp2Hoiqta4UN5kqiWPJsUaQCiXmfDIaIkMKAgEJCH+9j1/hHu++nmMeQEKfgNoz2LX1DjO2bcb8Gx0/ACdkJQJDzNzCzh+fAZh34ff7qCay8GJfVh0li86B/WqJ4S8MPQlClQo19Bs99EiYOCiXCihXChS+SCIA4ROIrmMwPKw0E/QjD0Uxqew/ZyLUD3zAOI+EFgFJE4RcAuwnLyAwUSKTAJJd0e1cTUatEztHWja7E6nQFjPBl4v4aYRvNXYp7o+CuBKKrZqfP6N6+Duq+aCOscUGnWw+T4CU/NLyi6lsGlkhpsntZQGXdQ51fPVdWhIVv0afkcWGJqUVJ9rtc1gPS6S2v/KlcpqJ/2d58PrLGtl1EjRykUrN0VtN37ohK9giVe/uLgkDE/l4pgDSxpM2JwMNY4M14wJJKS6eMAjGgCDVOf2Ej76R7+HO77yOYzmYoy4PsZLFvZsm8TGiTpKlQKCJEWzF2Ch7ePI9DyeOTaHIEzFVi8xGRxRK5yIGhkgBHA8D43FNrx8BflSFY6TQxqZ2gWbJ40IqdUXXyJ1C+glDhaDFD2rALs6Aa8+ib1XvRjwqkCuhsStIHFLSJwC4OYNDYO08QGf3nVNzQQfWo9wIinJuDlpHIPnAYGtXFo7YbRenoECxVBtlgqTNY+yDmkWCOrjqcPI/6sZoskwNXmyeQMFgoJIKRy8Bkqppl2vrAOVGd2RKWMaGs1GcFS78DW+l+fzbDTC/Pz8mhpT8yH6nDVh9TppDoWgtNqtlgHCIAHDi0IwqPevQKCg84YzoTS/sAivWIWXLwmvZ2Z2Dps3b0BM32F+FpPDVThRB07Ug1PLA/MzxpymVggD0Qb8+fM3/ToW52YwWi2iuzCDohPjvH1nYLxehgMS/xhKteS77nrgMJ44MouYwurkyA2BFfuwY0aNzsZIxc2YRq7UNCSWpMwEopKuS+l/mygQ6LDTGReoWiDtI7I8RFYOvl0UDTG6fR8mz7oA2HAGkKujn+QRuSVYuSJyRbI3B15SEgnYScTjOXK3IjWEZD7SNMIoEX9FstoFJvTM/sANY7XHeqqfsX/awbora7hUzVcKAHc7HodCRqHO5hk0PK4mDddBwKhpxGfVOvyb+iwEn+YZ9HiaAOPfNGOtAMia1fyd6+HaCRoFi0YlKZhcFzXLehphPdORa1ftogEAtWyymXA9jtVutsQ0ihKTYueHVd2ebBqxQIUMUEZgWsgVy2i2exJ6zOVNYiL0u4i7LVRzKUplF/HM0zh05zfw8Y/8OfJ2iquuuBw7tm9D2mtjU7mAP3/vn8rFrpRLaC40kHdSnH/2bmwcq8GOu8g5ZI+m8ApVHHzgMTx+pIHILsFy84ZZGAdwIhM+pbOct0IkQVcAK8xThjkJBKHZGqFlONRoLyOIqsH4Gt/HWojQygPlYRxphpiPC6huOQs7L7gSld3nCm0DiYWFVhuV2hA8jyzUSAh4Us8g2WhHggmum5NolDjtSQrb8eRa5TwLwhVcY09bTyPwnukOrGaQ3mANb+qOp7tt9u/8arXtKXgKID7r+5SvpEDgcSgfGhpXKjeBwc8QCGoarTRF1ATKUiiyQODvPA6BpOtZa8tf7/qoD5UNQ2fNtawZKxqi2+5IYQ6BwA8L5fkUBTriDLMSLaEq7KLTbiJiGWIuj/GxcTTm5hD2OhitFeEVHARHHsdfvPcP8cCdN2O4lMMVL7gQQ5US4ihArVhA2ungK1/4AgrFgkRkOq1FFJwUB/aega0bR5EG7ecVCBrxkhyBgINbNKFhNEMzSOE7JXStEjpWEUl5FCObd2LbmfuR37ZLgALbRbDURN8PUBsZkTqITruDgOEmJe7ZDuIklSQdTSSjqh2U8u6aQFiPpq0ESA1TqrCrCaDJJN3l1STSCNdK+oQKajbqo0k3Hpt+oWoWDc1STtQEU7NGQZSNLqmfoMKuidqsiaR+Ao/JTXU99ul610cDCdnjZLWT+jbLbNl+tydRI5ZK6oLVuRPbSbkRKeO9JlyaRH14dDZdC83ZOdnR44A0CUt2abQa+JsPvgeP3HMHnKCN8WoR5+zZhXLelZ0z5zjoLHVw1113yw7DnTQKeqgUXJy1cwpbJoeBsIuc+3xpBKMTBvS+gYliNIV4OBTiXAmRnUcvddEMLbRjG8iVUayNwKmOY/LMc1HdsQcolgE/lFyEHybk0aIyOoFWqzugc9MZNCaYowUujNosl4Keet/jbr7WQx10FUS9V/p/jcSo4GcFPBvbV5NJAZQN+aqfyGc1h7Lflz2mykw2UqSmiMqVrkltdP27frd+XzbBtto1WK9eQUGaDVlnj6VrWdYSfq9v7hIL2geREF2gqlg5edY8DvwEDyEeuudm7DvvbEk4RfONQaLJArpNIOzhd9/4X1G0ItTzNpamj2DHlg3Yt/sMFDwXS8024JRwx8F7JItMcHBnHqoUsH3zOCaGK2LmEAjcSb/7ppEaRwMHf+Doa5SLPkOxUkW3H6IbxEgdD3ahKJVzpHMvBjb88iZs2LUfoxu3oDA0BoxtBLwyUhahlmoIYguJONVm85DizoFGTWIKFjPzqxtH6gSvJgiaF8gKW3bHk1s6qLVW4VUB1FDuyvyHfpcS9tS21rBm9v/6Wf2MgkXzFNmomEafZDMYNGTQtajMZcGhOYe1NoL1ro9qPPU1FBC6bs2X6etW6AepRXblIIyl1U4ah9asH+1gVnbRJq7kSFFuAwvH8dC99+Af/u5j8BBj42gdU5Nj2LN9Cp/++Mcwe+RJVD0L9WIO5599JraMj8FOIkSJLWzQr33zDlM0E5HpmaBaymHrxjGM1goo54CcOMvPBxBOTv6dnAMZ7AvcvQdhUp88KwYTaNKUSnAqozjWL6ARuOgkDqqTW7F9/8Wo7jpbokzNToTy6ISUjfJopkbbZNTj0DQP6Pvxcmb6VDd8Pa6Rhv7UPtfoiwKAz9kkl5oqCgIVTo36aJSLn1PThcKiTjgztVnzie/LglA5S7pTq8CvBIGa3llrY2WEMlvXsBoY1rs+mvdQQGStHH6f8p6WAREGQWpCeyaeq5xyjRXzWbz6kGy+CPl8DlUWrzUew7vf+VZ0m4tYnD2G66+8DJvHhxG0mwi7bTxw951wkwi1goeF40ewYbiG3ds2Y3KkDtsrihB9+abbTD2ABYR+Dyw93rFlUqJG1YL9vAFBnGQRUSP06jqbZ/Mad5ygT0pwR0yn5dpoO0WQeug5w2gEDkKvgo5TQTdXx6a9F2HHeZfDqk9K9CkUIBhSOesu7DRE2CcxjSWlhMbqBfzr3WgKEqMvNKE0Vp6lwfB33myex8pYvdrxPE8KCqNcWhWmuSI+87hKohuhDzR4v9rdSt3m8fh9XI+CSB1x/k1BqH6NRpuyYFQzi+vhcbIm1qnAsF5mnushGDQkvLyhD+rMuS4NDIlWCMMwzYa6lNpL5OpuI78Hg4KUIttt2MCR+/GfX/lD2L19M/KIcGDPTthhDyXPEfPn/nvvRntxAXnbQtLv4KwdU9i5ZQMKViodKvz8CL500+0ol5mEcdBcWoSVhti9fRM2jddRyT+fQIilXFM6V/Bf6Uox+BlYK+1mC4W8h1IxL/XS9H24m7PJQJw68O0S5vuAV9+IqDKBubSMDftegC0XvBBJvo4kXxUgsIbaZkWcACFA0G1JcY/l0ozSljHfeqvX49rwxlKAebN5f3gPlW7M3ykABIEmy7IaXrUHn1Xw+FmtHlPh53E1jKtA4EapPKUsO5lnQAFWmeHatLeQmktZ/r8m8xRcKqg8Ph3h9RjO61WwKaA1fJxNeiq7ltdHTaznBARqhaL0nbHRf/hWvO3XfgllNwH6TVx54X7Uii6qxYLQlW+55RZpksXYer+1iIv278W2yTG4aYiA+TSrjG/eeb/UBFAj0DxyrBjn7tuFjWN1WHFfNMLzET6VhjFpIEBglIg7M1u7yO8CihPUERNVisWHMeDhj6FqJ14Ffm4Ic3EBR8MCxvZcjL3XvgwY3iT5Dj9RICQo2AmcARB6vT5yxWEkawBhPRv4OwWCOomqEfjM76TAqIA/30BQzaSahZqCwGbO4rsBhJV5FNVO+n0nASEIAtEIa5lGDG8yY0s/Ic84bwEIDh/E23/tdag4Maz+Iq686BwMFVxUSibOfPMtt4G2ted66LWbuHj/XmydHIWXshgG6KAkQJDdUWjPgZRsnnv2bmwYGxKKtXGW2bUum0coSoeL7ySPYCMSILBpGEHAKJEBgvndgMMY9+y9ZGrm4sHvprSUXTHgFdD36mikJRwJixg96wU48+qXAvXNSJ0y+kzqSRwiRV6OGiDut6UNTSyvrK4R1lP93y3TiEKhO7maWNQIz7dptNJHUN+G62GOIGu+fTumEY9DICiFQn0BjRYpx4paSkwjAkEdKL5ppbPMkJ+xAU1/IYKi4sUIn7gHv/urr0PVCWH3F3DVhfswVHRRLrHDRIibbr0D/TAWfk63tYSLD+zDNgGCjzBK0U1LuOXO+zJACFcAoS/hWNEIxSruvp8JtTlJqIG1ALw632ZCzQAhFMEWk2gg/LFlul5QK5gKavZYMsWjJv9s/Ad+1os6wjvqeUOYRwXH4zJG9rwAZ7zwB4DaRqQey4dcKfThkXJyxBAIyNkJ0e4n8l2rPcbGxtYKmsh9UodQNzKNkKjt/S/ZWc6e3Kmyz+uFR9fzobSWezVnWZssLDvL/b4Jn66MP4ucsR/qoK2hhk/JqcmlPYRP3It3/NprUbV9OP15vPDCvQIEll/2gxhfv+0gumEC1ytI8u3i/QYIuaRvgICiAMGYRiZjzb14WSMkbOZlHHgDhMOSWY7tIuAUDDnh2wYCfQRTeDPorDQwi0wLl6yJpJohG2ciENywKX2Q+m4NS3YVM2kNo3suxrbLXwKUxxG5VYS2EX/SLggJ/jgJK6cStPvRmkBYr17h//bwqYYx1Snm/xXAyn1baydYz3RUJzmbq8h+l2q/5fBprzdIqJG7wzAqGZOkCQxa4kl7FeHcJ1LKKDGWYAkRgfCrv4ia04fbb+CFFxAIjmiEXhjja7fejS5LDXJFdFotXCQaYQT5hBohGZhG1AgGCGIaWQnO3TcwjZK+ZJZjdkRYBsIcYtEI3xkQTJzItHQ8Eckf0MrTQTyJuRNxpDXtRu1g3kMQkdqRkI2bG0LbGcIcahjfczG2vOB6oDCCDlsOOEWhechNTiJpVSnRI5qCA+d8tZudvYGnes93mlDLxvs15p81V3hPns+EmuYPstYIz1O123pRo/U0RjaHks2jnGrTFzCQhn0qigV7m8piJMo4CDVKD9IY6Mwhevo+AULd6cHtNXD1hXsMEIoEQoqv3XoPOqElBS6ddnvgLI+gIBohEWf5ZnGW6SMMNIIV48C+M7FxfMg4y8I1IhAquPv+R0+hEcJvi2skZyMCPuiZIYxZw5w13sGJsKoCQQR6kIumw5zGPfErglwNXa8YEESgAAAgAElEQVSORbuO8d0XYNNF1yJxa2jFOcReSTLOYrIIEIA8i4ZIYcnRvFs9obZehdp3g2KxMsSqu7IK4fNNsdCEbTbipaXA3ynFQtvY6HGyGkjkbUWHQKvVOjXpTkhqCgRtiMvsM5taLR6DPfsw3vmrv4C63YXXm8M1FwyAUCqhF6T46m33ohPaUirZHQBh+ySB0EMQpWhaVdx88D50fTWN6CwnOCCkOzrLawDBLUhxP+JvDwjsq2T8AVauMZpjwql8Zg8l4+KeAAPfnzWX2I4mSkIEZJZ6NfRzdbScOsbPvAAbz38hYruCTppH4pWpEgX4vG4Mwxbz7NXqCRN1rczyeqSy7wbpTqnUWdKd+ECDNvbPN+lOQ63KPqVJROeVodH1NMJ614fnoeFa8fUGrIlsVl2dadESBMIyDdsxJXKFfEEo1ZJfkH4+JubOzGrk99FvPI3C0hN4JzWC5QsQrr7wTNSL/Dx9hBRfvfV+AYLRCPQR9ohpVBDTKEXLquAbB+9Htx8gtU1vfmMa7cKmsRqcuCcMTdEIhQrueuAxPDZgn7JQhkCwMj7CWNlB3mKsvyu1AVyxiPQgR2DYp6YYn/t+xAo2MfsYFiUY2G3bgID/H6hCozMECJpvIIgsBGkM8WrcsoCh7Q5jbM9FGDvvKgRWFYFbQZorSqWc2PMEgu1IPyTPY72zPrLex4nfTeGJaoyVzyZmX68PoVBgbbmpjRABHnSYIwNgTRq2tKw0HbVLg3kEYWC69knCSzr7BSiWTOvP+QUzr6FcKYPvo5XA62ySsF2x71mMleNxVXYGzcZOmCOmsoxrL1eqQjNhDTjXwKgkgWHaZhalr+ypHuYKWZL4XevBc9fwqOZNshqIgNAeSnJEOsumYCIQwS+VDKecDxncoW3TxT2I0e92gM4s3MZhvONXXo86G3SJs7wLQ0WgXM6jHwBfu+UQuoElXak7nQVcdGAXtm0YRV7otsZZ/ubB+9D2I+lRGrDTmpVIPcLm0ar0LCIbNY1jcZbvfOBxHD66gMCpSDENfRaGWN2wjSsu2IexCoEQIiYN26MNrjTsQf+81JDsDA17wP4xXZBPFBUtFxaZdyyL6oB4qKZMTI3AHkikVscWQrssGmF47yUYueT7EBXGsBg4iNlt22EDs1S0gWOx+S2HcjjIF1irkL2VJ0wyvnr06FEMD4/A99mXNEYhX4LnscWO6VO6sDiPbdu3kKqFXo8CZOYxkPma40AIyXWYKCB/ljk3HJZiW6hXKnj6yScxtXWrlJ3OTk9jZGRUjl8smUEdjPpJvmSgERnKDjlHIowwVivh6DPHsGXLRpGR2blpjI4OI5/3pNV/p9MWAWd5axiYto+FQhFLS00UiiWhp/MCPPXkE9iyZTPCoC/5JLqhQeBjuF6XBm/iFDN5yM6JloVytQq/78twmLUey/2KMlWCy47xAKAnFeZQIxCJDI9y4cXiiaaxpiZXvh8Wt9Q0RuD3YbVnYc08jHf8yi9hiPz13jyuvmgXaqUU5RKBkOLrtzyIngDBQ6fTwEXnnoGtdJZZQB8CPeTxzTvvQyuIEZO5GSeSUCMQtoxWkY/aKNrsfxQJ6e6OQ0/i0aOL8J2qAIHNgFmYQyBcSSCU3WWNcDIQTBbAlgJ+AkGLYVZWWa95XU/6I02jkNoqiuFFKRK7jCVnCEN7L8PQZS9FWBjHQugI6Y4tZlg5x+S0Y+dhgULgwZOJP5SFrPaRyiEjhD12+4YJJjCwTDcjBqrVIRSKFhaaXdSHS/KeIOCADYOqns82iyEq5bwIMXddc39NIZK0sbRSHH3icezbtw/33n03Nm/egpHRUekATu3CBgXcrGyPWhBSc9LuprBk3BDQbnaR9PrYPjWCI0cbKJUKGKqX0e+zaVsBYcTGcLYEBdqdzqA+mkEYBw899BB27ToTM3OLqNeHRZ64SbDEtlJmJrwoYXpaJC5b18exUMClcq1YRF8GjOTWBcJyfmAAhCwIZJsbFB4tl2qyi4UpkDAkLQLh1I6KiaVHHPXUX0D0zH2ngRDFyLEznlUSINT3XY7aZS9FVBjHfGALEFwrWAaCbeWWgZCXMrXVgdBqkrfD3Z9d99h4i3SPCopFC48/NScRq8pQzVQNyo5vdt14MPqKnDCSJAkKpV7I13HjshJM1GtoLcxjfHxCOn5wx2XRkJfLYXGxjWK5jE7PlwKnxuISHj58GN1eXywG2k0bRkdRKRawceMklpoLcF0LGzaOo9tlFxEz6ouaIefmMTM7i4nxSTldtvpvd3pgnoSuJ3sxBD7NK+ZlLOlYTlo/d2uakRRYApnrpnC32m1wGtN67Vy0/DQLgKzfocfVTuLW3Nyc1COw1oBflMuZzggnf0jLCs0MMwmfPn7wXzUQIib7TqERFAiLkbsMBMcywVILHpAWRSNUqoOa5WXzSE0joxFYF04eFnc/agLfj9Ht9PHlL/8z/tOrXo3CUF3AQKEzGttaHv/EvIVhCsQijFmqsxiFaYxbv/4VpGGAiYkJJHEKPwzExmf/p2qtJIbh//8Hf4b3f+hDePChRxB1O7DLFZTKFfi9HvK2g363i+uuvwa//Ms34AWXXCQbZX5gltETe+zxw9i2bZswB/x+iIWFJek35DgePvKRj+Kmm27C7OwMarUqtm7divPOPYCpqc244rJLxWrkRsBNulgsiDmkoVWTDV+9yTSvXzbhdirHWwmKPJZQLqgR+EFpditztIzKloLzwfgnXlCaReJYMtcQtxE9evtpIJxCI1QveyniwrhUtcXMx8CXjDKz2EhZ01wUsl2ZPBXZokVRn/gZmEaddld8g06nh3aLtnIFI8NjOHjwbrzwuhfh7AsvxlyzKQKhIKDjaVqvmLb+5mGOreFDyQchxqGDt2G4VgEbtY2NjRjTKzXd8T/9mS/jZ37mZ9GWHq8llCoVocu7Xs40900SzB2bRpWNnJHgqccewSt+5IfwP//n2zE6RpYqC/E5xKWALp1W9pUdrOZNv/U7+O03vwU7du/G9PS0vI8+aWP6OHKlknCMrr/uWrz1rW/BGTu2IvBNCTHLW/mIGHFsLpn6l2yXlMHx9UlJi5q11mc1i4wVZI4pvCv6CPwPdxZTeGFqWRUIJubKIXuhaYrrOnDR+1cPhNizT6kRFAhRoS5AsNO+TAQSOkfCSTwFAUKikalVfIRioST2vW27knfgw+8Dd9xxF6544TWob55CIOOszDRUTg41CTDL0FwGwwJl4xpIodEMJqv+zOH7MXNsBhs3Tsg9X2r20On1cfCuu/EzP/tqzM3OYtOWKTGRaI4wcEKLgZGW+bk5nLHzDHTaLXGKd+7cjkMP3o8rr7wC//APfy/grA1VwU4TPE2aUzyPn/7p/4gbv/BFbNiwEQsL8wLWcsXMOWA4VImENGsuvOAC/OZv/AYuPP9sLC50MDJcRrdrWgkN1arIcVDGGkDQJNqJDeDEZqDCryXJsh8xaiR2oyDMqCOTteNrxkSinUkg0KlheCzvBKeBMADCSh+hctlLkRTGkZZHTwKC2DepuwyEdoedAukcn9pZHq5zl6bjy8AtK91s0QyPPfYErv2el6A6uRGscTMEOUvIkGRths0loJBnfNXMepCfwShgSiUN8yTEwvwsKmX6LMDR4w2MjY/ipm/cjp991Wvw5GOPY2rnDoyOjYnGmJmZkfuu1Gbu4EE/EPPD9/s4fuwZDI9y1FWKA+eeg49+9CMCGoZJh4eHMD3dwO233YlXvvInRa62b9smUb+lpUWz5nYbIxs3isYZGqpjdnYWi9PH8cM//u/xe+98p2gURrq6nTb8fh+bNm4QDbFW8wNeFwWBEu2yoKCsn9QEmMME1TTiB1g0YmK0JwOBRfcEAuPWRTdEdPiOf9WmUZJzJIy4GhBQGZNcBtvSWGALG85wdsQ0SlIHHYah1wACIyzVKvvHMutu5JnRtgcffAz7zz0PO87ej2anI5rlsksvxY/96I9i8+ZNmJubg9/vYXJiXAAizQIG+SApkJG50iGuuOwCCVXOzTel0UCvH+L1v/Rf8al/+gxGxsZQLJXEdPHbLfzAy1+ON73pN3D23m2YneuItfDww4/gNa95DebnG6IVaF51um0szk7j81/+Es4++2zRBJ1OVzoXXnnli/DYY4+Lo8vw6PSRp/ETP/mTePWrXy3tgW666Rt4x9t/F5u2bhM/gs7+3bfdik995jO47NJLpB1/qViQedmUxeF6dZkEucIqkv9qk7VsbbIWCIkGGPTwWg6zKvuUKpP2pYxqkoknVINmLBEvKEHAHy6w4IYIHr4Vb7/htRhnJjDt4uJ9mzBctSV8utjs4daDj/0/HT5VZ7lIBqlbRSMto3jGhRi54mVAfUom9WSBoKaR8RFsaYmzFhCGavVBRz3Wiw+s/QS4996HcdU116I2TqCZpNeVV1yOj33kfTj82DTGRkckp8DpPpw2ms8B3U4k86rpB/S6vuR6aC51u31ppDYz15L68Ze94gexectWcevpE8wceQZvuOG/41d++b8JgCplG8eONDAxMcoumFhcCvBv/s1LMTc3iyhmJ3IyYns488zd+OpXvoT5xZa0tCEArrj8SmzatFlyCc888zT+03/8Kbzrnb+NpQ6HirD9DvC+938UN9zwRgECN2OaQNdcdSXe/rbfRq1aRr9nRgpznECeQ7fXeHxbg0KMzWSAoAkbRixWAoEaVkwjAuGhW04DIYqxGhDi/NCyaaTOsmoE1kBwFO5aQOCgRJqmtGRkuLmM0yIQHsRV11wDt1SUHI3nuLjm6qvx5x9+N44dW8TYSF0so7m5ltSPDEn3OfoZEBOlWmHkJ4+ezxnVHtqdAJwW9PO/+Dr846c+jVyeme885hoNsfl/602/iW1TmzBcL3ESPAp5TtBM4eYs6Th+55334OpLLsGGHdsECDynxvQ0Hnz0UTFzqpUSbrzxq3jF934f6hs2ikZ45umncOPnP4uLX3ChrOvYbBsjIxUJHAyVxrFh2zZpi8MO5Fu3bMY3vv4FTB+fQ951MDoybJqpreMjPOfRUSfGy5osJAtl+MwF83fjODMbaQpMeFHpI5zWCCZ8uhoQolxtDSC46PVpfq7uIxTyrBbLAsEeAOGQAGFyajN6HPkUhrj66qvxoQ/+GVpLxu+gEzs2PCwUCN6vbqeDer2KoB8iV/CwtNBEvphHvpRHs9WHH8XYsfssVIdGxExincWxY8fwp3/ybrzyx1+KxlwX46Ml+Xy56En2mpONOHQsn7fxspf9W/leUi1YZkm7/8Ybb5RMNUOlf/mXf4XXvfb1YirR3Js+egSNhTlUK6Spc+QXpJlBoejgksuvFyc753qYnZnG+Qf2428+8pdSxjtUKQ+0HLPoJ2fiVyqH5zxM8MR4WdPir9s1A+G4YI3jEggEAcOndKrLto/g8YOnNcJ3oBGYcV0LCJUye7ZmgWA6Zt5770MChKHxMTbcE41w2WWX4W2/89si+IVcTnhNR555BmMjI7KDMvdTLhcQ+hFmZ2aweesmiQLZzIUA+MYtB3HVZVdhdGobCsWymEW0EL70xRsxWh9CueCCsxxT1lE0FzBUrwuNXBJgEtJMJJHWajXB+cemLSR7nQYy0P3WW2/HzTd/U+gWFbbJ6XbwX37+NWaON2wUizbuf+gZTG7YhC1bt+GMXbvRXFyU3k87tm7B+977J6hXihiqlhD4PRQLeTiDSNpq1tF3MF7WAEE1Am05AoGLpfDzlEl3oG05ZPsIn7nvNBDWAEJaGB5Up7FnU2g66Q2cZW4pi0tr+wj1oeHBaNuVPsIjuPKaa+GWKyhWq9KLljT3jRs34PHDh8WBrJbLmBgfw9LiAmJGANPEdIZAikqpjLvuuhNbtm4QbULz6qMf+wf81M+8GkMjY5JJpkaYmprCjV/4JJ56/Glsn9qEWsmBlaQ4fvQpbNiymSVGQkTskyLBvqqOgwcOPYCz956N2casaIO52YZQQlqtNoqFsiQHmRmXZJmfwHFtdHoBmu0uJjfU8T/e9kd462+9BVt27JAwKc28bVs24XOf/hgaMwso5h1UyyUEQR8F4UOtHjd6zgPH1Vnm7iQp+gGTkZEBopohJwVCFLL7Woqa1Ud05P7TQHgWGkETaieHT9f3Ecqlyqoa4YprroPveBiZmJSwKXfiQj4nGV8KysbJDXj8MQOKEmP1pSKWFhaE0Xn8+HEk0ZIoI95Py83h45/4JH72534Bo+MbcGxmVrLH559/Pj71iQ9j+vgSPCeVziKIyO7tw+E0JVgiwExccYdn9Ir5g4mJSbHvqc0YMarV6lhabImpLXPyZG41SYj0N21pEtj1Ixy8+z686JrrcOAFl+LpZ55BrVrBk4cewHs/9AG88sd/EH6nK9/NtqHChBAG7+pAWOkjZBNq1CLfUqHGhJpSLExLDTMxh2hjBElDq3RQeOGoMsvoIXjy7tNAWAMIvUxmOZtQ08yyrZnRVfIIcWRG355wlpmMs3Dvvffjimuvx/DUDtgF9pIN0W61JM7O3ksksbFzSCHnyTPNotAPpC/VcH0ITz/9NJ48/DBqJQuB30W5Wsfnvvhl/NCP/QQ2T23H8dmG9Jq69pqr8ZG/eg9lH/12E0PlnFDV3byLkHyiUhWNxUUJp5dLZTTmG9Kdm3mHYZLp2BQtMGNmOx22nMnDlpFNhqZDlip37aV2F089cww/+MM/KkVMOZI+BzOsx0aH8bWvfBbtpRYmRqqI+l0kkWksQMay6Rh16sdqzYj13SZ5bJJsklluNBpSoUY/wCQYisuFGQPG8gB3nC9AIETwCIRHb88AoYeL9218juHTwoB9Ggld2WeGFIaGLezTsINihoZ9x6En8OjRBfgDGrZQPr5D9ikvSrYaYM14XOaPUpgz4Bqt5iyzLWSWYqEaQfMIQ3UOS1ydYrG02MwAgTf8BBCuvvZFKG/ejlylJr4b7emw04JXzCMkB4cJAjoU/b5M9ymwWZnfNxz/KMbjTxxGtUiqwgJ27NqNz3zui/j+l/1bbNy8Veo3GvMLeMXLX473vucPZNJQueCg2ZhGrZSHnYTo9nuIXQ99mlaDxsY5j0Mm2dA5JxsoLQqpOyhz1hupG+xUkogzTd9hZHRMHPn3ffDP8Vtvfivm5pewafMWFEolPPnkk/CXFvHAIw9jYmwY9SrnW7B2wUIS9CVXUqjU1gQCfZWVj6xW0PzCMteIUzWlczLnkTmOnAxPipRc6T4maXwChTctRcL25+0ZxEcfwDt/9Q1Cw/b8pQwNOydU4LVp2BZ6qalHaJE56djwSeFgPcLe3dgyWkM+7KHI/BNnHhdJw34Mjx5tyNhYoWEnHPkafFs0bFODLe0p5PFcwcB+wCmHjHBtUYoIRSzaNWGfkmIR5cdAikWXBSxsb++yDJStLRl9qyBfqAinR4FgKBAnk+5oVlCYmO+MQhoB1NQeHnjgEK667sXID0+KMDRmjuO6667GO3/3d9DrtrBxchTddhN5z0XIYeJd0zWDJHRucqVSBXna2hUXBc54sFzc+JWv4sd+/JVSEtvqcmB4gu/5nhfhPe/+Y4zUyyh5wNzxYyjlHPRaS4jSGNXxMXSDAOPD48IujYIYY6MTaLfaGB8bFU1Gqhqp4DTdOJyiXC2j1Wmh2eogij384mvfgM9+9rPCRKUMymyFMMDiwjxu/PznsfesPVKuO1SrCOAFUbFpftDp+2uaRjoqV7tUyBVms+vByFwm1OgTa5G/1Ww2RSPEqalwUiCwUS0vHr+cqswhF91m4whfgJAcO/QdAqGEbx68dwAEC35iivfP23smtowMIR/2UWRpKLtYFCq440ECYQ6+WxwAwVSofTv1CEbuBvUIg7LsZ6sNhIz+LICQlEYECFbCVpYnA4GxetMgW+sP2HVc68INLEm6Iz+HuyiBQHoGQ5EP3P8grrz2Rdh4xpkyY665tIAXv+ga/OHv/w5aSy1sGK8ag4E3nQNgfCa66OvRCfYkR0DKdOB3cPTYEYyMTeCWOw7iB3/k36E+Oo58qSLOLekT9xz8mvj4R586gq0bx1HIO+gszjNsArtUlGKqRe7kGzeh2+6hXquh3+WMA1acUWZsiUxxwPyx6aOoDdUEEPcdehg//h9ejWPHZ1GT4fUpdu7Yjkceegj7z9mHv/+7v0Uxn0fBY1adtQnUPGxSzWZrEKo48zBr+Qhaj6BF/Hp/NbvM17MznWWYoJELU6KnA/MUCBREBQILM04D4dkBwfeq6IXRKYHg5WgHD3oaCYX6WzUChfFkIJAUaYBw1fXXY2L7VgRJJJyhl37fi/Gxv/ogur0OKsWcDGxhu0rZ4FhlJuFQHaRutDxb8wck9ZHmbTmoD49h+5698NlYodNDa3oa9z7yENIowJ6dG9FpdjBcK2Pm2FGMTYzj6ZkZhFEs/sAbb3gjmktNzByfFn+hWq7gXe96F/JFFuxUsLDUkhJP+kV/87G/wat+7ueRLw1jbHwSjcacgJZa4L+94Q34ude8GiPDQ6gUXcRRCs+xpBiHDj/NPQKDodPFpaU19y76JtlOFiuBoA0DljWCAoHbiAKBdh9NIwl0cTOSaTqmUxWL0FmqyfDpd2Ya/b+tEbJA4CwJmkZJzDY5FawEgrgKqhEGhhrzOSZyN9AIHJBr5/DAAw/hymuvxcjUBtg5mmchrr/uavzZu/8ICwvTGKoUUfRyiBJftCmdbhMJZNGOMQmt1JIoDEO0nCk9PDaKCy+9CsdnF1Cs1DDXmBe/4jWvfhV+9YafF9Yrmz3Hfg+bN21AgwmvUgVhnEjI9tKLL8LZ+8+RHAVHek0fP444Yce6Fmr1qpzRwmIb37zlVrzsFa9AtVbHxKYpzM41hPPDMO9ffPjDePnLXoy5uSYmJ2rCRWSJZ6ngIvBDATb3C61zXmqaGurVHtmpmtnhJeobaG/fk0wj40QYjaCFOTofbNmIlhs1GAzYbSB44q7TQFjHR6BGoI/AUk3lGrlOVYCwXIewDIABC3VQj9Dr9gc+QoIw4BAXF7ZFH+FBXHXdddh85hlYaC1Jre9Lv/8leP+f/Qk8mwTvFH7QRSnHslCyIshgNVqBURbWSzMrxEYF9HHY1XVhqY2v3nwrfuJH/x3OvOAiHD02jS1bpvDgnXfi7z/7aVx1xQtQyhvS39zMDMbGxoW2TVl57Wt/AZ/59KeQJqHQKRhM+cFXvBy///u/Lztyu9MXk4zF/9s3T+Hs8y/E3Pwi5ltLogpfeNVV+Iu/+DBqJaDTJdW8J07x8FBB4gtkUnS7nIyaIqcEQoum49qFOeojZE0jjRBp/yat55aoUbfbHYyXNc5yFghCzRaNMLBhbRbTR7AIhCfvPg2ENYDQtUtiGmWBIHb+QCOUOABiOWr0rabRwsLiMhAiknrAzxogXH3t9dh81l7MLixIkvN7X3w93vrm38TUpg0Sn28tLUiyjFEigkCJlFK7zYIrqYgIsJ2F+xxtBQezC03sPmuf9JVlskpnQ8wfPYpv3HEbNm6YQLfdwvZtE2g3YywudPG+970f7/q9d2B0dAhRRG0xgQfuvwdf/NKNhn1aLKPvRyiW8vipn/ovuP32u8QvcPM5RGmEfefsw/vf9z7xR6IgEIeYhEDhtLGYLwZYsjo6zMIgdlMx3QlJxSaPaq2qcx5zrZYwjBadBASOlyXZzhCmmOTIS7KBO4hWqKmPwAWSQsvifUw/dBoIawCBFWpsSEBnOasRCASHwlbknGppIDGIGK2uEQgEagQFwlXXvQT5oUm4+ZJIC8HANjudpQXk8q60ymS4VJFG7U7n3ITDaRr5eNtb3oif/qmfkL6v4xsm8dTRWfzpe9+PP/mzD8joYM7GYxiVtI3u4iIuvOwSvPQHvl8AFvoxvnTj13H7TTdjzzl7kMSc3rmATnsRL7zqMnz0b/5aBrM3GgsYHR3FwpKPvXvPA4NoxWINm7ZsxuEnHxbSHfNSZJqyi4bQQaSjIpsXdIR9yqKkt77lzdi+bauUkhYL9H1SdJrNNYGg9Gqdu6AmlOYOdPYDwSAagfMRaCexwCILBIbchPEoSYdE2H5UWaTZps1pFJaePA2ENYDg1Cbhk54C3wCB5ZIxjRJ2v7PQaNDZWz1qNDI8KtefTq4BAgvigQfuP4wXXve9KI9uRZ/R2ZDNASxps1MpFVHIu+h1OxKGNENeWH7LEZ62mU5EEynu4rd+/Rfx6lf9JCzHw2Krg1yhBNtz8EM/9kp8/sYvY3h0bDDExZLySSbMSOeQ+t7UQRo62LN7D3rdJfFNwoBdvps4fuwp5POuZLBrtWHUh0fwgQ98FK97/Q2oVEZQKtfRWGhg4+ZxdPstWRt9hDojSkixMN+QGmaaSMVCTnb1z/zTP2HXrq1iIrJIjHTsidHhNQtzWEzEY5vyY9O1UdIE7DEVx8sh22UgZEl3FHoWjfPN5IXwxwxVSAQE5HgwV1OvuogeuW05oWZ1GrjivO2YHGWblRAJOBbq0Br1CMwj/N/tLAcyRScHqx+iF7ro5EeX27lgdLt07WYXCwIhjftSmMN2LkyocWj6Cfap5g9O1ggkq2lhDm3lxcUWhoerOPTAYzj7wEXYc+5laHdDBH0OdmSLFoaaGaVifygTM9eubgk7QbDFYWgK1dOki1+74T/jv9/wOiFZ0mavVIdQqlZwfG4Rv/mmN+PDH/ow8pWq5B24Qn6ONj3tdM/Jw4pdTG3agttv+wY8L8WuM6bwoQ+9Fwf275U+toa1zAmZJbzq1a/Dx/72H5HPV1EsDaFaq2KhOQObCVP6KiJfptyUlgkpGyP1IRw9ekTauDz04CEBCYtzGA1iKJURrLUq1CjsJN7p0BPNNOt14aZPP2K57ctzBQJDfcM1F9HDp4HwfAKBhTkU0iCIhKdjGjADN998EC/5/pchsgvo9chf7pv4K3d9Zo7Z70kbD5M+z91Q/ADT8MtkuAP83jveite86qdRrFTgB3GGCqwAACAASURBVCFm5+bR8wNs3T6FmUYTn/v8jfjABz+Mb3zxS3DrdWzcuEl6FNGMqZVriH2gceQIitUSfv3Xb8CP/PDLccbOTVJYn7KFplAYuGYXv/SGN+KvP/J38DsB4Bbh5dk3iRnwQQBGmLAk7tmmTDjwTTDBsrB1x3Z88pP/KEk67YvK6U31aum7DARuF4M49rPRCKeBYPII332NcHJm2exUJhvMR2NuUZJhtVoRd9/3CNxSQco9pUEWNQ8TTvRJBq15pIZkMP+OQkZ9Iz+83UmC8eEhbJgYl8J88QcdF0EUoUrQsSw0AQ49dBj33X8ITzz5FB5+5FE88cQTspbxsQkMleu47JJL8aLrr8HGDXVxbucb8/BYyx2zk0Zf2l2Oj2/AHXfeLQVAQ/UxVGvDYl4nqS+ZZ20oYHohmR5NJMxt2rQRrWZTgHVg/zlyPCXK0ewbqddOA8FQLP7PZpafHyCciB7RBKCfJglO14XfNzs9GZvcaNl7td1tymw7zrCgWUEg0COW8KjLegEzCNLx3MFILF42es2AkzpwbSatIqkZlpYpuTzCmLPUijg+PY2JyQ1S9tnpxTJVlJVtrs1YPsAOk0nE3BOjVD6GanksiHNtS5KMJg0BxpwB66HzhTJyBZrbkLrnoSEm2IwDr1R/AjAIYgEC/RJDh2A/JzYNM4PIxbThsEf6D2vkEZ67aXRaIzwnrpFSLJ5vIJDJSdOIwk8wkLnJx9zcElqdJWzZPolur2WmaopGsCU0JBwxy/Q3cj1H6AjsDsEGzqYNMs/AxtJiB+VyVRirc3MNU6fusXKuL8U1rudienoG7XYXwyMjGJ8YM3UEUSrfWS4VhFZB+jdNGmqko888LZSJSqUsjFgvxyo4MmRjtDpd8VHGxkcGUwZMUznTX5eWnTk/gkcaBXc74qMyDDo7Myt0bz54XvRT+P1rPU4DIVzZBPhbe59+N7hGzzcQuPsRACZyx0a/fQmfSv8pl/1IfXQ61AjkaBmNYPKdhixJE8NhqaYAwYNlam0FCNQZnlOU2RSMyTM0RQoDQ+OM4DBMaeoMWFdtIV8oisB2OVGT44UrVfT9rvCBxJiXuCwpuZF0pKNm4Oc5eCZXyMsuvthqilapDw8J6PJCyzZUaKmWGwwiV9OI7yFw6GyTbSrHYxPgcln6o66lDQygnquz/Cw1AhGrHYtPO8vPl49wwjQyY2G5s7MDhWn2a9ogJmi2ljA6xga6pr6cQPDIz2eygKxP8vVpIrEZG20XowzEpOKDvgJHdhEgSmijE91cXJCk1ujoiNAkGMZkpzvTFc4WzcJHnxVieRe+zyywB8fNSafg6WMzkj9gczLpLRoF8FgXIZ2/SZ4kcNgyyEfeK0AQLaTOBBaBzNgQAScMWEPlpq9EAPH7CUz5PztZDLOP0uqP7zIQTK97SXKwnSCTaVaK4WoOwSO34+1vfC0m8i7szhyuOHc7NoyQGBUhsVx87ZsPoBtwTkYO3fY8Ljp3lxkdxVhuyPBpWQaFtEIfkUP2aQjbinG+sE/ry+xTEmS8YkVo2I8cmx2wT/PmhpO6zbbwF+7DuHbD/pa28Lz7JJqt7IZNU1kI2XI1NUuZzVYqPVvep8ODZE4CEKbc1QqI/RidyEMnP4bhsy7FyKXfB4xuQ8zCHBY5gRleX8Karu3BSln8nshurIJ5ciG6+Va1h+knsL2JYZAy4Wn8BQo4BUM0AnugDoCwTJ8fDIGkf6DMYeJE2rwzOxv2pfs0awN4f1nI47NdShxJ+JImE4WY3bNNlSIJmXnDrTYBVYkOMdEX9H3kckV026Sc5wYDImn2xCjIlNU+mu0lVKsVFEomCED/QqNbUhi2rBFCAQJfYw6EWoDnSu1A0FMzsCve5KRpKrza4zkDoTG/kOokdH6YVUzaQdgMhR702icVlrtLmqLfOIbo2KN42w2/gE0VB8VwEVeftxMjZQf1WhWNhSV8/ZZ70Yss2F5BpmpetH8XdkwMo5CyWgroooqbDt6PZhgIEPoc9zqgYU8RCIGPEushohRusYw7HnwUjxyfRY+zEdy8kLIECFEbl1+QAYIMCpFhsINBIcY0WgkEFteQccsoi5mbYKZmZiamye3WkVHm/eaYJCNGQQg3V0Y/8dBzqmi6I6jvvgCbL/0eoDSOVuyBM4CYOeYum7DMNQpRzOVQLFdkMuhaNbcr+/IYPphJcApwLZPoUhqMLFbthcHvJK1pt2eaRTpCmDssi2KMsNEJZSc50zRYnG063mz2rHPUHAeNuYZEbZY3B04XksZhJlFFoJg5zWZOA48jO38xb3b8QfiXDcFkZFUub0wim7QPJvvIh2LlWl7OS893NUFfb2KOGVzCljgD+R30OtWhITqUfbktfGN+MQOEaBUgGG77CSBMo/vUIbzz116PTWWgEMzjuov2oAAfedfF0PAYPvmFfzZAcIvotZq46Jw92DFZRzHpS7FJN1Ug+AhdAoEawdQjGCAEKHGiZ0wgVHC7AGFGgAAmsuKTgTBWMfMREmoEDipPB4NCZFbaSiCkSKzUAGEQRRl0DloeHJIt2uHOvSwAMlyEofgIbqGKMDeEjjeE2aSC+s5zseWS64FcHW3kEcBDSm6PxS6LBIKPUt41gzgECKuPlz01EEy48WQgsB3kideMDJpkmhaeaMNbBYJJmHoZIBSXQWJ2f9NHVYHA/9NOz44L0PepPc73EAjZwYQEAlmgprDLlFWyVYsW4ejr2Yk2JwNh9R3/XwQQ/MYx+M88iP/v11+PETdAunQU3//CCzBazmGx0cDw2CS+fPOdy0BgxdTF55yF7ZPUCH3EYYJ+QtPoXizRNCIQkoFG2LfHmEYcW8SLFzMHw8Kcw2Ia9WhbujnYdAp1dJRMzHn2QJCOHBY7h57Y5dl0y9TAnjCOdMIOhwcu65iB5pC5X4mNdlpAy6kJEDg6ausVL0HqDaFnl+FbOaS0g7mzsrIvDlHKuVK+yPrc564RTgNBofEvBgj9p+/HH77lBmyueWgfO4zL9u/EWTumMD87J2Jz+70PD4BA06iFiwiEDQSCL8UiQVLEN++8B80BEFihphph8+gwcmGAAusiSMUtVnH7IQJhDv0BEBwmgWJffITLLxxMzLHX1ghqAhmhDk3pKZukW5yAzGZTjhSpaOUTWZpmwKAZUM5nfpbzBVDMIwkTLIYuut4wFt06xs+6GJMvuB5BXEBSGkXfyiOhwFvs1xnKEIxiPodKqTQgNK4e+zitEdYuoP0XA4SFR27DH7z5jdi9aRiev4ip0RLO2jklvW/6QYSbbr9bWnU4bl6AcOH+s2TgOIHAgvAw4eiou9EOfMRMpAyAcO7eM0EgeFEowyhotrrFmpRqEggs1WTjTYecmgEQ6CyP0ll+DkBgc14aPDIG3PIQWXlElif/JyOTthAHC7oDEHhJsAwGqilqlNQrgnTroDCKdn4MQzsOYGj/ZYjSMmICAXnEtJktM1CQjiidUk6EkUHuazh7p4HwfwwIxll5Ns5yb/4YOk/dj9/5ldfCC1vYOlbB3m2T2LFpQpzOVruLg/cekugIPX/6CBees1eAkE8DJJzrleRwqwChL32vwthohHP3nYlNo8NwB0CIE8sAgcX7xxrwnaL04uEAbx0mSI3wnIGQGto5NYAAATl5NmNnzTRRM3c5XgaDaARqAytBn+stVtHop2ixw/XQZozuOk/Gy6K2AX7sLQOBBfJSe0sg5D3RCC59jdNAWHaWKXvf6iz/b/cRjHPEHYsZzZOjRmy3oM6yyYl356fh9hv45Ec/iPtu+xrcoIWLz+bUzDEp5SRLkP13OIaUvXX6zUUxjWSqZsomUTGCNIdb77gbnYAtR5iLYTw8FiBsHBuGwxi048IAYQh3DrpYBE4JlpODRaEctHN57kDgCFlT2KHjZxMO72BYb+ArMEKkySJ1pE3ANZXxsmx1ZhWreGJ6AX23ioldBzB55vmon7EfKI+hF9riIxjTiN0oIiTRAAinNYIQ6P6FOcsmfCqTDON4FSCwOuhE+LS1MItqnqorwC2f+0d8/cZPY/vEEKYmR1Ar5JBzbHz+s59GEvgoMEfQXMDF53DO8ihyDJ9GMfy0IBqBKX3LJtB8Gik4sI8Dx4fFEWZRRpzYcApDOHjoMRw+Oo/ALolGsAYaQcKnz1EjLIdJNdqSIVmIqEuYlP4CexNRY5C9SaCY10LLRRcO3OoIjs+3UZ3cigNXvgjYshtIc1hc8uFWhmUOM51lxstjqRiLJHzKzK0WPa225502jf53m0aNhgAh+6Ohrix327SDNPRaJmiWFmZhpwFoO3M4uBd1gagH4efGAT723nfjyOOPoIAIYWse55yxFVdedC56C3OyQ4ZuBV+9+TY05mYxxsqkqI+luRl8zzWXYXJ0CN0mxw4x41hAvjKCb971IJ44tgi7MIwgTuHY7GvkmzzCcwQCd3rOL5ZmBRxvYJO1ybLKQJiTnCfs5ItohwnakYUkX4VdGYVVqLHMBu3YxWw3wYbtZ2LnWecgv3k7UKgKCBI7j8QpoLHUFs2l15IJNRkWwjnFcYzJzVvWjBoxzLjWY2RkZLnIREcg8R7xwe9k9lUffF2Gykvbf1MrwB1Ze/7w70pq07i7hmFNQtV0gzPz2fqSH+Dn+TrDnYzXazhWkmODUCl/1+/lZ3V9anHo+lTO+N18HxuDsffqWo9nc31WhpWzYWQ2GuM5mGrMGFan0xEg6MwpreDRC6CL5ps1AcM2HZbnSaLIYTQlofD3DRAi8/yZD74H9972Ddh+CxU7wf5dW7F35xTajRmUylX4Thlf/+ZtUnKXYzw/6sNDiEsv2A/PijBcI/clQEyWZHEIt9z1EJ6ZbiEvk2hoc/tAcgIInLOcYx6BXKNV8ggmo8BCEPbbYfc3H1G/Dc8KUfQAlwPrEgIhAbwCYq+EnltGM8lhPvTQs0tAcQgojeDcK14MrzoGtzwkznAvBkK4kgVnAy8BqyOdoU4EZTn6RoCQoOOHMsh7tQdN1LUevB+sDdAp95ojUEHUZ51EKf7QYDNTAebfeBzt5KA5AH1NQaUjlvTvCizdGBUEBAnvGWWGOQXtGMHvyxYKca16rGzeIwuElSWWK6/FqTrZZd/Dohwdq3vS0MBBpprvVSDI2pIkkRlqfCjhiRcm2ztSy9z0AhbYxo8THgYpIbZqlCiMgMEA4f5//gK++Km/w5FHH0DJCnH5+ftxYM8ZWJw9hog5gPIwPnfjlzBUKKBgA53GNJJ+C5ddcDZ279iMOOwKVyVObXilOm49+DCOEAilUQFHlHAc08lAYEKNnzsVEEytrgECE1mtHjur5VHK2cix3UrUQxT2EMWBzCYr1scQ5ipoWyXM+jYW0yIKY1PYfvb5GD7jHERJBchVpUMDhZ6CHaeWFL6zHyipDKQsm2aNQqKhfSmd2tgzqtUPxMxa7bEel0bvFZ+Nlh74eYPkFe8VBVRvtgrWyoJ2vk+oGgMNIhwhtnJkdnmQmFMgnGr+tr5Hd3LKDh9MpOmOrIIvY6xc7a176jPnZ6gRshotu2b9fb2NgkBYHrQ++CpD9zblm4Z2bjQCH9aJCjUDBO3+paov6zhzB+AJyjDqmI6miXxwkjsD/g5DjOw+R0DkUrQeuR+P3HM7bv3qFxE057F31w5s27wBW6a2ArkC/viP3g3L72Mo76JsxSjbMXZuHsWWjSNI455032NNbbEyitvufBBPH12EmxsWKjAcNh5bAwgrKBZZIEjyjNEnDktkKJTCH/ZlWLdpoVDAQj/Cgg8EhTo27D6AnRdcAUzt4raPxoIvXClqqmLRdHwIObU+MfwYudAsGpPh3qRvpBLlYkEMk2qsHQ4JyTU0AnfUtR68L6cqRdSMMO+V6VNlmjGouZI1l9SE4k6uuzv/zp2U99nUAxjhoTwoOPg6j7nS2VVAZbVTVqtkBU+1RFYjCNVCZiizuZnZJFTwVz6fGJ976qsk7FUZxG6oIvp9CgShf8hccVMXLUBQGzCrynQqoe4kii5+sFytSOSEP9m2e7L7pZEA4plHH8CmkSq8ehlozCBcJFfFMY1qyCVfWsQH/vgP0Tx+HGl7CcOehZGChW0bhqRtYc5NJKRKbk+hNIzb7ngQR483USyMyrSWMA2QJv1lH4GmUVYjKNeIjq9mjGW1MpDMRhBTEM3USYu9Xh0XfmqhFdAvANqJjS1n7scZ574AoA9g5aV7Q5DSqSjDzteRMHMsLEv2jiWVjY2UjeBx6B0xNSB+Go6GtJszGqHNliTfgWnE20/By9bkqvmj1AjTp8oIsApcFgh8HwUvaxqp9tdwJv+/0jRS219Bolw1AsrUKtvLIFITje9RjZDd4bNmk1aoEeAr7fuVfsV6ppGaaQpwHs9wogyoee0IJv4IZ4qmkQIh++W6mGVS1GBCOQ/CwgvYUuuECI5MT1Eff9C3GXlEWJo7iqDdRLXgoZBzEfZ7soA09lEfKuIPfvd/4PF778N4MYepWgn+wjHsnhrFuft2wrICaVQVxim8fBW33/EQZqbbqFYmpHFtJ2yvDwTy3Q2lzrQxWQaChcb8Eoq1YeSqdfThYjGw0HcK8OobkB+ZxBmXXwuw2J6coHxZtAQzxOy65gcJqvUJ4UxxYn3fZ5dwJg890zt24EgyacaCGtPDy/RUYQAgiiN02A1kjUTCeqp/PY2g5og60gqErLmiu7/6GroL6y6qzi13TkOoOwEoBQyfVfCzJpb6DVkHXgMyWR8hCwQFJjWCfk61wkqNQEbuWg/TmYX35QTPSUHK82FUTqybAT9KgKA7CS+AOsvqSCkQ9G+8ySW2PUv6YvdGNl1cByE8sb5FFQJYnJuW0GnR5ZjUkkxuWVpcEtOhUnRgF2J8/N3v+l+tnVuPW9UVx5cvx/bYc8uE3BOSQKEoiUiEgEigtt+hH6uvfalUqSriqagVRWpKVRWpqqgEFKHyCKWlEtCE3GYmc/PYPnb1X/v8kpVT+5yoraXRzNjH++yz97r812WvZX+6ccNWmzO7+vRpG2/dsqePLdvRtcxWVpQUNrFW1rH+YMM++eQz++br+5a1122sMobNsc1mNRphASOI/jrdnhu325Om3TkwT5xbefoFu3jtNet/95pNh1NngGZHXTB1nvzADof7NhEGnk1tsKSjhCLq3J+bArs6lSWG8GrQTQXmkooXH3gx58nMprPcDsdFD7UFu8mJrKrNjhoB2AJmj3g4MkOEIvpbml7jQCQwh85A4DDR95GcGNwwO4Qq+tA4qUd3Kh9aNpLRCtGAX8QIZQ1QZgR5qqpeGPxoAbSY7h0ZgdKQD41lMBXuMaXCeg2bwPG43VYGOjmVcnU8fcDazgyqlFBUj/Q6O+vLA8+v0TmGh67Xdsddo63pjh05tmZf/eUDe+fNn9vdLz+39Wxm37t+ze2D0XjfU3jVgujEsZP26cef2pef/dMm+5PUfX1jtWCEPXvtpcv21HIreI2E/FMKtXddkP9fdkEBReR16q5u2J0HQ9uZtGzl1AU7d+W6dRQM6x+18aRt2fKGqemTG/aCOY2pZ5Ae7u3YaLhvR9fXi3a8E7cNEiN0LNOh+3bH4U+KFTzOCI6O5PEZFg3HF+xmnUYAGmHYRkbQfEWU4GFcpRGSYEvo+9IIMA6SXuNrnnpJuosxYmYp0jsSvWgHI5ffEHScC4Z9GaYBjbzNVYCN8/6ug0apDdp/2j66h4hfn+u31saZ+VFXzdRDTepED6HfPLze9zOwGF/tlnV7RcnCUhY/DydiTUciHy/eXRRb8wM+YqHBoG22t2Wf/uG39vsb73gawqUrL9rVl6/bqTNnvFeD9Tr24S/etI/ee9eOtKaWH+y67SDiXO017fVXXrS1ztR2t26ZqcFIv2NLKhI1Gtv2cGKjRmbWW7ZGp295M7Pd2ZLdyZdt/cxzdv7Z52z97AWzlSMJCinVwtrWyJYcgqn6MbBPxK1CaOo70JGLNi/qBCl1uZ09XFhVhEgQJGGfsqdG79UljdVttAhXxO7VIgqXoO7JXmmTRcDRIEQbgNujHQBD4G2CIfg/plhHuAH2TtUS1ad74kyFsY3BjZdG75ddp3GNgDRAuEVSv259FCfgVdYmaMLH1kc91Fgg1B4wCFzIA2J8AZeqVBPtPeddIyNxpGrHwz1bbefWEzOMd80277v0bq4dNWv1bWfzge0/eGAn1gf28bu/tPd+9YYNxtvWHu/b2sq6tXVOYLRnl587b6c2+ra6JP+0RO7Ixmp1pY7yltlu3rLdWdvG7b61+2s26R+zyz/4oU2XNvyAuU5dyRZRFLiVLVkr63mjPE++kzZRL4V0CtJjDGIAzzny4lTJRw7udcOrqKoWn70s1bxgVsUrBrbmXSZJFiUwxAW0xaUKDJnHjEhtYAz/i0CQ+DFWgC2QDmzR6STNjnWI6yF6iv8zJ+gH54y+j30CQ81z1cZ1qPMaSctFBis/vx9xLU7FuUNIjULAlUwUrwMVheFyvqjrI8fN26gqjhVE2VT9f2V2jnetOd41R+xdRbXUJC6zO9tD2zh63Nq9ntnOpn144y17/zdv2XrjwEZb39pKt2uT4Z7Z+MBeeemKHT8y8KCcXKpqe9oZLNuk1bHdads2R2YHjZ6tnTpvz166atkzl82Wjpu1dLRUKG9io8OJe6M8GqyeAd5RJzGBoI/OFEjS68drCCk3qtl4TNrjdECQzGMENkTatupFe9RF1wgjR2kLA0J8BEC5Ju4xblOCcUhp4FI5cMaYRJdhhAh7dH9iBHq/DI30HFHQQmMxUBvds4LmVa86jYoxvQhiiRHQZv7ct2/f9o45GBEsih4EyVB2ZaFGqyZaZdWL9lQXtKPjg7N9G2/dsXy445mZ1u3brJFZo7fm9UH78lhkZh/97m1748c/sjMrLbt84bTd/epLj1nk4wO79PwztrbctU7b3JDvDQZ298GObQ0npsbfJ5+9ZBevXU9xgGnLhtsH1uytWbvTt6YqRegMQj61kbrTTKUJBId0yk08or4C6fiiDGz9eCwxV7HaxxkBA41FrsK5dV6Puo3G/w0BliUexiE2X5Ts+g6aQ8QrpsTLE6Wz/gY+6Xp+MECRuMwBW4TvwSjMDdxOEDBqBIJ/aMI6iS/oXfXC2TBPE6LB9DysT+PmzZvOCHgGsAu8Xk4RiEGagK2kdsoBmvKkqqx6CVv50Q+HuzYb7lg2G9tyV6VHMq+wpiOeyxsnbWfv0JtLZ7OJff7x+/brN39q462btpTv2/DuTTv71Lr1Oi17+twpbyjR7/e8nOBwktu3Ww/s3PNX7OLV62anLpo1+zaetCxv962zlLqp+EF0RXfl/VE3ebWS13tqbjhSsdhUUkQBMJVFUUUHx97F+XV3xwajTgurtdHi+kH34jWPIeq8HjIYq15e36ejBn4pbjHvpflgR+AV0rUxLyjmGEUNE2GF3gceIxQxeHFzxjgBn5U9PzFzgTnH8bBn0Az/i8YkIFkljOL6NG7duuXQCGsaI4s0CxEMGFgT00Zrk+owXKVG8IPwTRse7iZN0JpZ1iiSuiYzd2sq0U45O17WcHfbTqyqwPDQvvjgj/bWz35irf0tO9i841Uzvv+91+3oxmoqM7LUt+Onz9qpF6648TvJlDD3lDXXT5j11iy3rpKvrT1VUlqq+pbrfMR4YokP2l6eRIa2GMCbrhd9u1Tfp6uCVmob4YW00lax2CIYMcGTMEKdxKNP8CJiEHTSZiO4wOJcH6PGeE80zxjUwhDWXLAJ8BRqHOyLyAi6DojM+9AHY0PIuhaBiSFPoEtMDG0Rt9D3o5u2ihHqNEIUNPOMZc2RJEJ3OKi9LIyAtCBSGA02BtMGKBhRZ7VXbbQ0wt3Ne9b0Di9KPRhbPlJUMrdG1rVmd2CTRsf6K2vuh9dxyeneltsRraZqoQ/tkxtv218//LP94+9/s1dffdnOnT3tFTfOnj9vR668aLN7D6zRXzVb3jDrrNq4uWSjRsfylio2NGy6t2ld1Qf1VO+UX6P7e8MsVY7zWICikQkaqQaQDGtVf1BRNi9mUFSG0NqAN/HaRI05TyrV2Qh1GkGbpzHEDBBUOQgVMz8hNmIKwBNJYfYK24b5gvmBEFqjGKjDsI3QGmZgfNYB+yJmv7JuaBt9V88T85QWMUOVM0bfiYJ6HiPomrg+je3t7eTRLFxwSAGML/BUmRGi6p832aqkMdVaOxgPvc3QdHzgTKCygSI05f4f5mYPDsZ25Ohxd0HKO3S4s2VrvbYn5s0Odqyz1DE72LWvv/jc+wOoBenSyeNu+N7+5l92/MJ3PIPUsr7/5GKEWcsOVZdlmttye+aSXeOrNpBDmsPUNEJwacUjlyq1nnKIVN9HzOHR0ZZ521Y10YiGJXgaiFEFjeoCZnXOCM1TRAMEwFDnnmXDPUIQEacYTXscxwCzQ6DRE0WwTN8FMkNIGhtojYOFOIZ7ZIqyMNG9CpPpnni/9J6MZJp8VGmEzc3NSuiIoF4EjXAAPWT++/fvu40AV0vKiCPxDGB0wSDiaBlyBCIWzaYaGgmcKI14zzujKCszlTJse7bpeNb0IJ2aV3htzcIjr5RvHd7xxnvePHti5mVSdI4gnUF2uKLDM/nM1HFJKSCt3sC6gzX3CHmgTYWyvFtuqgSqZDsxAlFR1ehRE74ENwSXZCh3nVHVmjUlbKQYSYSN+hsbQcQCQ+B315rNC27NW0MO5ixaX2AO9f0RWBGqsXd6Lv3gFdJ3YVoRHeUU4+caJ0ZlRXiiCT0XgVVsDRGy6ENEjCu2bKTGgK3mgmYSo8BQ+hu4B+Muev669WF8fjMfaF3va95iWNeWOzs7RQ+1dOgm1dxU8aVHORrxb32pnAvy32iEqU28fqbOBHhrKqXnttrurpQbU6VSMmHyTBmiRa0eXZfaPVtTvn2dc3UmGHtpZj8f4XBFG630h6kTveICGktlyt0dWpROx5hzrOtBw5RLnxhBmZdFXbOv2AAACM5JREFUHr3y55VI52nELZ+DNIXiCXrhdka6wVAsOs4GoCceuiqRVqcRCFDBCFGaA2n1HkRGugS4HUbgYA3MERlb15BlKkyu8WBwIJDekz2p72OvlL1Kek6gka7FbRtjLtgm5P9Uint16azRCMTAEOBRU/KMmgtR9YZ6qEVsyGbhZeAh2GwMjCcJ+Cx+mKm1M0ntFLFORWBhhFSWMFdhr6zjJc31uc77KmEtvdTBPhWociaYTZ0JsmbDO/u4DZBPHMfrO2nuKQAkmCOjWGUp5SFKGDadwBJjYQzCBOBuaQ4xq0MknQBTqy3PZE1GJesR1zLClWhk1nncNCbMtGgNo1RGeuMiLcM1f7bQQUf3x6dPkBTtESUxkEfjc84AiQ+BIel1jT6DoRAy0XME88FQwCbe17WkatcFHJlPlcYkcMd92A+cBNg4vjZKuosqHNUqTuEh4iKygHW5MNVW/dRWV/s2VQNpEbmjGR3YSEnLLsnUDFt1jTx9Fume8Lp+MmWDShor319Gr5jAGaHpFSLURkmaZlZ0YkxnshNjTGZNy5up0XZikkTcyhT1397l/VG09OEGCgoVKy9G8LzW4lAMmBeIIkkbiapssNXFCeriDIIGECOGOpo7emrYQ5g1YvZoXIOZ5zFv9BwixRkXrQOzoZnigSEIMjIFdgaCFljG/OqcBU9iY0VmZC945lRYOe2m3zPmGsWgibglMgAbzEPVTeTevXsLFYKOxq+u9K3ZVtOLosJcI9XRTPIeDSDoM/F8f2F+YJMIs9PRYZOGtdTksGg75A9UpLmlZpXqOJmYQV1W9KP6nl7US65VtVtt6Mhe8q2rtLr+Tz3IUkem1Mginb0dybNUHFZREz8/fKPvFPU7fR7FCaxyCkJZNdepdnWjrHoJ20J0kaDjfWBSYAxEFq9BoscTYXiHIhNxrgFoBT0kOyrl+mMM6zNyoGDAiNmZV5wHf/NMdYxQd4JPgoa5xd/cR4KK/XJNluf5LLq48PPGoAh+YTDjk7i3qlIExAjyvIgAU16PskOLtlnka+oAizJXD0fOCKmChI5oNjyfX0HoVrvh8MmJz0+baeRH41CtQuOoxZIa76WuFMqWTcG7xAgpMNXJUl/pZJMkRoAZ5FoVI+hH66B+09F9CkQiwDVPG6BNIZoqQq9zrwKfMIJhRgiJ+QA1FnkBNRc8QkCbKM31ud6noG60F8H1QC0O5ohZgHYwTjngVjamWQuNyaGwqvWpO8EXvULRixdRDgeOXEDIRoBrtXkEhDCKcKuiAjmkocGrXnWMoOORepisN0hVqwsCdo+MsLeOTY4OnXhl9JoqYLfVqFqnn0bWaepcrWwN5QYpScz9ST5OIuKm5H2qyZSrgcWBZ426xmipoFfL0yf8bILOPCwpKzJV+9WzepVpdyunp5R5IiY4JBO3gGO4BiEQUnuR0hEOYDCySVXrVxd51p6xV2m+STPBbBqbtIUIQ5Dk6dnSCTXOCCP18QJpTGxFQTU8PAhGNAfeI841iOgj1IKG8JhFzYTAgDHEBBqnzitZF5DU8yFwkh36qMKH7q/POKHme7S/v+9VLKIrDEOERdDnGIH6ch0s0iSqym1435bp2KVMpzdItUH9FFeS0M4WgjA6ZaRceRFvu2stxRlmqVldu3HoJV1a3g0mGb46PC/7waFfAVfEDNIg6s0rz1DqL5Y5JFP6hNxKftjIGUGEJMM59zZKTjQFtSZ4lPtpNC2s3Lp0ugRSakG1PtGlGYk9MkKdsadyLXUvSV3ZchjJaHHwuvYUCFA20GFcPYvsDf3G08LxT42HdpBfXs+n67gPjEBMCVek6AXN5K7JIkYVXccwQMTpel49j4RoXeZCXUAXQ5gAJ/OIUJZgojOCGo6jVjURclN0EQuiB9DAGlSLReZj1UaRBrvomv29XY9OK23BmUz5PMWh9xTDaNl4KPeWsHDK91crJDeWdfa0OfOAlnKA9Fl6iREUE5nZ4SjV3vFQ+iidr5Ch/FD7FXX9IaJekbOj/9VCicBQJCAvTFbUBfKCZ4UUxpjWtURGkUj6HQ1UpHidxKtT/bq31lg/SH4wusYWccuvnzrvPN5XAUwvgtWeivBEuESpgTwaF80OJkdao03w9EA7Gk/3h3bQIghV4lSaKx6o6E7V+sh1XJd9Wgcddd8oKLBR8I7p/hqD9WnoPEL0PrBRLJI+04LAYZJ4muQijAfh13lFtPAaB02Eek8wJLk8tZiaj/7HCGUTwa4RA3PvuNF6jwWJmJb74CIUEUCcbEx8RtQsKQIYfEAjGCqmLGCkRWb6fx080ZrEo5oEurDjyikYEaqxThCziJ3vIfV1DWceNH8YAUKH0Vk//RbEIlimz6NL+aHAKTRm3G8+4954xKoEbZ1GSALt0Sk1zQVNxf4SM3MRKhsBjaCHQZVg8OgzMF/y1nQeO+K2aLJ1AaGYYBWJ3+FI4YmIft44Ry2iNhofuMYqB07ivPRMnLyLRqwvQJGIRubjvOcBd6MVtZBojGgjIB3B5GX8q7GR2nXQqM49TbS4bNgiNPQ7CgnWFJsF5tSeAq/QHPjwYS5di43g2jgc4kdowZjMR9/lXqwf61OO9kZG0N/xwNEi+qpbHwJ30ZkQnT7Ycnj3GsPh8GGBLwhSE4+qTwO4p6TIKYlQatFE6wJCSFT9jpsUx8OnjRsXJtFvVG3Zrw1x8x3GYP7lsdgsGAliiHAiut/wQOBhiVoIGFR2U8ZrGKsuYFQHneJzcV9sg3j/KEDKeJz1jJ4mxmVdWC+YG8KPGB/Nia3EPXm/PGb8vMygUeNXaYS6XDf2iTXRXKA1tFFEQm4ssyBRWkSvUflz96kX1QoWTbYO40oyMtkIQVh4CA3JVWYWuDsuHA8d56SxUYvRhRiJE0cAzFL+PkwbmQ6oUX5+5qDni8QE4bD4dcZgnY1FbADhFYmO+2K7MMc4Z2Ai0DfCtyjJ0XgxVwnGibGSKOX5DnsWhVOZ6eJnMDT7VcUIdetDmnd5L6Fl4mTs178BQDtvFmfUUj0AAAAASUVORK5CYII=;" vertex="1" parent="1">
          <mxGeometry x="896.74" y="380" width="287.69" height="151" as="geometry" />
        </mxCell>
      </root>
    </mxGraphModel>
  </diagram>
</mxfile>
